# Blender 4.1.0
# www.blender.org
mtllib WoodenBarrel2.mtl
o WoodenBarrel_2
v 0.367785 0.884812 0.179976
v 0.277885 0.833555 0.314921
v 0.136217 0.833555 0.397291
v 0.387892 0.831084 -0.132995
v 0.307471 0.831084 -0.271311
v 0.398746 0.882342 0.024912
v 0.180240 0.831084 -0.368323
v 0.175609 0.882342 -0.358860
v 0.299572 0.882342 -0.264341
v 0.409261 0.831084 0.025569
v 0.377927 0.882342 -0.129578
v 0.129578 0.882342 0.377927
v -0.025569 0.831084 0.409260
v 0.264341 0.882341 0.299572
v 0.358860 0.882342 0.175609
v 0.397291 0.833555 -0.136217
v 0.419177 0.833555 0.026188
v 0.314921 0.833555 -0.277885
v 0.179977 0.884813 -0.367785
v 0.307022 0.884812 -0.270915
v 0.026189 0.833555 -0.419177
v 0.184607 0.833555 -0.377247
v 0.368323 0.831084 0.180240
v -0.024912 0.882341 0.398746
v 0.271311 0.831084 0.307471
v 0.132800 0.884812 0.387325
v 0.408663 0.884812 0.025531
v 0.377247 0.833555 0.184607
v 0.025532 0.884813 -0.408663
v 0.387326 0.884813 -0.132800
v 0.132995 0.831084 0.387892
v 0.270915 0.884812 0.307022
v -0.367785 0.884813 -0.179977
v -0.277885 0.833555 -0.314921
v -0.136217 0.833555 -0.397291
v -0.387892 0.831084 0.132994
v -0.307471 0.831084 0.271311
v -0.180240 0.831084 0.368322
v -0.175609 0.882342 0.358860
v -0.299572 0.882341 0.264340
v -0.398746 0.882342 -0.024912
v -0.377927 0.882342 0.129578
v -0.129578 0.882342 -0.377927
v 0.025569 0.831084 -0.409261
v -0.264341 0.882342 -0.299572
v -0.358860 0.882342 -0.175609
v -0.397291 0.833555 0.136217
v -0.314921 0.833555 0.277885
v -0.179976 0.884812 0.367784
v -0.307022 0.884812 0.270914
v -0.026188 0.833555 0.419177
v -0.184607 0.833555 0.377247
v -0.368323 0.831084 -0.180240
v 0.024912 0.882342 -0.398746
v -0.271311 0.831084 -0.307471
v -0.132800 0.884813 -0.387326
v -0.408663 0.884812 -0.025532
v -0.377247 0.833555 -0.184607
v -0.025532 0.884812 0.408662
v -0.387326 0.884812 0.132800
v -0.132995 0.831084 -0.387893
v -0.409261 0.831084 -0.025569
v -0.419177 0.833555 -0.026189
v -0.270914 0.884812 -0.307022
v 0.387326 0.143267 -0.132801
v 0.314921 0.194525 -0.277885
v 0.184607 0.194525 -0.377248
v 0.368323 0.196996 0.180239
v 0.271311 0.196996 0.307470
v 0.398746 0.145738 0.024911
v 0.132995 0.196996 0.387892
v 0.129578 0.145738 0.377926
v 0.264341 0.145738 0.299571
v 0.409261 0.196996 0.025568
v 0.358860 0.145738 0.175609
v 0.175609 0.145738 -0.358861
v 0.025569 0.196996 -0.409261
v 0.299572 0.145739 -0.264341
v 0.377927 0.145738 -0.129579
v 0.377247 0.194525 0.184606
v 0.419177 0.194525 0.026188
v 0.277885 0.194525 0.314920
v 0.132800 0.143267 0.387325
v 0.270915 0.143267 0.307021
v -0.026188 0.194525 0.419176
v 0.136217 0.194525 0.397290
v 0.387892 0.196996 -0.132995
v 0.024912 0.145739 -0.398747
v 0.307471 0.196996 -0.271312
v 0.179977 0.143268 -0.367785
v 0.408663 0.143267 0.025531
v 0.397291 0.194525 -0.136218
v -0.025532 0.143267 0.408662
v 0.367785 0.143267 0.179976
v 0.180240 0.196996 -0.368323
v 0.307022 0.143268 -0.270915
v -0.387325 0.143267 0.132800
v -0.314921 0.194525 0.277884
v -0.184607 0.194525 0.377246
v -0.368323 0.196996 -0.180241
v -0.271311 0.196996 -0.307472
v -0.132995 0.196996 -0.387893
v -0.129578 0.145738 -0.377928
v -0.264341 0.145739 -0.299572
v -0.398746 0.145738 -0.024913
v -0.358860 0.145738 -0.175610
v -0.175609 0.145738 0.358859
v -0.025569 0.196996 0.409260
v -0.299572 0.145738 0.264340
v -0.377927 0.145738 0.129577
v -0.377247 0.194525 -0.184608
v -0.277885 0.194525 -0.314922
v -0.132800 0.143268 -0.387326
v -0.270914 0.143268 -0.307022
v 0.026189 0.194525 -0.419178
v -0.136217 0.194525 -0.397292
v -0.387892 0.196996 0.132994
v -0.024912 0.145738 0.398746
v -0.307471 0.196996 0.271310
v -0.179977 0.143267 0.367784
v -0.408663 0.143267 -0.025532
v -0.397291 0.194525 0.136216
v 0.025532 0.143268 -0.408663
v -0.367785 0.143267 -0.179977
v -0.180240 0.196996 0.368322
v -0.409261 0.196996 -0.025570
v -0.419177 0.194525 -0.026189
v -0.307022 0.143267 0.270914
v 0.252799 0.005724 -0.223069
v 0.324836 0.032144 -0.111375
v 0.021138 0.013489 -0.338323
v -0.302977 0.006416 -0.148263
v -0.222593 0.002695 -0.252261
v -0.109323 0.005431 -0.318855
v 0.304344 0.012844 0.148931
v 0.109198 0.003789 0.318486
v -0.021287 0.023659 0.340725
v -0.149803 0.021228 0.306126
v 0.391542 0.514040 -0.134246
v 0.374083 0.252101 -0.128260
v 0.310364 0.514040 -0.273864
v 0.296525 0.252101 -0.261653
v 0.148999 0.013489 -0.304481
v 0.181936 0.514040 -0.371789
v 0.173824 0.252101 -0.355211
v -0.355210 0.252101 -0.173824
v -0.371788 0.514040 -0.181936
v -0.261652 0.252101 -0.296525
v -0.273863 0.514040 -0.310364
v -0.128260 0.252101 -0.374084
v -0.134246 0.514040 -0.391542
v 0.025810 0.514040 -0.413112
v 0.024659 0.252101 -0.394691
v -0.024658 0.252101 0.394690
v -0.173823 0.252101 0.355210
v -0.181936 0.514040 0.371788
v -0.253578 0.010120 0.223756
v -0.296524 0.252101 0.261652
v -0.310364 0.514040 0.273863
v -0.319904 0.010120 0.109683
v -0.374083 0.252101 0.128259
v -0.391542 0.514040 0.134246
v -0.340737 0.023709 -0.021288
v -0.394690 0.252101 -0.024659
v 0.342730 0.032144 0.021412
v 0.394691 0.252101 0.024658
v 0.413112 0.514040 0.025809
v 0.355211 0.252101 0.173823
v 0.371789 0.514040 0.181935
v 0.222766 0.003789 0.252454
v 0.261653 0.252101 0.296524
v 0.128260 0.252101 0.374083
v 0.134246 0.514040 0.391542
v 0.374083 0.252101 -0.128260
v 0.323016 0.024017 -0.110751
v -0.305336 0.017516 -0.149418
v -0.355210 0.252101 -0.173824
v 0.024659 0.252101 -0.394691
v 0.021019 0.005431 -0.336420
v 0.303176 0.007351 0.148359
v 0.355211 0.252101 0.173823
v 0.110452 0.020113 0.322141
v 0.128260 0.252101 0.374083
v -0.224914 0.017516 -0.254892
v -0.261652 0.252101 -0.296525
v -0.109113 0.002695 -0.318242
v -0.128260 0.252101 -0.374084
v -0.150056 0.023659 0.306642
v -0.173823 0.252101 0.355210
v -0.024658 0.252101 0.394690
v -0.021234 0.020113 0.339887
v 0.296525 0.252101 -0.261653
v 0.256046 0.024017 -0.225933
v 0.134246 0.514040 0.391542
v 0.273864 0.514040 0.310364
v 0.261653 0.252101 0.296524
v 0.223323 0.007351 0.253087
v 0.371789 0.514040 0.181935
v 0.413112 0.514040 0.025809
v 0.394691 0.252101 0.024658
v 0.338171 0.012844 0.021127
v -0.413111 0.514040 -0.025810
v -0.374083 0.252101 0.128259
v -0.394690 0.252101 -0.024659
v -0.322946 0.023709 0.110727
v -0.336652 0.006416 -0.021033
v -0.296524 0.252101 0.261652
v -0.255550 0.021228 0.225496
v 0.025810 0.514040 -0.413112
v -0.273863 0.514040 -0.310364
v 0.173824 0.252101 -0.355211
v 0.148191 0.005724 -0.302830
v 0.181936 0.514040 -0.371789
v 0.310364 0.514040 -0.273864
v 0.391542 0.514040 -0.134246
v -0.263842 0.960132 0.232813
v -0.154693 0.959858 0.316117
v -0.351948 0.956915 -0.021988
v -0.113987 0.961899 -0.332456
v -0.232078 0.964825 -0.263009
v -0.316557 0.957791 -0.154908
v 0.113469 0.968657 0.330943
v 0.317678 0.952515 0.155457
v 0.348597 0.971101 0.021779
v 0.334308 0.953628 -0.114623
v -0.173823 0.775979 0.355210
v -0.296525 0.775979 0.261652
v -0.333572 0.956915 0.114370
v -0.374083 0.775979 0.128260
v -0.128260 0.775979 -0.374083
v -0.134246 0.514040 -0.391542
v -0.261652 0.775979 -0.296525
v -0.355210 0.775979 -0.173824
v -0.371788 0.514040 -0.181936
v -0.394691 0.775979 -0.024659
v 0.394691 0.775979 0.024658
v 0.374083 0.775979 -0.128260
v 0.261677 0.972328 -0.230903
v 0.296525 0.775979 -0.261652
v 0.153396 0.972328 -0.313466
v 0.173823 0.775979 -0.355210
v 0.021819 0.968358 -0.349245
v 0.024659 0.775979 -0.394691
v -0.021945 0.959858 0.351252
v -0.024659 0.775979 0.394690
v -0.025810 0.514040 0.413111
v 0.128260 0.775979 0.374083
v 0.234006 0.952515 0.265193
v 0.261652 0.775979 0.296525
v 0.355210 0.775979 0.173823
v -0.173823 0.775979 0.355210
v -0.155541 0.951709 0.317849
v -0.114099 0.960440 -0.332783
v -0.128260 0.775979 -0.374083
v -0.394691 0.775979 -0.024659
v -0.351741 0.957791 -0.021976
v 0.113658 0.966188 0.331496
v 0.128260 0.775979 0.374083
v 0.315301 0.963699 0.154293
v 0.355210 0.775979 0.173823
v -0.232765 0.960440 -0.263787
v -0.261652 0.775979 -0.296525
v -0.315061 0.964825 -0.154176
v -0.355210 0.775979 -0.173824
v 0.330396 0.971101 -0.113281
v 0.374083 0.775979 -0.128260
v 0.394691 0.775979 0.024658
v 0.350345 0.963699 0.021888
v -0.296525 0.775979 0.261652
v -0.265337 0.951709 0.234132
v 0.273864 0.514040 0.310364
v 0.261652 0.775979 0.296525
v 0.231864 0.966188 0.262767
v -0.025810 0.514040 0.413111
v -0.024659 0.775979 0.394690
v -0.021815 0.968657 0.349174
v 0.173823 0.775979 -0.355210
v 0.024659 0.775979 -0.394691
v 0.153809 0.968358 -0.314310
v 0.021915 0.961899 -0.350771
v 0.296525 0.775979 -0.261652
v 0.264996 0.953628 -0.233832
v -0.413111 0.514040 -0.025810
v -0.374083 0.775979 0.128260
v -0.332852 0.960131 0.114123
v -0.391542 0.514040 0.134246
v -0.310364 0.514040 0.273863
v -0.181936 0.514040 0.371788
v -0.017999 0.013309 0.363893
v 0.113687 0.013309 0.346147
v 0.343840 0.016500 -0.122859
v 0.276869 0.016500 -0.238041
v -0.244079 0.010062 -0.269504
v -0.324501 0.010062 -0.164031
v 0.395416 0.247689 -0.140664
v -0.121306 -0.003925 -0.339213
v -0.234786 -0.003926 -0.273232
v -0.374832 0.247689 -0.188786
v 0.017784 -0.001373 -0.360426
v -0.112558 -0.001373 -0.342860
v 0.021363 0.247689 -0.419146
v -0.156234 0.016446 0.329984
v -0.027465 0.016446 0.364066
v 0.322335 -0.000139 0.162968
v 0.374833 0.247689 0.188785
v 0.131556 0.247689 0.398538
v 0.242482 -0.000139 0.267695
v -0.270154 0.013708 0.244650
v -0.164408 0.013708 0.325280
v 0.267486 -0.001080 -0.242331
v 0.162878 -0.001080 -0.322092
v -0.274055 0.247689 -0.317858
v -0.131555 0.247689 -0.398539
v 0.121374 -0.003015 0.339426
v 0.234941 -0.003015 0.273395
v 0.327760 0.006040 0.155129
v 0.361587 0.006040 0.027325
v 0.366736 0.025340 0.018177
v 0.348841 0.025340 -0.114610
v -0.326393 -0.000388 -0.154461
v -0.360068 -0.000388 -0.027231
v -0.188785 0.247688 0.374832
v 0.155180 0.006327 -0.327832
v 0.027318 0.006327 -0.361674
v -0.021363 0.247689 0.419145
v 0.311487 0.247689 -0.281275
v 0.137585 0.514040 0.416318
v -0.188332 0.514040 0.395956
v -0.180137 0.780391 0.379065
v 0.146812 0.514040 0.413154
v 0.286430 0.514040 0.331976
v 0.274056 0.247689 0.317857
v 0.140664 0.247689 0.395415
v 0.391669 0.514040 0.197094
v 0.281275 0.247689 0.311486
v 0.395956 0.514040 0.188332
v 0.437279 0.514040 0.032206
v 0.418546 0.247689 0.030972
v 0.379065 0.247689 0.180137
v -0.379065 0.780391 -0.180137
v -0.395956 0.514040 -0.188333
v -0.437887 0.514040 -0.022471
v -0.419145 0.247688 -0.021364
v -0.398538 0.247688 0.131555
v -0.346905 0.016657 0.113955
v -0.364696 0.016657 -0.018060
v -0.395415 0.247688 0.140663
v -0.317857 0.247688 0.274055
v -0.274519 0.003316 0.235932
v -0.340844 0.003316 0.121859
v -0.413154 0.514040 0.146812
v -0.395415 0.780391 0.140663
v -0.311486 0.247688 0.281274
v -0.180137 0.247688 0.379064
v -0.030972 0.247689 0.418545
v 0.022471 0.514040 -0.437888
v -0.146812 0.514040 -0.413155
v -0.286430 0.514040 -0.331977
v -0.140663 0.247689 -0.395416
v -0.281274 0.247689 -0.311487
v -0.379064 0.247689 -0.180137
v -0.418545 0.247688 -0.030973
v 0.180137 0.247689 -0.379065
v 0.030973 0.247689 -0.418546
v 0.188333 0.514040 -0.395956
v 0.032206 0.514040 -0.437280
v 0.188786 0.247689 -0.374833
v 0.325523 0.514040 -0.293744
v 0.197094 0.514040 -0.391669
v 0.317858 0.247689 -0.274056
v 0.413155 0.514040 -0.146812
v 0.331977 0.514040 -0.286430
v 0.398539 0.247689 -0.131556
v 0.419146 0.247689 0.021363
v 0.416318 0.514040 -0.137585
v 0.437888 0.514040 0.022470
v -0.293744 0.514040 -0.325523
v -0.325522 0.514040 0.293744
v -0.311487 0.780391 0.281275
v -0.281275 0.780392 -0.311487
v 0.373845 0.970046 0.028108
v 0.338801 0.970046 0.160513
v -0.170228 0.958513 0.337112
v -0.280024 0.958513 0.253394
v -0.244940 0.967244 -0.284728
v -0.126275 0.967244 -0.353723
v -0.188785 0.780391 0.374833
v -0.334432 0.970909 -0.168946
v -0.251449 0.970909 -0.277779
v -0.140663 0.780392 -0.395416
v -0.375272 0.963966 -0.028204
v -0.340088 0.963966 -0.161136
v -0.418545 0.780391 -0.030973
v 0.354402 0.977905 -0.116516
v 0.372602 0.977905 0.018544
v 0.125834 0.972992 0.352436
v 0.140663 0.780391 0.395415
v 0.379065 0.780391 0.180137
v 0.244040 0.972992 0.283707
v 0.285937 0.960432 -0.246007
v 0.355248 0.960432 -0.126798
v -0.284881 0.966331 0.245046
v -0.353891 0.966331 0.126356
v 0.337045 0.958628 0.170223
v 0.253372 0.958628 0.279960
v 0.116716 0.974995 0.355036
v -0.018568 0.974995 0.373267
v -0.028162 0.966270 0.374741
v -0.160910 0.966270 0.339605
v -0.117237 0.968121 -0.356571
v 0.018665 0.968121 -0.374886
v 0.395415 0.780392 -0.140663
v -0.357635 0.963412 0.117613
v -0.376011 0.963412 -0.018746
v 0.418545 0.780391 0.030972
v -0.317857 0.780391 0.274055
v 0.374833 0.780391 0.188785
v 0.293744 0.514040 0.325522
v 0.274055 0.780391 0.317857
v 0.281275 0.780391 0.311487
v 0.131556 0.780391 0.398538
v -0.022471 0.514040 0.437887
v -0.032206 0.514040 0.437279
v -0.021363 0.780391 0.419145
v 0.188785 0.780392 -0.374833
v 0.311487 0.780392 -0.281275
v 0.030973 0.780392 -0.418546
v 0.180137 0.780392 -0.379065
v 0.160015 0.974993 -0.337758
v 0.028025 0.974993 -0.372692
v 0.317857 0.780392 -0.274056
v 0.276416 0.978681 -0.250233
v 0.168135 0.978681 -0.332796
v 0.419146 0.780391 0.021363
v 0.398538 0.780392 -0.131556
v -0.391668 0.514040 -0.197095
v -0.437279 0.514040 -0.032207
v -0.274055 0.780392 -0.317857
v -0.374833 0.780391 -0.188785
v 0.021363 0.780392 -0.419146
v -0.137585 0.514040 -0.416318
v -0.131555 0.780392 -0.398538
v -0.398538 0.780391 0.131555
v -0.419146 0.780391 -0.021363
v -0.416318 0.514040 0.137584
v -0.331976 0.514040 0.286429
v -0.197094 0.514040 0.391668
v -0.030972 0.780391 0.418545
v 0.357949 0.930963 0.020466
v 0.268899 0.933631 -0.238287
v 0.157610 0.933631 -0.322355
v 0.116262 0.933631 0.339465
v 0.237150 0.933631 0.269902
v -0.157523 0.933630 0.320967
v -0.116262 0.933631 -0.339466
v -0.357948 0.933631 -0.020467
v 0.321937 0.935326 0.159191
v -0.237149 0.931094 -0.269903
v -0.321937 0.933631 -0.159192
v 0.339029 0.930963 -0.114393
v -0.268899 0.933631 0.238286
v -0.339247 0.935521 0.117883
v 0.357949 0.903463 0.020466
v 0.268899 0.906131 -0.238287
v 0.157523 0.906131 -0.320967
v 0.237150 0.906131 0.269902
v -0.116349 0.903594 -0.338077
v -0.357948 0.906131 -0.020467
v 0.321937 0.907826 0.159191
v -0.237149 0.903594 -0.269903
v -0.321937 0.906131 -0.159192
v 0.339029 0.903463 -0.114393
v -0.268732 0.908021 0.235615
v -0.339247 0.908021 0.117883
v 0.028047 0.933630 0.356473
v -0.072197 0.933630 0.350210
v -0.028047 0.933631 -0.356473
v 0.072197 0.933631 -0.350210
v -0.157610 0.906130 0.322355
v 0.116262 0.906131 0.339465
v -0.072197 0.906131 0.350210
v 0.028047 0.906131 0.356473
v 0.072197 0.906131 -0.350210
v -0.028047 0.906131 -0.356473
v -0.157610 0.933630 0.322355
v -0.157523 0.906130 0.320967
v 0.116349 0.906131 0.338077
v 0.116349 0.933631 0.338077
v 0.322155 0.933631 0.155701
v 0.322155 0.906131 0.155701
v 0.237317 0.907825 0.267231
v 0.237317 0.935325 0.267231
v -0.339029 0.933631 0.114392
v -0.339029 0.906131 0.114392
v -0.357712 0.908844 -0.024245
v -0.357712 0.936344 -0.024245
v -0.268732 0.935521 0.235615
v -0.268899 0.906131 0.238286
v 0.157610 0.906131 -0.322355
v 0.157523 0.933631 -0.320967
v 0.268732 0.906131 -0.235615
v 0.268732 0.933631 -0.235615
v 0.339248 0.933631 -0.117883
v 0.339248 0.906131 -0.117883
v 0.357712 0.906131 0.024245
v 0.357712 0.933631 0.024245
v -0.322155 0.936344 -0.155701
v -0.322155 0.908844 -0.155701
v -0.237316 0.906131 -0.267231
v -0.237316 0.933631 -0.267231
v -0.116262 0.906131 -0.339466
v -0.116349 0.931094 -0.338077
v -0.253716 0.933631 -0.013955
v -0.041296 0.933631 -0.000684
v -0.253716 0.906131 -0.013955
v -0.041296 0.906131 -0.000684
v -0.262036 0.933631 0.119203
v -0.049615 0.933631 0.132474
v -0.262036 0.906131 0.119203
v -0.049615 0.906131 0.132474
v 0.249931 0.933631 -0.119959
v 0.039187 0.933631 -0.133126
v 0.249931 0.906131 -0.119959
v 0.039187 0.906131 -0.133126
v 0.030868 0.906131 0.000032
v 0.241612 0.906131 0.013198
v 0.030868 0.933631 0.000032
v 0.241612 0.933631 0.013198
v 0.014523 0.933631 0.139985
v 0.171258 0.933631 0.149777
v 0.014523 0.906131 0.139985
v 0.171258 0.906131 0.149777
v 0.007471 0.906131 0.252871
v 0.164205 0.906131 0.262663
v 0.007471 0.933631 0.252871
v 0.164205 0.933631 0.262663
v -0.101583 0.906130 0.324462
v 0.086649 0.906131 0.336222
v -0.101583 0.933630 0.324462
v 0.086649 0.933631 0.336222
v -0.096871 0.933631 0.249034
v 0.091362 0.933631 0.260794
v -0.096871 0.906131 0.249034
v 0.091362 0.906131 0.260794
v -0.130196 0.910143 -0.260538
v 0.198579 0.906131 -0.239998
v -0.130196 0.937643 -0.260538
v 0.198579 0.933631 -0.239998
v 0.191526 0.933631 -0.127112
v -0.137249 0.937643 -0.147653
v 0.191526 0.906131 -0.127112
v -0.137249 0.910143 -0.147653
v -0.076903 0.906131 -0.335613
v 0.118077 0.908375 -0.323431
v -0.076903 0.933631 -0.335613
v 0.118077 0.935875 -0.323431
v -0.081615 0.906131 -0.260185
v 0.113365 0.908375 -0.248004
v -0.081615 0.933631 -0.260185
v 0.113365 0.935875 -0.248004
v 0.352120 0.050223 0.023865
v 0.233442 0.047555 0.265682
v 0.114444 0.047555 0.334158
v 0.155146 0.047556 -0.317317
v 0.264696 0.047556 -0.234562
v -0.114530 0.047556 -0.332793
v -0.155146 0.047555 0.317315
v -0.352120 0.047556 -0.023867
v 0.333944 0.045861 -0.116041
v -0.264695 0.050092 0.234561
v -0.333944 0.047556 0.116040
v 0.317119 0.050223 0.153266
v -0.233442 0.047556 -0.265684
v -0.316904 0.045665 -0.156704
v 0.352120 0.077723 0.023865
v 0.233442 0.075055 0.265682
v 0.114530 0.075055 0.332791
v 0.264696 0.075056 -0.234562
v -0.155060 0.077592 0.315949
v -0.352120 0.075056 -0.023867
v 0.333944 0.073361 -0.116041
v -0.264695 0.077592 0.234561
v -0.333944 0.075055 0.116040
v 0.317119 0.077723 0.153266
v -0.233606 0.073165 -0.263054
v -0.316904 0.073165 -0.156704
v 0.071069 0.047556 -0.344736
v -0.027608 0.047556 -0.350901
v -0.071069 0.047555 0.344734
v 0.027608 0.047555 0.350899
v -0.114444 0.075056 -0.334160
v 0.155146 0.075056 -0.317317
v -0.027608 0.075056 -0.350901
v 0.071069 0.075056 -0.344736
v 0.027608 0.075055 0.350899
v -0.071069 0.075055 0.344734
v -0.114444 0.047556 -0.334160
v -0.114530 0.075056 -0.332793
v 0.155061 0.075056 -0.315950
v 0.155061 0.047556 -0.315950
v 0.333730 0.047556 -0.112605
v 0.333730 0.075056 -0.112605
v 0.264531 0.073361 -0.231932
v 0.264531 0.045861 -0.231932
v -0.317119 0.047556 -0.153267
v -0.317119 0.075056 -0.153267
v -0.352353 0.072342 -0.020147
v -0.352353 0.044842 -0.020147
v -0.233606 0.045665 -0.263054
v -0.233442 0.075056 -0.265684
v 0.114444 0.075055 0.334158
v 0.114530 0.047555 0.332791
v 0.233607 0.075055 0.263052
v 0.233607 0.047555 0.263052
v 0.316904 0.047555 0.156702
v 0.316904 0.075055 0.156702
v 0.352353 0.075056 0.020146
v 0.352353 0.047556 0.020146
v -0.333729 0.044842 0.112603
v -0.333729 0.072342 0.112603
v -0.264531 0.075055 0.231931
v -0.264531 0.047555 0.231931
v -0.155146 0.075055 0.317315
v -0.155060 0.050092 0.315949
v -0.169299 0.044012 -0.012445
v 0.239237 0.043543 0.013079
v -0.169299 0.071512 -0.012445
v 0.239237 0.071043 0.013079
v -0.161110 0.044012 -0.143521
v 0.247426 0.043543 -0.117997
v -0.161110 0.071512 -0.143521
v 0.247426 0.071043 -0.117997
v 0.121422 0.047555 0.141040
v -0.238058 0.047556 0.118581
v 0.121422 0.075055 0.141040
v -0.238058 0.075055 0.118581
v -0.229869 0.075056 -0.012495
v 0.129612 0.075056 0.009964
v -0.229869 0.047556 -0.012495
v 0.129612 0.047556 0.009964
v -0.042909 0.047556 -0.139585
v 0.152143 0.047556 -0.127399
v -0.042909 0.075056 -0.139585
v 0.152143 0.075056 -0.127399
v -0.035966 0.075056 -0.250706
v 0.159086 0.075056 -0.238520
v -0.035966 0.047556 -0.250706
v 0.159086 0.047556 -0.238520
v -0.075701 0.075056 -0.330367
v 0.116231 0.075056 -0.318376
v -0.075700 0.047556 -0.330367
v 0.116231 0.047556 -0.318376
v -0.080339 0.047556 -0.256119
v 0.111593 0.047556 -0.244127
v -0.080339 0.075056 -0.256119
v 0.111593 0.075056 -0.244127
v -0.188587 0.071043 0.236675
v 0.177115 0.075055 0.259523
v -0.188587 0.043543 0.236675
v 0.177115 0.047555 0.259523
v 0.184057 0.047555 0.148402
v -0.181645 0.043543 0.125555
v 0.184057 0.075055 0.148402
v -0.181645 0.071043 0.125555
v -0.048251 0.072310 0.322622
v 0.062070 0.072740 0.329514
v -0.048251 0.044810 0.322622
v 0.062070 0.045240 0.329514
v -0.043612 0.072310 0.248373
v 0.066709 0.072740 0.255266
v -0.043612 0.044810 0.248373
v 0.066709 0.045240 0.255265
vn -0.4305 -0.2013 0.8798
vn -0.7345 -0.2013 0.6481
vn -0.9266 -0.2013 0.3177
vn -0.9776 -0.2013 -0.0611
vn -0.1597 0.9704 -0.1810
vn -0.0783 0.9704 -0.2283
vn 0.2168 -0.9704 0.1061
vn 0.2409 -0.9704 0.0150
vn 0.3177 0.2013 0.9266
vn -0.0611 0.2013 0.9776
vn -0.0150 -0.9704 0.2409
vn 0.0783 -0.9704 0.2283
vn -0.0611 -0.2013 0.9776
vn 0.4305 0.2013 -0.8798
vn 0.7345 0.2013 -0.6481
vn 0.9266 0.2013 -0.3177
vn 0.9776 0.2013 0.0611
vn -0.2409 0.9704 -0.0150
vn -0.2168 0.9704 -0.1061
vn -0.3177 -0.2013 -0.9266
vn 0.0611 -0.2013 -0.9776
vn -0.8798 -0.2013 -0.4305
vn -0.6481 -0.2013 -0.7345
vn 0.0611 0.2013 -0.9776
vn 0.6481 0.2013 0.7345
vn 0.0150 0.9704 -0.2409
vn 0.2283 -0.9704 -0.0783
vn 0.1810 -0.9704 -0.1597
vn -0.1061 0.9704 0.2168
vn -0.1810 0.9704 0.1597
vn 0.1061 -0.9704 -0.2168
vn 0.0150 -0.9704 -0.2409
vn 0.1597 -0.9704 0.1810
vn 0.8798 0.2013 0.4305
vn -0.0150 0.9704 0.2409
vn -0.2283 0.9704 0.0783
vn 0.4305 -0.2013 -0.8798
vn 0.7345 -0.2013 -0.6481
vn 0.9266 -0.2013 -0.3177
vn 0.9776 -0.2013 0.0611
vn 0.1597 0.9704 0.1810
vn 0.0783 0.9704 0.2283
vn -0.2168 -0.9704 -0.1061
vn -0.2409 -0.9704 -0.0150
vn -0.3177 0.2013 -0.9266
vn -0.0783 -0.9704 -0.2283
vn -0.4305 0.2013 0.8798
vn -0.7345 0.2013 0.6481
vn -0.9266 0.2013 0.3177
vn -0.9776 0.2013 -0.0611
vn 0.2409 0.9704 0.0150
vn 0.2168 0.9704 0.1061
vn 0.3177 -0.2013 0.9266
vn 0.8798 -0.2013 0.4305
vn 0.6481 -0.2013 0.7345
vn -0.6481 0.2013 -0.7345
vn -0.2283 -0.9704 0.0783
vn -0.1810 -0.9704 0.1597
vn 0.1061 0.9704 -0.2168
vn 0.1810 0.9704 -0.1597
vn -0.1061 -0.9704 0.2168
vn -0.1597 -0.9704 -0.1810
vn -0.8798 0.2013 -0.4305
vn 0.2283 0.9704 -0.0783
vn -0.1336 -0.0000 -0.9910
vn -0.1321 0.1465 -0.9803
vn -0.1301 0.2261 -0.9654
vn -0.5026 -0.0000 -0.8645
vn -0.4972 0.1465 -0.8552
vn -0.4896 0.2261 -0.8421
vn -0.7952 -0.0000 -0.6063
vn -0.7866 0.1465 -0.5998
vn -0.7746 0.2261 -0.5906
vn -0.9667 -0.0000 -0.2559
vn -0.9563 0.1465 -0.2531
vn -0.9417 0.2261 -0.2492
vn 0.9910 -0.0000 -0.1336
vn 0.9803 0.1465 -0.1321
vn 0.9654 0.2261 -0.1301
vn 0.8645 -0.0000 -0.5026
vn 0.8552 0.1465 -0.4972
vn 0.8421 0.2261 -0.4896
vn 0.6063 -0.0000 -0.7952
vn 0.5998 0.1465 -0.7866
vn 0.5906 0.2261 -0.7746
vn 0.2559 -0.0000 -0.9667
vn 0.2531 0.1465 -0.9563
vn 0.2492 0.2261 -0.9417
vn 0.1336 -0.0000 0.9910
vn 0.1321 0.1465 0.9803
vn 0.1301 0.2261 0.9654
vn 0.5026 -0.0000 0.8645
vn 0.4972 0.1465 0.8552
vn 0.4896 0.2261 0.8421
vn 0.7952 -0.0000 0.6063
vn 0.7866 0.1465 0.5998
vn 0.7746 0.2261 0.5906
vn 0.9667 -0.0000 0.2559
vn 0.9563 0.1465 0.2531
vn 0.9417 0.2261 0.2492
vn -0.2492 0.2261 0.9417
vn -0.2531 0.1465 0.9563
vn -0.2559 -0.0000 0.9667
vn -0.5906 0.2261 0.7746
vn -0.5998 0.1465 0.7866
vn -0.6063 -0.0000 0.7952
vn -0.8421 0.2261 0.4896
vn -0.8552 0.1465 0.4972
vn -0.8645 -0.0000 0.5026
vn -0.9654 0.2261 0.1301
vn -0.9803 0.1465 0.1321
vn -0.9910 -0.0000 0.1336
vn -0.9563 -0.1465 -0.2531
vn -0.9417 -0.2261 -0.2492
vn -0.7866 -0.1465 -0.5998
vn -0.7746 -0.2261 -0.5906
vn -0.4972 -0.1465 -0.8552
vn -0.4896 -0.2261 -0.8421
vn -0.1321 -0.1465 -0.9803
vn -0.1301 -0.2261 -0.9654
vn -0.2531 -0.1465 0.9563
vn -0.2492 -0.2261 0.9417
vn -0.5998 -0.1465 0.7866
vn -0.5906 -0.2261 0.7746
vn -0.8552 -0.1465 0.4972
vn -0.8421 -0.2261 0.4896
vn -0.9803 -0.1465 0.1321
vn -0.9654 -0.2261 0.1301
vn 0.9563 -0.1465 0.2531
vn 0.9417 -0.2261 0.2492
vn 0.7866 -0.1465 0.5998
vn 0.7746 -0.2261 0.5906
vn 0.4972 -0.1465 0.8552
vn 0.4896 -0.2261 0.8421
vn 0.1321 -0.1465 0.9803
vn 0.1301 -0.2261 0.9654
vn 0.9654 -0.2261 -0.1301
vn 0.9803 -0.1465 -0.1321
vn 0.8421 -0.2261 -0.4896
vn 0.8552 -0.1465 -0.4972
vn 0.5906 -0.2261 -0.7746
vn 0.5998 -0.1465 -0.7866
vn 0.2492 -0.2261 -0.9417
vn 0.2531 -0.1465 -0.9563
vn 0.1321 -0.1464 0.9804
vn 0.1301 -0.2257 0.9655
vn 0.4972 -0.1464 0.8552
vn 0.4897 -0.2258 0.8422
vn 0.7866 -0.1463 0.5998
vn 0.7747 -0.2256 0.5907
vn 0.9563 -0.1464 0.2531
vn 0.9418 -0.2257 0.2493
vn -0.9804 -0.1464 0.1321
vn -0.9655 -0.2257 0.1301
vn -0.8552 -0.1464 0.4972
vn -0.8422 -0.2257 0.4897
vn -0.5998 -0.1463 0.7867
vn -0.5907 -0.2256 0.7747
vn -0.2531 -0.1463 0.9563
vn -0.2493 -0.2257 0.9418
vn -0.1321 -0.1464 -0.9804
vn -0.1301 -0.2258 -0.9655
vn -0.4972 -0.1464 -0.8552
vn -0.4897 -0.2258 -0.8422
vn -0.7867 -0.1463 -0.5998
vn -0.7747 -0.2256 -0.5907
vn -0.9563 -0.1464 -0.2531
vn -0.9418 -0.2258 -0.2493
vn 0.2493 -0.2257 -0.9418
vn 0.2531 -0.1464 -0.9563
vn 0.5907 -0.2258 -0.7747
vn 0.5998 -0.1464 -0.7866
vn 0.8422 -0.2256 -0.4897
vn 0.8552 -0.1463 -0.4972
vn 0.9655 -0.2257 -0.1301
vn 0.9804 -0.1464 -0.1321
vn 0.9563 0.1464 0.2531
vn 0.9418 0.2257 0.2493
vn 0.7866 0.1464 0.5998
vn 0.7747 0.2258 0.5907
vn 0.4972 0.1463 0.8552
vn 0.4897 0.2256 0.8422
vn 0.1321 0.1464 0.9804
vn 0.1301 0.2257 0.9655
vn 0.2531 0.1464 -0.9563
vn 0.2493 0.2257 -0.9418
vn 0.5998 0.1464 -0.7866
vn 0.5907 0.2257 -0.7747
vn 0.8552 0.1463 -0.4972
vn 0.8422 0.2256 -0.4897
vn 0.9804 0.1463 -0.1321
vn 0.9655 0.2257 -0.1301
vn -0.9563 0.1464 -0.2531
vn -0.9418 0.2258 -0.2493
vn -0.7866 0.1464 -0.5998
vn -0.7747 0.2258 -0.5907
vn -0.4972 0.1463 -0.8552
vn -0.4897 0.2256 -0.8422
vn -0.1321 0.1464 -0.9804
vn -0.1301 0.2258 -0.9655
vn -0.9655 0.2257 0.1301
vn -0.9804 0.1464 0.1321
vn -0.8422 0.2258 0.4897
vn -0.8552 0.1464 0.4972
vn -0.5907 0.2256 0.7747
vn -0.5998 0.1463 0.7867
vn -0.2493 0.2257 0.9418
vn -0.2531 0.1464 0.9563
vn -0.2459 -0.0436 0.9683
vn -0.2504 -0.0283 0.9677
vn -0.2503 -0.0289 0.9677
vn 0.9677 0.0283 0.2506
vn 0.9682 0.0436 0.2463
vn 0.9677 0.0289 0.2504
vn 0.7886 0.0437 0.6134
vn 0.7916 0.0284 0.6103
vn 0.7915 0.0289 0.6104
vn -0.7945 -0.0000 -0.6073
vn -0.7913 -0.0282 -0.6107
vn -0.7912 -0.0287 -0.6108
vn 0.4977 0.0283 0.8669
vn 0.5016 -0.0000 0.8651
vn 0.4975 0.0288 0.8670
vn 0.5108 -0.0436 0.8586
vn 0.5072 -0.0283 0.8614
vn 0.5073 -0.0289 0.8613
vn -0.1533 0.9675 0.2011
vn -0.7880 -0.0434 -0.6142
vn 0.9649 0.0283 0.2610
vn 0.9664 -0.0000 0.2570
vn 0.9649 0.0289 0.2612
vn 0.2338 -0.9627 -0.1359
vn 0.1280 0.0283 0.9914
vn 0.1324 -0.0000 0.9912
vn 0.1279 0.0288 0.9914
vn -0.8005 -0.0436 -0.5978
vn -0.7982 -0.0283 -0.6017
vn -0.7983 -0.0289 -0.6016
vn -0.7981 0.0284 -0.6018
vn -0.8002 0.0437 -0.5981
vn -0.7982 0.0289 -0.6017
vn -0.4979 0.0284 -0.8668
vn -0.5016 -0.0000 -0.8651
vn -0.4977 0.0289 -0.8668
vn -0.7959 -0.0000 -0.6054
vn 0.9913 0.0437 -0.1240
vn 0.9913 0.0284 -0.1283
vn 0.9913 0.0289 -0.1281
vn -0.2442 0.9676 -0.0646
vn -0.1347 -0.0000 -0.9909
vn -0.1390 0.0283 -0.9899
vn -0.1391 0.0288 -0.9899
vn -0.6015 -0.0282 0.7984
vn -0.6054 -0.0000 0.7959
vn -0.6013 -0.0288 0.7985
vn 0.1640 0.9627 -0.2150
vn -0.5072 0.0283 -0.8614
vn -0.5108 0.0435 -0.8586
vn -0.5073 0.0288 -0.8613
vn 0.9912 -0.0000 -0.1324
vn 0.9914 -0.0283 -0.1280
vn 0.9914 -0.0289 -0.1279
vn 0.1359 0.9627 0.2338
vn -0.4940 0.0437 -0.8684
vn -0.2547 -0.0000 0.9670
vn -0.2507 0.0284 0.9677
vn -0.2505 0.0289 0.9677
vn 0.7982 0.0283 0.6017
vn 0.8005 0.0435 0.5978
vn 0.7983 0.0288 0.6016
vn -0.0361 -0.9627 -0.2680
vn 0.1927 0.9702 0.1469
vn 0.1391 -0.0283 0.9899
vn 0.1347 -0.0000 0.9909
vn 0.1392 -0.0288 0.9898
vn -0.8614 -0.0283 0.5071
vn -0.8639 -0.0000 0.5037
vn -0.8613 -0.0289 0.5073
vn -0.8614 0.0283 0.5072
vn -0.8613 0.0288 0.5073
vn -0.2575 -0.9546 0.1497
vn 0.8686 0.0435 -0.4935
vn 0.8669 0.0283 -0.4977
vn 0.8670 0.0288 -0.4975
vn -0.1282 0.0283 -0.9913
vn -0.1324 -0.0000 -0.9912
vn -0.1280 0.0289 -0.9914
vn 0.8651 -0.0000 -0.5016
vn 0.2350 -0.9553 0.1792
vn 0.2377 0.9693 0.0629
vn 0.4974 -0.0282 0.8671
vn 0.4930 -0.0434 0.8690
vn 0.4972 -0.0287 0.8671
vn -0.2465 0.0437 0.9682
vn 0.1323 -0.9647 0.2276
vn -0.2680 0.9627 0.0361
vn 0.9649 -0.0283 0.2612
vn 0.9631 -0.0435 0.2656
vn 0.9648 -0.0288 0.2614
vn -0.9899 -0.0283 0.1390
vn -0.9909 -0.0000 0.1347
vn -0.9899 -0.0289 0.1391
vn -0.5973 -0.0434 0.8008
vn -0.8686 0.0435 0.4935
vn -0.8669 0.0283 0.4977
vn -0.8670 0.0288 0.4975
vn 0.0361 -0.9627 0.2680
vn -0.2649 0.0437 0.9633
vn -0.2609 0.0284 0.9649
vn -0.2611 0.0289 0.9649
vn -0.9670 -0.0000 -0.2547
vn -0.9677 0.0283 -0.2505
vn -0.9677 0.0289 -0.2503
vn 0.9914 -0.0436 -0.1235
vn -0.1359 0.9627 -0.2338
vn 0.0732 -0.9582 -0.2767
vn -0.2338 0.9627 0.1359
vn 0.1388 0.0283 0.9899
vn 0.1431 0.0436 0.9888
vn 0.1390 0.0289 0.9899
vn 0.5973 -0.0434 -0.8008
vn 0.6015 -0.0282 -0.7984
vn 0.6013 -0.0288 -0.7985
vn 0.2134 0.9690 -0.1241
vn 0.7945 -0.0000 0.6073
vn 0.7915 -0.0283 0.6105
vn 0.7914 -0.0289 0.6106
vn 0.9887 -0.0436 -0.1433
vn 0.9899 -0.0283 -0.1390
vn 0.9899 -0.0289 -0.1391
vn 0.6132 0.0438 -0.7887
vn 0.6102 0.0284 -0.7917
vn 0.6103 0.0289 -0.7916
vn -0.2361 -0.9549 -0.1800
vn 0.2647 0.0437 -0.9633
vn 0.2608 0.0284 -0.9650
vn 0.2610 0.0289 -0.9649
vn 0.1807 -0.9546 -0.2370
vn -0.1936 0.9699 -0.1476
vn -0.1640 -0.9627 0.2150
vn -0.0337 0.9677 -0.2500
vn 0.5037 -0.0000 0.8639
vn 0.5070 0.0284 0.8615
vn 0.5071 0.0289 0.8614
vn -0.8587 -0.0436 0.5106
vn 0.0653 0.9669 -0.2467
vn -0.9887 -0.0436 0.1433
vn 0.0331 0.9688 0.2455
vn 0.7959 -0.0000 0.6054
vn -0.1359 -0.9627 -0.2338
vn 0.4935 0.0435 0.8686
vn -0.1433 -0.0436 -0.9887
vn -0.1390 -0.0283 -0.9899
vn -0.1391 -0.0288 -0.9899
vn -0.2614 -0.9627 -0.0692
vn 0.2562 0.9660 -0.0345
vn -0.2680 -0.9627 0.0361
vn 0.2506 0.0284 -0.9677
vn 0.2463 0.0437 -0.9682
vn 0.2505 0.0289 -0.9677
vn 0.2611 -0.0283 -0.9649
vn 0.2653 -0.0436 -0.9632
vn 0.2613 -0.0289 -0.9648
vn 0.7984 -0.0282 0.6015
vn 0.7985 -0.0287 0.6013
vn 0.2614 -0.9627 0.0692
vn 0.5103 0.0437 0.8589
vn 0.2570 -0.0000 -0.9664
vn -0.9633 0.0436 -0.2649
vn -0.9649 0.0283 -0.2609
vn -0.9649 0.0289 -0.2611
vn 0.8009 -0.0434 0.5973
vn 0.6054 -0.0000 -0.7959
vn 0.6019 0.0284 -0.7980
vn 0.6018 0.0289 -0.7981
vn -0.9684 -0.0435 -0.2457
vn -0.9678 -0.0283 -0.2503
vn -0.9678 -0.0288 -0.2501
vn -0.0727 -0.9587 0.2748
vn -0.6073 -0.0000 0.7945
vn -0.6107 -0.0282 0.7914
vn -0.6108 -0.0288 0.7912
vn -0.9899 0.0284 0.1387
vn -0.9888 0.0437 0.1428
vn -0.9899 0.0289 0.1389
vn -0.9914 -0.0283 0.1280
vn -0.9914 -0.0436 0.1235
vn -0.9914 -0.0289 0.1279
vn -0.2611 -0.0283 0.9649
vn -0.2653 -0.0436 0.9632
vn -0.2613 -0.0289 0.9648
vn 0.7884 -0.0436 0.6137
vn -0.2570 -0.0000 0.9664
vn -0.1238 0.0436 -0.9913
vn 0.9909 -0.0000 -0.1347
vn 0.8639 -0.0000 -0.5037
vn 0.8614 0.0283 -0.5072
vn 0.8613 0.0288 -0.5073
vn -0.8669 -0.0283 0.4977
vn -0.8687 -0.0436 0.4935
vn -0.8670 -0.0289 0.4975
vn -0.9664 -0.0000 -0.2570
vn -0.6102 0.0284 0.7917
vn -0.6103 0.0289 0.7916
vn -0.8651 -0.0000 0.5016
vn 0.9899 0.0284 -0.1388
vn 0.9888 0.0437 -0.1429
vn 0.9899 0.0289 -0.1389
vn 0.6107 -0.0282 -0.7914
vn 0.6141 -0.0434 -0.7880
vn 0.6108 -0.0288 -0.7912
vn -0.6132 0.0437 0.7887
vn 0.6073 -0.0000 -0.7945
vn 0.5983 0.0437 -0.8001
vn 0.8614 -0.0283 -0.5072
vn 0.8613 -0.0289 -0.5073
vn 0.8669 -0.0283 -0.4977
vn 0.8686 -0.0436 -0.4936
vn 0.8669 -0.0289 -0.4976
vn -0.9912 -0.0000 0.1324
vn -0.8586 0.0435 0.5108
vn 0.8586 -0.0436 -0.5108
vn -0.9649 -0.0282 -0.2613
vn -0.9631 -0.0435 -0.2656
vn -0.9648 -0.0288 -0.2614
vn 0.9678 -0.0282 0.2503
vn 0.9670 -0.0000 0.2547
vn 0.9678 -0.0288 0.2501
vn -0.6019 0.0284 0.7980
vn -0.5983 0.0438 0.8001
vn -0.6018 0.0289 0.7981
vn -0.9913 0.0284 0.1282
vn -0.9913 0.0289 0.1281
vn 0.9684 -0.0434 0.2456
vn -0.7915 0.0283 -0.6105
vn -0.7914 0.0288 -0.6106
vn -0.1433 0.0435 -0.9887
vn 0.2504 -0.0283 -0.9677
vn 0.2547 -0.0000 -0.9670
vn 0.2503 -0.0289 -0.9677
vn -0.9913 0.0437 0.1239
vn -0.5113 -0.0434 -0.8583
vn -0.5075 -0.0282 -0.8612
vn -0.5076 -0.0287 -0.8611
vn -0.5037 -0.0000 -0.8639
vn 0.1235 0.0435 0.9914
vn 0.2459 -0.0436 -0.9683
vn -0.6141 -0.0434 0.7880
vn 0.1280 -0.0283 0.9914
vn 0.1279 -0.0288 0.9914
vn -0.7884 0.0435 -0.6137
vn -0.1279 -0.0283 -0.9914
vn -0.1278 -0.0288 -0.9914
vn 0.9632 0.0436 0.2651
vn 0.1235 -0.0436 0.9914
vn -0.9683 0.0436 -0.2461
vn -0.4977 -0.0283 -0.8669
vn -0.4975 -0.0289 -0.8670
vn 0.1435 -0.0435 0.9887
vn -0.0675 0.9646 0.2551
vn 0.8586 0.0435 -0.5108
vn -0.1233 -0.0435 -0.9914
vn -0.4935 -0.0436 -0.8687
vn 0.2775 -0.9600 -0.0374
vn -0.0000 1.0000 -0.0000
vn -0.0000 -1.0000 -0.0000
vn 0.7873 -0.0000 0.6166
vn -0.9903 -0.0000 0.1389
vn 0.4915 -0.0000 0.8709
vn -0.8579 -0.0000 0.5138
vn -0.0624 -0.0000 0.9981
vn -0.5961 -0.0000 0.8029
vn 0.5961 -0.0000 -0.8029
vn 0.9903 -0.0000 -0.1389
vn 0.8579 -0.0000 -0.5138
vn -0.7873 -0.0000 -0.6166
vn -0.9653 -0.0000 -0.2611
vn -0.4915 -0.0000 -0.8709
vn 0.9653 -0.0000 0.2611
vn 0.0624 -0.0000 -0.9981
vn 0.0074 -1.0000 0.0031
vn 0.0148 -0.9999 0.0061
vn -0.0130 -0.9999 0.0005
vn -0.0260 -0.9997 0.0010
vn -0.0073 1.0000 -0.0052
vn -0.0268 0.9996 -0.0111
vn -0.0061 -1.0000 -0.0004
vn -0.0063 -0.9999 0.0085
vn -0.0240 -0.9996 0.0162
vn -0.0181 0.9998 -0.0111
vn -0.0247 0.9995 -0.0216
vn -0.1893 -0.0000 -0.9819
vn -0.0640 -0.0000 -0.9980
vn 0.1877 -0.0000 -0.9822
vn 0.3100 -0.0000 -0.9507
vn -0.3100 -0.0000 0.9507
vn -0.1877 -0.0000 0.9822
vn 0.0640 -0.0000 0.9980
vn 0.1893 -0.0000 0.9819
vn -0.0061 -1.0000 0.0017
vn -0.0031 -1.0000 0.0008
vn -0.0072 -1.0000 -0.0012
vn -0.0036 -1.0000 -0.0006
vn 0.0036 1.0000 0.0006
vn 0.0072 1.0000 0.0012
vn 0.0260 0.9997 -0.0010
vn 0.0130 0.9999 -0.0005
vn 0.0031 1.0000 -0.0008
vn 0.0061 1.0000 -0.0017
vn -0.0148 0.9999 -0.0061
vn -0.0074 1.0000 -0.0031
vn 0.0073 -1.0000 0.0052
vn 0.0268 -0.9996 0.0111
vn 0.0061 1.0000 0.0004
vn 0.0063 0.9999 -0.0085
vn 0.0240 0.9996 -0.0162
vn 0.0181 -0.9998 0.0111
vn 0.0247 -0.9995 0.0216
vn 0.0060 1.0000 -0.0017
vn 0.0120 0.9999 -0.0033
vn -0.0109 -0.9999 -0.0018
vn -0.0207 -0.9998 -0.0034
vn -0.0196 0.9998 0.0008
vn -0.0403 0.9992 0.0016
vn 0.0125 -0.9999 -0.0005
vn 0.0249 -0.9997 -0.0010
vn -0.0063 1.0000 -0.0010
vn -0.0126 0.9999 -0.0021
vn -0.0124 -0.9999 0.0053
vn -0.0358 -0.9993 0.0098
vn -0.0055 1.0000 -0.0003
vn -0.0120 0.9999 -0.0089
vn -0.0200 0.9996 -0.0175
vn 0.0336 0.9992 -0.0227
vn 0.0149 0.9998 -0.0115
vn -0.0078 1.0000 -0.0032
vn -0.0039 1.0000 -0.0016
vn -0.0149 -0.9998 0.0115
vn -0.0336 -0.9992 0.0227
vn 0.0109 0.9999 0.0018
vn 0.0207 0.9998 0.0034
vn 0.0196 -0.9998 -0.0008
vn 0.0403 -0.9992 -0.0016
vn -0.0125 0.9999 0.0005
vn -0.0249 0.9997 0.0010
vn 0.0063 -1.0000 0.0010
vn 0.0126 -0.9999 0.0021
vn 0.0039 -1.0000 0.0016
vn 0.0078 -1.0000 0.0032
vn -0.0120 -0.9999 0.0033
vn -0.0060 -1.0000 0.0017
vn 0.0124 0.9999 -0.0053
vn 0.0358 0.9993 -0.0098
vn 0.0055 -1.0000 0.0003
vn 0.0200 -0.9996 0.0175
vn 0.0120 -0.9999 0.0089
vt 0.066838 0.060660
vt 0.083749 0.060822
vt 0.082769 0.117816
vt 0.066036 0.117469
vt 0.080815 0.171667
vt 0.065889 0.171421
vt 0.080093 0.222563
vt 0.065089 0.222344
vt 0.064996 0.318093
vt 0.065740 0.366601
vt 0.062499 0.366615
vt 0.061991 0.318084
vt 0.044582 0.270881
vt 0.043236 0.222509
vt 0.046429 0.222479
vt 0.047656 0.270882
vt 0.062556 0.415085
vt 0.047785 0.415354
vt 0.047676 0.366692
vt 0.044745 0.415408
vt 0.044421 0.366722
vt 0.067827 0.002573
vt 0.085309 0.002286
vt 0.063084 0.060620
vt 0.062563 0.117471
vt 0.045307 0.117551
vt 0.045904 0.060805
vt 0.062592 0.171417
vt 0.046547 0.171349
vt 0.061971 0.222346
vt 0.065163 0.270859
vt 0.062340 0.270858
vt 0.079549 0.366557
vt 0.079792 0.415035
vt 0.065522 0.415049
vt 0.078845 0.270885
vt 0.079479 0.318028
vt 0.064372 0.001819
vt 0.045465 0.000680
vt 0.046995 0.318088
vt 0.043175 0.171374
vt 0.041759 0.117565
vt 0.042153 0.060796
vt 0.041759 0.001423
vt 0.044050 0.318077
vt 0.066142 0.461176
vt 0.079149 0.461075
vt 0.080130 0.505877
vt 0.066528 0.506054
vt 0.080358 0.550930
vt 0.067677 0.551108
vt 0.080980 0.594851
vt 0.067821 0.595014
vt 0.069659 0.679484
vt 0.070798 0.719752
vt 0.068167 0.719794
vt 0.067254 0.679538
vt 0.050557 0.638233
vt 0.048871 0.595436
vt 0.051658 0.595382
vt 0.053268 0.638150
vt 0.069208 0.760989
vt 0.055800 0.761627
vt 0.056117 0.719985
vt 0.053047 0.761063
vt 0.053611 0.720008
vt 0.063459 0.461206
vt 0.063705 0.506079
vt 0.049678 0.506353
vt 0.049490 0.461383
vt 0.064705 0.551148
vt 0.051117 0.551379
vt 0.065265 0.595057
vt 0.069173 0.637923
vt 0.066352 0.637982
vt 0.082727 0.719582
vt 0.084134 0.760493
vt 0.071912 0.760387
vt 0.081210 0.637703
vt 0.082085 0.679217
vt 0.054653 0.679708
vt 0.048255 0.551425
vt 0.046787 0.506383
vt 0.046564 0.461430
vt 0.052025 0.679787
vt 0.017779 0.360943
vt 0.003043 0.361232
vt 0.002303 0.309842
vt 0.017865 0.309768
vt 0.002555 0.258394
vt 0.017272 0.258341
vt 0.001757 0.206709
vt 0.017196 0.206657
vt 0.016756 0.105519
vt 0.016690 0.053764
vt 0.019861 0.053743
vt 0.020165 0.105507
vt 0.038524 0.155996
vt 0.039864 0.206506
vt 0.036581 0.206509
vt 0.035409 0.156011
vt 0.019288 0.001495
vt 0.036337 0.000680
vt 0.035204 0.053774
vt 0.039599 0.001379
vt 0.038569 0.053771
vt 0.017723 0.409748
vt 0.003935 0.409981
vt 0.020920 0.360971
vt 0.021087 0.309781
vt 0.037101 0.309727
vt 0.036356 0.360912
vt 0.020517 0.258349
vt 0.036238 0.258249
vt 0.020604 0.206647
vt 0.016911 0.156093
vt 0.019895 0.156080
vt 0.001433 0.053742
vt 0.000680 0.001700
vt 0.016214 0.002143
vt 0.002440 0.156163
vt 0.001279 0.105630
vt 0.020678 0.409784
vt 0.035219 0.409819
vt 0.036112 0.105502
vt 0.039557 0.258261
vt 0.040400 0.309750
vt 0.039703 0.360987
vt 0.038244 0.409897
vt 0.039394 0.105472
vt 0.015113 0.718868
vt 0.002200 0.718702
vt 0.002597 0.674945
vt 0.015854 0.675167
vt 0.003669 0.631163
vt 0.016204 0.631337
vt 0.003741 0.587172
vt 0.017081 0.587323
vt 0.017682 0.499028
vt 0.017475 0.455125
vt 0.020283 0.455155
vt 0.020440 0.499060
vt 0.036506 0.543442
vt 0.036450 0.587646
vt 0.033617 0.587580
vt 0.033666 0.543410
vt 0.033932 0.455209
vt 0.036687 0.455258
vt 0.013846 0.762661
vt 0.000680 0.762773
vt 0.017783 0.718921
vt 0.018600 0.675231
vt 0.032212 0.675455
vt 0.030797 0.719086
vt 0.018967 0.631400
vt 0.032368 0.631600
vt 0.019850 0.587383
vt 0.017233 0.543093
vt 0.020009 0.543139
vt 0.004764 0.455111
vt 0.004637 0.543013
vt 0.004367 0.499013
vt 0.016762 0.763326
vt 0.031226 0.764197
vt 0.033974 0.499285
vt 0.035193 0.631669
vt 0.035020 0.675527
vt 0.033630 0.719125
vt 0.034208 0.763590
vt 0.036808 0.499318
vt 0.385742 0.145229
vt 0.386823 0.073533
vt 0.433147 0.073533
vt 0.434228 0.145229
vt 0.390039 0.008185
vt 0.429931 0.008185
vt 0.599130 0.149828
vt 0.600211 0.078131
vt 0.646536 0.078131
vt 0.647617 0.149828
vt 0.603654 0.008185
vt 0.643093 0.008185
vt 0.136514 0.148835
vt 0.137595 0.077139
vt 0.183919 0.077139
vt 0.185000 0.148836
vt 0.140988 0.008196
vt 0.180526 0.008196
vt 0.435588 0.147277
vt 0.436669 0.075581
vt 0.482993 0.075581
vt 0.484074 0.147277
vt 0.439986 0.008185
vt 0.479676 0.008185
vt 0.599131 0.434291
vt 0.600212 0.362594
vt 0.646536 0.362594
vt 0.647617 0.434290
vt 0.603378 0.298259
vt 0.643370 0.298259
vt 0.286051 0.148044
vt 0.287132 0.076348
vt 0.333456 0.076348
vt 0.334537 0.148044
vt 0.290487 0.008185
vt 0.330102 0.008185
vt 0.762670 0.709608
vt 0.763751 0.637912
vt 0.810076 0.637912
vt 0.811157 0.709608
vt 0.766952 0.572878
vt 0.806875 0.572878
vt 0.549285 0.144237
vt 0.550366 0.072540
vt 0.596690 0.072540
vt 0.597771 0.144237
vt 0.553533 0.008191
vt 0.593523 0.008191
vt 0.186360 0.149365
vt 0.187441 0.077669
vt 0.233765 0.077669
vt 0.234846 0.149365
vt 0.190860 0.008185
vt 0.230346 0.008185
vt 0.648976 0.150134
vt 0.650057 0.078437
vt 0.696381 0.078437
vt 0.697462 0.150134
vt 0.653515 0.008183
vt 0.692924 0.008183
vt 0.086668 0.145971
vt 0.087749 0.074275
vt 0.134074 0.074275
vt 0.135155 0.145971
vt 0.091002 0.008195
vt 0.130822 0.008195
vt 0.236205 0.149088
vt 0.237286 0.077391
vt 0.283611 0.077391
vt 0.284692 0.149088
vt 0.240692 0.008185
vt 0.280205 0.008185
vt 0.593382 0.298261
vt 0.596690 0.365474
vt 0.550366 0.365474
vt 0.553674 0.298261
vt 0.597771 0.437171
vt 0.549285 0.437171
vt 0.379886 0.008185
vt 0.383302 0.077586
vt 0.336977 0.077586
vt 0.340393 0.008185
vt 0.384383 0.149283
vt 0.335896 0.149283
vt 0.757068 0.574953
vt 0.760230 0.639201
vt 0.713906 0.639201
vt 0.717068 0.574953
vt 0.761311 0.710897
vt 0.712825 0.710897
vt 0.757181 0.298256
vt 0.760230 0.360215
vt 0.713906 0.360215
vt 0.716955 0.298256
vt 0.761311 0.431911
vt 0.712825 0.431911
vt 0.482993 0.218974
vt 0.436669 0.218974
vt 0.480391 0.271852
vt 0.439271 0.271852
vt 0.183919 0.220532
vt 0.137595 0.220532
vt 0.181472 0.270260
vt 0.140042 0.270260
vt 0.646536 0.221525
vt 0.600212 0.221525
vt 0.643899 0.275104
vt 0.602848 0.275104
vt 0.433147 0.216926
vt 0.386823 0.216926
vt 0.430476 0.271201
vt 0.389494 0.271201
vt 0.596690 0.508868
vt 0.550366 0.508868
vt 0.594023 0.563058
vt 0.553033 0.563058
vt 0.383302 0.220980
vt 0.336977 0.220980
vt 0.380580 0.276288
vt 0.339699 0.276288
vt 0.760230 0.782594
vt 0.713906 0.782594
vt 0.757767 0.832635
vt 0.716368 0.832635
vt 0.760230 0.503608
vt 0.713906 0.503608
vt 0.757525 0.558571
vt 0.716611 0.558571
vt 0.283611 0.220784
vt 0.237286 0.220784
vt 0.281090 0.271998
vt 0.239807 0.271998
vt 0.134074 0.217668
vt 0.087749 0.217668
vt 0.131456 0.270863
vt 0.090367 0.270863
vt 0.696381 0.221831
vt 0.650057 0.221831
vt 0.693824 0.273791
vt 0.652614 0.273791
vt 0.233765 0.221062
vt 0.187441 0.221062
vt 0.231188 0.273433
vt 0.190018 0.273433
vt 0.602720 0.556954
vt 0.600212 0.505987
vt 0.646536 0.505987
vt 0.644027 0.556954
vt 0.289685 0.271614
vt 0.287132 0.219741
vt 0.333456 0.219741
vt 0.330903 0.271614
vt 0.766188 0.830806
vt 0.763751 0.781305
vt 0.810076 0.781305
vt 0.807640 0.830806
vt 0.552915 0.267730
vt 0.550366 0.215933
vt 0.596690 0.215933
vt 0.594141 0.267730
vt 0.704115 0.428781
vt 0.656319 0.429655
vt 0.657239 0.358535
vt 0.702637 0.357637
vt 0.658379 0.290868
vt 0.701001 0.290931
vt 0.654333 0.716379
vt 0.606494 0.716802
vt 0.606768 0.645608
vt 0.652211 0.645354
vt 0.608496 0.573501
vt 0.650631 0.573813
vt 0.540576 0.433276
vt 0.492774 0.433316
vt 0.494928 0.362248
vt 0.540330 0.362141
vt 0.497477 0.290817
vt 0.539692 0.291601
vt 0.754013 0.141121
vt 0.706182 0.141543
vt 0.706460 0.070371
vt 0.751891 0.070115
vt 0.708064 0.000847
vt 0.750462 0.001177
vt 0.540578 0.715875
vt 0.492784 0.714927
vt 0.494293 0.643778
vt 0.539704 0.644701
vt 0.495901 0.578008
vt 0.538645 0.577962
vt 0.241496 0.441506
vt 0.193701 0.440650
vt 0.195264 0.369671
vt 0.240691 0.370291
vt 0.198221 0.299446
vt 0.240518 0.300549
vt 0.141825 0.727265
vt 0.094024 0.726265
vt 0.095602 0.655091
vt 0.141029 0.656062
vt 0.097325 0.588461
vt 0.140007 0.588461
vt 0.817813 0.429373
vt 0.770016 0.428486
vt 0.771620 0.357472
vt 0.817061 0.358116
vt 0.774362 0.290938
vt 0.817081 0.292100
vt 0.440886 0.436229
vt 0.393090 0.435373
vt 0.394553 0.364255
vt 0.439943 0.365137
vt 0.396425 0.293382
vt 0.438591 0.293320
vt 0.440918 0.723943
vt 0.393077 0.723520
vt 0.395199 0.652491
vt 0.440644 0.652745
vt 0.396798 0.580686
vt 0.438902 0.580375
vt 0.540583 0.140001
vt 0.492776 0.140047
vt 0.493064 0.069033
vt 0.538495 0.068832
vt 0.494656 0.000680
vt 0.537185 0.001036
vt 0.341186 0.440794
vt 0.293396 0.439892
vt 0.294861 0.368794
vt 0.340253 0.369680
vt 0.296720 0.298202
vt 0.338917 0.298140
vt 0.773264 0.000766
vt 0.815691 0.000702
vt 0.816929 0.070362
vt 0.771522 0.069473
vt 0.817856 0.141493
vt 0.770056 0.140630
vt 0.098626 0.302943
vt 0.140789 0.304039
vt 0.141006 0.375034
vt 0.095579 0.374408
vt 0.141805 0.446244
vt 0.094010 0.445383
vt 0.197582 0.585044
vt 0.240335 0.586054
vt 0.240561 0.652068
vt 0.195099 0.651621
vt 0.241569 0.723194
vt 0.193723 0.722825
vt 0.297696 0.584562
vt 0.340689 0.585396
vt 0.340988 0.648742
vt 0.295556 0.648803
vt 0.341226 0.720102
vt 0.293385 0.719779
vt 0.752880 0.212089
vt 0.707476 0.212818
vt 0.751777 0.266829
vt 0.708628 0.266812
vt 0.538552 0.504457
vt 0.493123 0.504302
vt 0.537508 0.555309
vt 0.494436 0.555526
vt 0.653192 0.787427
vt 0.607756 0.788147
vt 0.652385 0.843220
vt 0.608522 0.842988
vt 0.703337 0.500009
vt 0.657905 0.500644
vt 0.703242 0.555555
vt 0.660264 0.556584
vt 0.816276 0.212533
vt 0.770828 0.211911
vt 0.814133 0.268626
vt 0.770626 0.267469
vt 0.140337 0.517369
vt 0.094945 0.516482
vt 0.138879 0.573796
vt 0.095987 0.573679
vt 0.239509 0.794346
vt 0.194028 0.794099
vt 0.239040 0.845735
vt 0.194819 0.846188
vt 0.340047 0.791476
vt 0.294608 0.790809
vt 0.339274 0.847730
vt 0.295545 0.848008
vt 0.339721 0.511892
vt 0.294329 0.511006
vt 0.338338 0.564129
vt 0.295323 0.563941
vt 0.540302 0.210987
vt 0.494877 0.211180
vt 0.538846 0.265661
vt 0.496210 0.265518
vt 0.439662 0.795300
vt 0.394219 0.794581
vt 0.438978 0.848504
vt 0.394951 0.848739
vt 0.439324 0.507202
vt 0.393898 0.506582
vt 0.437034 0.561134
vt 0.394062 0.560156
vt 0.537991 0.839144
vt 0.494361 0.839083
vt 0.493663 0.786124
vt 0.539082 0.787044
vt 0.238638 0.565539
vt 0.195650 0.565362
vt 0.194643 0.511744
vt 0.240034 0.512627
vt 0.139482 0.849197
vt 0.095198 0.849233
vt 0.094830 0.797537
vt 0.140285 0.798494
vt 0.815118 0.553453
vt 0.771730 0.553358
vt 0.770917 0.499634
vt 0.816325 0.500543
vt 0.346667 0.298007
vt 0.347894 0.369554
vt 0.823922 0.500717
vt 0.822765 0.553622
vt 0.088255 0.573808
vt 0.087304 0.516607
vt 0.086668 0.726221
vt 0.088004 0.654902
vt 0.186360 0.794186
vt 0.186360 0.722769
vt 0.248183 0.300537
vt 0.248296 0.370232
vt 0.380580 0.296642
vt 0.339699 0.296642
vt 0.089653 0.588474
vt 0.763216 0.211948
vt 0.762703 0.140593
vt 0.290487 0.000680
vt 0.330102 0.000680
vt 0.286951 0.790947
vt 0.286051 0.719729
vt 0.148453 0.304022
vt 0.148610 0.374974
vt 0.147929 0.517552
vt 0.146518 0.573986
vt 0.187003 0.511871
vt 0.186360 0.440617
vt 0.149154 0.446280
vt 0.386413 0.560184
vt 0.386294 0.506643
vt 0.480391 0.291821
vt 0.439271 0.291821
vt 0.348596 0.720150
vt 0.347656 0.791603
vt 0.546096 0.068641
vt 0.547926 0.139907
vt 0.807640 0.838311
vt 0.766188 0.838311
vt 0.247117 0.794503
vt 0.246724 0.845794
vt 0.385742 0.435338
vt 0.386961 0.364070
vt 0.693824 0.281296
vt 0.652614 0.281296
vt 0.187929 0.565494
vt 0.348531 0.440825
vt 0.347311 0.512076
vt 0.147888 0.798650
vt 0.147153 0.849308
vt 0.390039 0.000680
vt 0.429931 0.000680
vt 0.131456 0.301799
vt 0.090367 0.301799
vt 0.547356 0.644588
vt 0.547929 0.715910
vt 0.448282 0.652633
vt 0.448282 0.723995
vt 0.447270 0.795428
vt 0.717068 0.567436
vt 0.757068 0.567436
vt 0.387143 0.848823
vt 0.386556 0.794706
vt 0.486003 0.786230
vt 0.485433 0.714891
vt 0.385742 0.723466
vt 0.091002 0.000680
vt 0.130822 0.000680
vt 0.281090 0.297965
vt 0.239807 0.297965
vt 0.187455 0.651399
vt 0.189815 0.584973
vt 0.345970 0.564322
vt 0.653515 0.000680
vt 0.692924 0.000680
vt 0.757525 0.566076
vt 0.716611 0.566076
vt 0.763926 0.069292
vt 0.765604 0.000680
vt 0.447583 0.365010
vt 0.448227 0.436262
vt 0.544861 0.001080
vt 0.600854 0.843086
vt 0.600148 0.788279
vt 0.190860 0.000680
vt 0.230346 0.000680
vt 0.700983 0.266969
vt 0.699875 0.212976
vt 0.825201 0.141527
vt 0.823918 0.212772
vt 0.388777 0.293186
vt 0.643899 0.282609
vt 0.602848 0.282609
vt 0.553533 0.000680
vt 0.593523 0.000680
vt 0.757767 0.840141
vt 0.716368 0.840141
vt 0.546680 0.787213
vt 0.545644 0.839298
vt 0.547352 0.291733
vt 0.547924 0.362088
vt 0.330903 0.296864
vt 0.289685 0.296864
vt 0.086668 0.445349
vt 0.087955 0.374157
vt 0.708653 0.290750
vt 0.710231 0.357458
vt 0.488573 0.265708
vt 0.487280 0.211389
vt 0.140988 0.000680
vt 0.180526 0.000680
vt 0.287602 0.564073
vt 0.286688 0.511132
vt 0.766952 0.565361
vt 0.806875 0.565361
vt 0.181472 0.297975
vt 0.140042 0.297975
vt 0.340393 0.000680
vt 0.379886 0.000680
vt 0.430476 0.291821
vt 0.389494 0.291821
vt 0.248845 0.441541
vt 0.247626 0.512811
vt 0.446633 0.580147
vt 0.594141 0.285393
vt 0.552915 0.285393
vt 0.446340 0.293186
vt 0.231188 0.297968
vt 0.190018 0.297968
vt 0.149180 0.727306
vt 0.603654 0.000680
vt 0.643093 0.000680
vt 0.187014 0.846286
vt 0.348352 0.585367
vt 0.348596 0.648703
vt 0.439986 0.000680
vt 0.479676 0.000680
vt 0.644027 0.571963
vt 0.602720 0.571963
vt 0.716955 0.290750
vt 0.757181 0.290750
vt 0.760518 0.212233
vt 0.759514 0.266971
vt 0.287270 0.368609
vt 0.289072 0.298007
vt 0.148682 0.655955
vt 0.240692 0.000680
vt 0.280205 0.000680
vt 0.246272 0.565732
vt 0.286051 0.439862
vt 0.763975 0.553463
vt 0.763265 0.499747
vt 0.147787 0.588564
vt 0.547924 0.433366
vt 0.546153 0.504649
vt 0.823455 0.000680
vt 0.824574 0.070239
vt 0.553674 0.290750
vt 0.593382 0.290750
vt 0.485433 0.433224
vt 0.487292 0.361992
vt 0.446948 0.507453
vt 0.444736 0.561435
vt 0.649592 0.358415
vt 0.650617 0.290750
vt 0.698822 0.070262
vt 0.700325 0.000680
vt 0.090900 0.302625
vt 0.698822 0.141597
vt 0.486590 0.839172
vt 0.711466 0.428744
vt 0.661667 0.716325
vt 0.660851 0.787554
vt 0.599130 0.645497
vt 0.600761 0.573326
vt 0.762670 0.428448
vt 0.485497 0.504423
vt 0.599130 0.716854
vt 0.710943 0.500064
vt 0.710897 0.555571
vt 0.485433 0.068923
vt 0.486904 0.000699
vt 0.486737 0.555694
vt 0.485433 0.140142
vt 0.545152 0.555472
vt 0.659808 0.645151
vt 0.387603 0.652287
vt 0.389138 0.580470
vt 0.648976 0.429690
vt 0.446648 0.848594
vt 0.658294 0.573651
vt 0.763987 0.357222
vt 0.766608 0.290750
vt 0.824670 0.358070
vt 0.825166 0.429412
vt 0.547922 0.211107
vt 0.546530 0.265834
vt 0.650278 0.500896
vt 0.824757 0.292226
vt 0.087152 0.797620
vt 0.346942 0.847827
vt 0.759485 0.069917
vt 0.761344 0.141068
vt 0.652551 0.556886
vt 0.248017 0.586239
vt 0.248166 0.651995
vt 0.248910 0.723248
vt 0.287748 0.848117
vt 0.758125 0.001025
vt 0.489715 0.290750
vt 0.287913 0.648552
vt 0.087376 0.849267
vt 0.486696 0.643597
vt 0.762954 0.267437
vt 0.289925 0.584319
vt 0.821890 0.268904
vt 0.187639 0.369422
vt 0.546417 0.577923
vt 0.594023 0.574674
vt 0.553033 0.574674
vt 0.660187 0.843313
vt 0.488241 0.577899
vt 0.190490 0.299133
vt 0.603378 0.290750
vt 0.643370 0.290750
vt 0.700101 0.854878
vt 0.677412 0.854878
vt 0.677412 0.803131
vt 0.700101 0.838051
vt 0.272894 0.403697
vt 0.272894 0.420524
vt 0.250204 0.455444
vt 0.250204 0.403697
vt 0.963258 0.314081
vt 0.959008 0.320267
vt 0.925050 0.296936
vt 0.929300 0.290750
vt 0.557717 0.806017
vt 0.556213 0.798664
vt 0.596267 0.790470
vt 0.597771 0.797824
vt 0.279187 0.334053
vt 0.272894 0.338142
vt 0.250204 0.303222
vt 0.256498 0.299133
vt 0.929301 0.502014
vt 0.925050 0.495828
vt 0.959007 0.472496
vt 0.963257 0.478682
vt 0.471468 0.622446
vt 0.471468 0.540063
vt 0.478974 0.540063
vt 0.478974 0.622446
vt 0.256498 0.459534
vt 0.279187 0.424614
vt 0.361672 0.458428
vt 0.355381 0.454335
vt 0.378089 0.419427
vt 0.384380 0.423520
vt 0.709962 0.571781
vt 0.711465 0.579134
vt 0.671410 0.587325
vt 0.669907 0.579972
vt 0.915483 0.776639
vt 0.911233 0.770453
vt 0.945190 0.747121
vt 0.949440 0.753307
vt 0.949443 0.588687
vt 0.945194 0.594874
vt 0.911233 0.571548
vt 0.915482 0.565361
vt 0.669907 0.793579
vt 0.671411 0.786226
vt 0.711465 0.794419
vt 0.709961 0.801772
vt 0.384383 0.332913
vt 0.378092 0.337006
vt 0.355381 0.302100
vt 0.361672 0.298007
vt 0.597771 0.584229
vt 0.596267 0.591582
vt 0.556213 0.583389
vt 0.557717 0.576035
vt 0.464721 0.596332
vt 0.464721 0.566178
vt 0.902368 0.685385
vt 0.902368 0.565361
vt 0.909873 0.565361
vt 0.909873 0.685385
vt 0.959008 0.342264
vt 0.925051 0.342264
vt 0.862313 0.749282
vt 0.902368 0.749282
vt 0.902368 0.780636
vt 0.862313 0.772443
vt 0.862313 0.685385
vt 0.862313 0.573554
vt 0.919031 0.833667
vt 0.918745 0.932474
vt 0.911233 0.932512
vt 0.911534 0.833596
vt 0.711465 0.614136
vt 0.671411 0.614136
vt 0.952714 0.833603
vt 0.918753 0.801469
vt 0.953008 0.778105
vt 0.911234 0.726018
vt 0.945190 0.726018
vt 0.355400 0.407545
vt 0.378089 0.407546
vt 0.842969 0.840473
vt 0.820282 0.840649
vt 0.820057 0.828765
vt 0.842706 0.793514
vt 0.471707 0.538704
vt 0.464960 0.512590
vt 0.472226 0.510713
vt 0.478974 0.536827
vt 0.472226 0.480559
vt 0.478974 0.454444
vt 0.464960 0.478681
vt 0.471707 0.452567
vt 0.463600 0.454444
vt 0.456853 0.480559
vt 0.449586 0.478681
vt 0.456333 0.452567
vt 0.463600 0.536827
vt 0.456853 0.510713
vt 0.456333 0.538704
vt 0.449586 0.512590
vt 0.250205 0.517161
vt 0.250204 0.487007
vt 0.257710 0.487007
vt 0.257710 0.517161
vt 0.264457 0.543275
vt 0.264457 0.460893
vt 0.700101 0.911500
vt 0.707607 0.911500
vt 0.707607 0.920434
vt 0.700101 0.920434
vt 0.669907 0.854878
vt 0.669907 0.803131
vt 0.925051 0.389411
vt 0.959008 0.389411
vt 0.854819 0.874495
vt 0.862316 0.874517
vt 0.862300 0.957561
vt 0.854808 0.957513
vt 0.596267 0.703413
vt 0.556213 0.703413
vt 0.854808 0.685385
vt 0.854808 0.573554
vt 0.671411 0.677529
vt 0.711465 0.677529
vt 0.874246 0.117718
vt 0.874162 0.000680
vt 0.881669 0.000722
vt 0.881759 0.117751
vt 0.960411 0.932508
vt 0.960271 0.977044
vt 0.952760 0.977022
vt 0.952893 0.932462
vt 0.918794 0.953617
vt 0.911281 0.953634
vt 0.850243 0.793363
vt 0.850490 0.840361
vt 0.812798 0.840449
vt 0.812516 0.828504
vt 0.457215 0.596332
vt 0.457215 0.566178
vt 0.909873 0.749282
vt 0.909873 0.780636
vt 0.854808 0.772443
vt 0.854808 0.749282
vt 0.556213 0.767310
vt 0.596267 0.767310
vt 0.826561 0.117750
vt 0.826596 0.008940
vt 0.834102 0.008891
vt 0.834067 0.117714
vt 0.826561 0.207894
vt 0.826771 0.181068
vt 0.834264 0.180977
vt 0.834069 0.207749
vt 0.874180 0.215989
vt 0.874059 0.181089
vt 0.881552 0.181166
vt 0.881674 0.216119
vt 0.903846 0.782067
vt 0.903885 0.827368
vt 0.896379 0.827327
vt 0.896355 0.781995
vt 0.903799 0.874527
vt 0.896292 0.874533
vt 0.854985 0.805353
vt 0.862460 0.805250
vt 0.862326 0.827256
vt 0.854808 0.827309
vt 0.896172 0.980896
vt 0.677412 0.955354
vt 0.669907 0.955354
vt 0.669907 0.911500
vt 0.677412 0.911500
vt 0.707607 0.854878
vt 0.707607 0.838051
vt 0.250204 0.347076
vt 0.272894 0.347076
vt 0.820375 0.898840
vt 0.812851 0.898926
vt 0.911233 0.801284
vt 0.960210 0.833581
vt 0.960515 0.777998
vt 0.945193 0.627115
vt 0.911236 0.627114
vt 0.820088 0.910733
vt 0.812516 0.910911
vt 0.850405 0.899092
vt 0.842890 0.899074
vt 0.842867 0.945900
vt 0.850391 0.946000
vt 0.378091 0.348891
vt 0.355402 0.348891
vt 0.271963 0.460893
vt 0.271963 0.543275
vt 0.903667 0.980869
vt 0.792510 0.885725
vt 0.770176 0.885725
vt 0.770176 0.839671
vt 0.792510 0.874045
vt 0.455880 0.343330
vt 0.455880 0.331650
vt 0.478214 0.297276
vt 0.478214 0.343330
vt 0.038357 0.788523
vt 0.034106 0.794709
vt 0.000680 0.771742
vt 0.004930 0.765556
vt 0.851945 0.565361
vt 0.853448 0.572714
vt 0.814020 0.580778
vt 0.812516 0.573425
vt 0.449586 0.416833
vt 0.455880 0.412744
vt 0.478214 0.447118
vt 0.471920 0.451208
vt 0.004930 0.973711
vt 0.000680 0.967525
vt 0.034106 0.944557
vt 0.038356 0.950743
vt 0.999258 0.678787
vt 0.999178 0.761116
vt 0.991687 0.761156
vt 0.991757 0.678803
vt 0.471920 0.293186
vt 0.449586 0.327560
vt 0.162644 0.457391
vt 0.156352 0.453299
vt 0.178703 0.418935
vt 0.184995 0.423027
vt 0.163858 0.544959
vt 0.163858 0.626054
vt 0.156352 0.626054
vt 0.156352 0.544959
vt 0.828029 0.517378
vt 0.826525 0.510024
vt 0.865954 0.501960
vt 0.867458 0.509313
vt 0.046009 0.971158
vt 0.041759 0.964971
vt 0.075186 0.942005
vt 0.079436 0.948191
vt 0.079441 0.785943
vt 0.075193 0.792130
vt 0.041759 0.769174
vt 0.046008 0.762987
vt 0.867458 0.298813
vt 0.865954 0.306167
vt 0.826525 0.298103
vt 0.828029 0.290750
vt 0.185000 0.333702
vt 0.178709 0.337796
vt 0.156352 0.303436
vt 0.162643 0.299343
vt 0.812516 0.783944
vt 0.814019 0.776590
vt 0.853448 0.784650
vt 0.851945 0.792004
vt 0.264457 0.625729
vt 0.257815 0.600023
vt 0.257815 0.570340
vt 0.264457 0.544634
vt 0.034106 0.826431
vt 0.000680 0.826431
vt 0.915938 0.345943
vt 0.876482 0.345939
vt 0.876339 0.290861
vt 0.916045 0.298934
vt 0.814019 0.750607
vt 0.853447 0.750607
vt 0.930286 0.037615
vt 0.890638 0.037487
vt 0.890839 0.008678
vt 0.930189 0.000680
vt 0.826525 0.443089
vt 0.865954 0.443089
vt 0.980173 0.046588
vt 0.947039 0.046700
vt 0.946707 0.023842
vt 0.980459 0.000810
vt 0.041761 0.925010
vt 0.075187 0.925012
vt 0.156370 0.403141
vt 0.178704 0.403142
vt 0.178707 0.369957
vt 0.156372 0.369955
vt 0.362647 0.459787
vt 0.369289 0.485493
vt 0.362022 0.487370
vt 0.355381 0.461664
vt 0.362022 0.517053
vt 0.355381 0.542759
vt 0.369289 0.518930
vt 0.362647 0.544636
vt 0.170261 0.460628
vt 0.163619 0.486334
vt 0.156352 0.484456
vt 0.162994 0.458750
vt 0.170261 0.541722
vt 0.163619 0.516017
vt 0.162994 0.543600
vt 0.156352 0.517894
vt 0.178005 0.570665
vt 0.178005 0.600348
vt 0.170500 0.600348
vt 0.170500 0.570665
vt 0.792510 0.943459
vt 0.800016 0.943459
vt 0.800016 0.955139
vt 0.792510 0.955139
vt 0.762670 0.885725
vt 0.762670 0.839671
vt 0.000680 0.885104
vt 0.034106 0.885104
vt 0.950803 0.678784
vt 0.958303 0.678813
vt 0.958359 0.738225
vt 0.950872 0.738167
vt 0.923349 0.468579
vt 0.923691 0.494752
vt 0.916133 0.494532
vt 0.915823 0.468458
vt 0.876572 0.468618
vt 0.876345 0.502685
vt 0.868817 0.502875
vt 0.869054 0.468718
vt 0.937681 0.000808
vt 0.937808 0.037689
vt 0.883118 0.037559
vt 0.883368 0.008811
vt 0.987816 0.156608
vt 0.987678 0.196672
vt 0.980163 0.196647
vt 0.980296 0.156563
vt 0.946679 0.156554
vt 0.946709 0.173582
vt 0.939196 0.173595
vt 0.939167 0.156583
vt 0.563754 0.890751
vt 0.585939 0.890685
vt 0.586269 0.922818
vt 0.563747 0.957448
vt 0.556213 0.957609
vt 0.556232 0.890820
vt 0.250310 0.600023
vt 0.250310 0.570340
vt 0.868974 0.345879
vt 0.868817 0.290750
vt 0.923442 0.345870
vt 0.923570 0.298799
vt 0.853448 0.627717
vt 0.814020 0.627716
vt 0.883118 0.204581
vt 0.883247 0.145757
vt 0.890749 0.145714
vt 0.890617 0.204505
vt 0.937500 0.145807
vt 0.930003 0.145759
vt 0.930071 0.212579
vt 0.937566 0.212653
vt 0.826526 0.334955
vt 0.865954 0.334955
vt 0.999280 0.565420
vt 0.999320 0.620092
vt 0.991810 0.620059
vt 0.991786 0.565361
vt 0.950940 0.588361
vt 0.958426 0.588282
vt 0.958318 0.620018
vt 0.950803 0.620058
vt 0.770176 0.989513
vt 0.762670 0.989513
vt 0.762670 0.943459
vt 0.770176 0.943459
vt 0.800016 0.885725
vt 0.800016 0.874045
vt 0.478214 0.401064
vt 0.455880 0.401064
vt 0.939538 0.046587
vt 0.939167 0.023602
vt 0.987672 0.046551
vt 0.987971 0.000680
vt 0.075192 0.815001
vt 0.041766 0.814999
vt 0.586154 0.842028
vt 0.593669 0.841842
vt 0.593427 0.857656
vt 0.585947 0.857780
vt 0.593450 0.890800
vt 0.563851 0.807490
vt 0.563718 0.857652
vt 0.556213 0.857585
vt 0.556339 0.807376
vt 0.271963 0.544634
vt 0.271963 0.625729
vt 0.593797 0.923075
s 1
usemtl WoodenBarrel
f 8/1/1 7/2/1 5/3/2 9/4/2
f 9/4/2 5/3/2 4/5/3 11/6/3
f 11/6/3 4/5/3 10/7/4 6/8/4
f 14/9/5 12/10/6 26/11/6 32/12/5
f 23/13/7 10/14/8 17/15/8 28/16/7
f 26/11/9 59/17/10 51/18/10 3/19/9
f 13/20/11 31/21/12 3/19/12 51/18/11
f 54/22/13 44/23/13 7/2/1 8/1/1
f 19/24/14 20/25/15 18/26/15 22/27/14
f 20/25/15 30/28/16 16/29/16 18/26/15
f 30/28/16 27/30/17 17/15/17 16/29/16
f 6/8/18 15/31/19 1/32/19 27/30/18
f 12/10/20 31/33/20 13/34/21 24/35/21
f 15/31/22 23/36/22 25/37/23 14/9/23
f 14/9/23 25/37/23 31/33/20 12/10/20
f 29/38/24 19/24/14 22/27/14 21/39/24
f 32/12/25 26/11/9 3/19/9 2/40/25
f 6/8/4 10/7/4 23/36/22 15/31/22
f 12/10/6 24/35/26 59/17/26 26/11/6
f 10/14/8 4/41/27 16/29/27 17/15/8
f 4/41/27 5/42/28 18/26/28 16/29/27
f 8/1/29 9/4/30 20/25/30 19/24/29
f 7/43/31 44/44/32 21/39/32 22/27/31
f 31/21/12 25/45/33 2/40/33 3/19/12
f 1/32/34 32/12/25 2/40/25 28/16/34
f 5/42/28 7/43/31 22/27/31 18/26/28
f 54/22/35 8/1/29 19/24/29 29/38/35
f 9/4/30 11/6/36 30/28/36 20/25/30
f 11/6/36 6/8/18 27/30/18 30/28/36
f 15/31/19 14/9/5 32/12/5 1/32/19
f 25/45/33 23/13/7 28/16/7 2/40/33
f 27/30/17 1/32/34 28/16/34 17/15/17
f 39/46/37 38/47/37 37/48/38 40/49/38
f 40/49/38 37/48/38 36/50/39 42/51/39
f 42/51/39 36/50/39 62/52/40 41/53/40
f 45/54/41 43/55/42 56/56/42 64/57/41
f 53/58/43 62/59/44 63/60/44 58/61/43
f 56/56/45 29/62/24 21/63/24 35/64/45
f 44/65/32 61/66/46 35/64/46 21/63/32
f 24/35/21 13/34/21 38/47/37 39/46/37
f 49/67/47 50/68/48 48/69/48 52/70/47
f 50/68/48 60/71/49 47/72/49 48/69/48
f 60/71/49 57/73/50 63/60/50 47/72/49
f 41/53/51 46/74/52 33/75/52 57/73/51
f 43/55/53 61/76/53 44/77/13 54/78/13
f 46/74/54 53/79/54 55/80/55 45/54/55
f 45/54/55 55/80/55 61/76/53 43/55/53
f 59/17/10 49/67/47 52/70/47 51/18/10
f 64/57/56 56/56/45 35/64/45 34/81/56
f 41/53/40 62/52/40 53/79/54 46/74/54
f 43/55/42 54/78/35 29/62/35 56/56/42
f 62/59/44 36/82/57 47/72/57 63/60/44
f 36/82/57 37/83/58 48/69/58 47/72/57
f 39/46/59 40/49/60 50/68/60 49/67/59
f 38/84/61 13/20/11 51/18/11 52/70/61
f 61/66/46 55/85/62 34/81/62 35/64/46
f 33/75/63 64/57/56 34/81/56 58/61/63
f 37/83/58 38/84/61 52/70/61 48/69/58
f 24/35/26 39/46/59 49/67/59 59/17/26
f 40/49/60 42/51/64 60/71/64 50/68/60
f 42/51/64 41/53/51 57/73/51 60/71/64
f 46/74/52 45/54/41 64/57/41 33/75/52
f 55/85/62 53/58/43 58/61/43 34/81/62
f 57/73/50 33/75/63 58/61/63 63/60/50
f 72/86/45 71/87/45 69/88/56 73/89/56
f 73/89/56 69/88/56 68/90/63 75/91/63
f 75/91/63 68/90/63 74/92/50 70/93/50
f 78/94/58 76/95/61 90/96/61 96/97/58
f 87/98/64 74/99/51 81/100/51 92/101/64
f 90/96/37 123/102/21 115/103/21 67/104/37
f 77/105/26 95/106/59 67/104/59 115/103/26
f 118/107/24 108/108/24 71/87/45 72/86/45
f 83/109/53 84/110/55 82/111/55 86/112/53
f 84/110/55 94/113/54 80/114/54 82/111/55
f 94/113/54 91/115/40 81/100/40 80/114/54
f 70/93/44 79/116/57 65/117/57 91/115/44
f 76/95/47 95/118/47 77/119/10 88/120/10
f 79/116/49 87/121/49 89/122/48 78/94/48
f 78/94/48 89/122/48 95/118/47 76/95/47
f 93/123/13 83/109/53 86/112/53 85/124/13
f 96/97/38 90/96/37 67/104/37 66/125/38
f 70/93/50 74/92/50 87/121/49 79/116/49
f 76/95/61 88/120/11 123/102/11 90/96/61
f 74/99/51 68/126/52 80/114/52 81/100/51
f 68/126/52 69/127/41 82/111/41 80/114/52
f 72/86/46 73/89/62 84/110/62 83/109/46
f 71/128/42 108/129/35 85/124/35 86/112/42
f 95/106/59 89/130/60 66/125/60 67/104/59
f 65/117/39 96/97/38 66/125/38 92/101/39
f 69/127/41 71/128/42 86/112/42 82/111/41
f 118/107/32 72/86/46 83/109/46 93/123/32
f 73/89/62 75/91/43 94/113/43 84/110/62
f 75/91/43 70/93/44 91/115/44 94/113/43
f 79/116/57 78/94/58 96/97/58 65/117/57
f 89/130/60 87/98/64 92/101/64 66/125/60
f 91/115/40 65/117/39 92/101/39 81/100/40
f 103/131/9 102/132/9 101/133/25 104/134/25
f 104/134/25 101/133/25 100/135/34 106/136/34
f 106/136/34 100/135/34 126/137/17 105/138/17
f 109/139/28 107/140/31 120/141/31 128/142/28
f 117/143/36 126/144/18 127/145/18 122/146/36
f 120/141/1 93/123/13 85/124/13 99/147/1
f 108/129/35 125/148/29 99/147/29 85/124/35
f 88/149/10 77/150/10 102/132/9 103/131/9
f 113/151/20 114/152/23 112/153/23 116/154/20
f 114/152/23 124/155/22 111/156/22 112/153/23
f 124/155/22 121/157/4 127/145/4 111/156/22
f 105/138/8 110/158/27 97/159/27 121/157/8
f 107/140/14 125/160/14 108/108/24 118/107/24
f 110/158/16 117/161/16 119/162/15 109/139/15
f 109/139/15 119/162/15 125/160/14 107/140/14
f 123/163/21 113/151/20 116/154/20 115/164/21
f 128/142/2 120/141/1 99/147/1 98/165/2
f 105/138/17 126/137/17 117/161/16 110/158/16
f 107/140/31 118/107/32 93/123/32 120/141/31
f 126/144/18 100/166/19 111/156/19 127/145/18
f 100/166/19 101/167/5 112/153/5 111/156/19
f 103/131/12 104/134/33 114/152/33 113/151/12
f 102/168/6 77/169/26 115/164/26 116/154/6
f 125/148/29 119/170/30 98/165/30 99/147/29
f 97/159/3 128/142/2 98/165/2 122/146/3
f 101/167/5 102/168/6 116/154/6 112/153/5
f 88/149/11 103/131/12 113/151/12 123/163/11
f 104/134/33 106/136/7 124/155/7 114/152/33
f 106/136/7 105/138/8 121/157/8 124/155/7
f 110/158/27 109/139/28 128/142/28 97/159/27
f 119/170/30 117/143/36 122/146/36 98/165/30
f 121/157/4 97/159/3 122/146/3 127/145/4
f 194/171/65 183/172/66 190/173/66 274/174/65
f 183/172/66 182/175/67 191/176/67 190/173/66
f 195/177/68 196/178/69 172/179/69 173/180/68
f 196/178/69 170/181/70 136/182/70 172/179/69
f 198/183/71 181/184/72 171/185/72 271/186/71
f 181/184/72 180/187/73 197/188/73 171/185/72
f 199/189/74 200/190/75 168/191/75 169/192/74
f 200/190/75 201/193/76 135/194/76 168/191/75
f 286/195/77 203/196/78 204/197/78 202/198/77
f 203/196/78 205/199/79 163/200/79 204/197/78
f 287/201/80 207/202/81 161/203/81 162/204/80
f 207/202/81 157/205/82 160/206/82 161/203/81
f 288/207/83 189/208/84 158/209/84 159/210/83
f 189/208/84 138/211/85 208/212/85 158/209/84
f 246/213/86 154/214/87 155/215/87 156/216/86
f 154/214/87 137/217/88 188/218/88 155/215/87
f 231/219/89 187/220/90 178/221/90 209/222/89
f 187/220/90 134/223/91 179/224/91 178/221/90
f 210/225/92 185/226/93 150/227/93 151/228/92
f 185/226/93 133/229/94 186/230/94 150/227/93
f 234/231/95 177/232/96 148/233/96 149/234/95
f 177/232/96 176/235/97 184/236/97 148/233/96
f 283/237/98 164/238/99 146/239/99 147/240/98
f 164/238/99 206/241/100 132/242/100 146/239/99
f 143/243/101 211/244/102 153/245/102 131/246/101
f 211/244/102 213/247/103 152/248/103 153/245/102
f 129/249/104 192/250/105 145/251/105 212/252/104
f 192/250/105 214/253/106 144/254/106 145/251/105
f 175/255/107 174/256/108 142/257/108 193/258/107
f 174/256/108 215/259/109 141/260/109 142/257/108
f 165/261/110 166/262/111 140/263/111 130/264/110
f 166/262/111 167/265/112 139/266/112 140/263/111
f 169/192/74 260/267/113 267/268/113 199/189/74
f 260/267/113 259/269/114 268/270/114 267/268/113
f 271/186/71 272/271/115 250/272/115 198/183/71
f 272/271/115 248/273/116 223/274/116 250/272/115
f 173/180/68 258/275/117 249/276/117 195/177/68
f 258/275/117 257/277/118 273/278/118 249/276/117
f 274/174/65 275/279/119 247/280/119 194/171/65
f 275/279/119 276/281/120 222/282/120 247/280/119
f 213/247/103 277/283/121 278/284/121 152/248/103
f 277/283/121 279/285/122 242/286/122 278/284/121
f 214/253/106 281/287/123 241/288/123 144/254/106
f 281/287/123 238/289/124 240/290/124 241/288/123
f 215/259/109 266/291/125 239/292/125 141/260/109
f 266/291/125 225/293/126 282/294/126 239/292/125
f 167/265/112 236/295/127 237/296/127 139/266/112
f 236/295/127 224/297/128 265/298/128 237/296/127
f 147/240/98 264/299/129 255/300/129 283/237/98
f 264/299/129 221/301/130 256/302/130 255/300/129
f 149/234/95 262/303/131 233/304/131 234/231/95
f 262/303/131 220/305/132 263/306/132 233/304/131
f 151/228/92 254/307/133 232/308/133 210/225/92
f 254/307/133 253/309/134 261/310/134 232/308/133
f 209/222/89 243/311/135 230/312/135 231/219/89
f 243/311/135 280/313/136 219/314/136 230/312/135
f 228/315/137 284/316/138 235/317/138 218/318/137
f 284/316/138 286/195/77 202/198/77 235/317/138
f 216/319/139 269/320/140 229/321/140 285/322/139
f 269/320/140 287/201/80 162/204/80 229/321/140
f 252/323/141 251/324/142 227/325/142 270/326/141
f 251/324/142 288/207/83 159/210/83 227/325/142
f 244/327/143 245/328/144 226/329/144 217/330/143
f 245/328/144 246/213/86 156/216/86 226/329/144
f 327/331/89 422/332/89 325/333/145 306/334/145
f 306/334/145 325/333/145 289/335/146 290/336/146
f 331/337/92 330/338/92 333/339/147 332/340/147
f 332/340/147 333/339/147 314/341/148 315/342/148
f 334/343/95 418/344/95 335/345/149 305/346/149
f 305/346/149 335/345/149 307/347/150 304/348/150
f 337/349/98 336/350/98 339/351/151 338/352/151
f 338/352/151 339/351/151 316/353/152 317/354/152
f 445/355/112 342/356/112 343/357/153 344/358/153
f 344/358/153 343/357/153 346/359/154 345/360/154
f 446/361/109 351/362/109 347/363/155 348/364/155
f 348/364/155 347/363/155 350/365/156 349/366/156
f 447/367/106 378/368/106 353/369/157 322/370/157
f 322/370/157 353/369/157 308/371/158 309/372/158
f 423/373/103 328/374/103 354/375/159 355/376/159
f 355/376/159 354/375/159 302/377/160 303/378/160
f 441/379/65 356/380/65 301/381/161 313/382/161
f 313/382/161 301/381/161 299/383/162 300/384/162
f 358/385/68 357/386/68 359/387/163 312/388/163
f 312/388/163 359/387/163 296/389/164 297/390/164
f 436/391/71 377/392/71 360/393/165 298/394/165
f 298/394/165 360/393/165 293/395/166 294/396/166
f 437/397/74 341/398/74 361/399/167 362/400/167
f 362/400/167 361/399/167 320/401/168 321/402/168
f 323/403/169 324/404/169 364/405/170 363/406/170
f 363/406/170 364/405/170 366/407/86 365/408/86
f 310/409/171 311/410/171 367/411/172 326/412/172
f 326/412/172 367/411/172 369/413/83 368/414/83
f 291/415/173 292/416/173 370/417/174 295/418/174
f 295/418/174 370/417/174 372/419/80 371/420/80
f 318/421/175 319/422/175 373/423/176 374/424/176
f 374/424/176 373/423/176 375/425/77 376/426/77
f 336/350/98 337/349/98 415/427/177 398/428/177
f 398/428/177 415/427/177 381/429/178 382/430/178
f 418/344/95 334/343/95 417/431/179 420/432/179
f 420/432/179 417/431/179 404/433/180 405/434/180
f 330/338/92 331/337/92 419/435/181 397/436/181
f 397/436/181 419/435/181 399/437/182 396/438/182
f 422/332/89 327/331/89 421/439/183 424/440/183
f 424/440/183 421/439/183 406/441/184 407/442/184
f 365/408/86 366/407/86 427/443/185 428/444/185
f 428/444/185 427/443/185 430/445/186 429/446/186
f 368/414/83 369/413/83 425/447/187 426/448/187
f 426/448/187 425/447/187 433/449/188 432/450/188
f 371/420/80 372/419/80 431/451/189 412/452/189
f 412/452/189 431/451/189 400/453/190 401/454/190
f 376/426/77 375/425/77 435/455/191 434/456/191
f 434/456/191 435/455/191 394/457/192 395/458/192
f 341/398/74 437/397/74 393/459/193 340/460/193
f 340/460/193 393/459/193 391/461/194 392/462/194
f 377/392/71 436/391/71 439/463/195 380/464/195
f 380/464/195 439/463/195 388/465/196 389/466/196
f 357/386/68 358/385/68 438/467/197 390/468/197
f 390/468/197 438/467/197 385/469/198 386/470/198
f 356/380/65 441/379/65 442/471/199 440/472/199
f 440/472/199 442/471/199 410/473/200 411/474/200
f 413/475/201 414/476/201 444/477/202 443/478/202
f 443/478/202 444/477/202 342/356/112 445/355/112
f 402/479/203 403/480/203 352/481/204 416/482/204
f 416/482/204 352/481/204 351/362/109 446/361/109
f 383/483/205 384/484/205 379/485/206 387/486/206
f 387/486/206 379/485/206 378/368/106 447/367/106
f 408/487/207 409/488/207 329/489/208 448/490/208
f 448/490/208 329/489/208 328/374/103 423/373/103
f 206/491/209 164/492/210 362/400/211 321/402/209
f 245/493/212 244/494/213 408/487/213 448/490/214
f 238/495/215 281/496/216 426/448/217 432/450/215
f 159/497/218 158/498/219 353/369/220 378/368/218
f 266/499/221 215/500/222 371/420/222 412/452/223
f 157/501/224 207/502/225 348/364/226 349/366/224
f 240/290/227 238/289/227 432/503/227 433/504/227
f 158/498/219 208/505/228 308/371/228 353/369/220
f 277/506/229 213/507/230 365/408/230 428/444/231
f 160/206/232 157/205/232 349/508/232 350/509/232
f 236/510/233 167/511/234 376/426/234 434/456/235
f 212/512/236 145/513/237 367/411/238 311/410/236
f 241/514/239 240/515/240 433/449/240 425/447/241
f 229/516/242 162/517/243 351/362/243 352/481/244
f 145/513/237 144/518/245 369/413/245 367/411/238
f 280/519/246 243/520/247 440/472/248 411/474/246
f 268/270/249 259/269/249 382/521/249 381/522/249
f 139/523/250 237/524/251 435/455/252 375/425/250
f 177/525/253 234/526/254 436/391/254 298/394/255
f 252/323/256 270/326/256 384/527/256 383/528/256
f 239/529/257 282/530/258 400/453/258 431/451/259
f 209/531/260 178/532/261 301/381/262 356/380/260
f 261/310/263 253/309/263 386/533/263 385/534/263
f 285/535/264 229/516/242 352/481/244 403/480/264
f 283/536/265 255/537/266 393/459/267 437/397/265
f 251/538/268 252/539/269 383/483/269 387/486/270
f 191/176/271 182/175/271 290/540/271 289/541/271
f 263/306/272 220/305/272 389/542/272 388/543/272
f 203/544/273 286/545/274 445/355/274 344/358/275
f 185/546/276 210/547/277 358/385/277 312/388/278
f 210/547/277 232/548/279 438/467/280 358/385/277
f 175/255/281 193/258/281 292/549/281 291/550/281
f 253/551/282 254/552/283 390/468/284 386/470/282
f 235/553/285 202/554/286 342/356/286 444/477/287
f 254/552/283 151/555/288 357/386/288 390/468/284
f 184/236/289 176/235/289 294/556/289 293/557/289
f 256/302/290 221/301/290 392/558/290 391/559/290
f 174/560/291 175/561/292 291/415/292 295/418/293
f 255/537/266 256/562/294 391/461/294 393/459/267
f 243/520/247 209/531/260 356/380/260 440/472/248
f 186/230/295 133/229/295 297/563/295 296/564/295
f 265/298/296 224/297/296 395/565/296 394/566/296
f 211/567/297 143/568/298 323/403/298 363/406/299
f 187/569/300 231/570/301 441/379/301 313/382/302
f 176/571/303 177/525/253 298/394/255 294/396/303
f 257/572/304 258/573/305 397/436/306 396/438/304
f 179/224/307 134/223/307 300/574/307 299/575/307
f 259/576/308 260/577/309 398/428/310 382/430/308
f 213/507/230 211/567/297 363/406/299 365/408/230
f 152/578/311 278/579/312 427/443/313 366/407/311
f 178/532/261 179/580/314 299/383/314 301/381/262
f 273/278/315 257/277/315 396/581/315 399/582/315
f 188/218/316 137/217/316 303/583/316 302/584/316
f 282/294/317 225/293/317 401/585/317 400/586/317
f 284/587/318 228/588/319 413/475/319 443/478/320
f 180/589/321 181/590/322 305/346/323 304/348/321
f 216/319/324 285/322/324 403/591/324 402/592/324
f 214/593/325 192/594/326 326/412/327 368/414/325
f 182/595/328 183/596/329 306/334/330 290/336/328
f 220/597/331 262/598/332 380/464/333 389/466/331
f 286/545/274 284/587/318 443/478/320 445/355/274
f 197/188/334 180/187/334 304/599/334 307/600/334
f 221/601/335 264/602/336 340/460/337 392/462/335
f 164/492/210 283/536/265 437/397/265 362/400/211
f 208/212/338 138/211/338 309/603/338 308/604/338
f 223/274/339 248/273/339 405/605/339 404/606/339
f 215/500/222 174/560/291 295/418/293 371/420/222
f 129/249/340 212/252/340 311/607/340 310/608/340
f 222/282/341 276/281/341 407/609/341 406/610/341
f 287/611/342 269/612/343 416/482/344 446/361/342
f 133/613/345 185/546/276 312/388/278 297/390/345
f 244/327/346 217/330/346 409/614/346 408/615/346
f 134/616/347 187/569/300 313/382/302 300/384/347
f 219/314/348 280/313/348 411/617/348 410/618/348
f 288/619/349 251/538/268 387/486/270 447/367/349
f 136/182/350 170/181/350 315/620/350 314/621/350
f 225/622/351 266/499/221 412/452/223 401/454/351
f 130/623/352 140/624/353 373/423/354 319/422/352
f 207/502/225 287/611/342 446/361/342 348/364/226
f 135/194/355 201/193/355 317/625/355 316/626/355
f 228/315/356 218/318/356 414/627/356 413/628/356
f 140/624/353 139/523/250 375/425/250 373/423/354
f 165/261/357 130/264/357 319/629/357 318/630/357
f 267/631/358 268/632/359 381/429/359 415/427/360
f 146/633/361 132/634/362 320/401/362 361/399/363
f 189/635/364 288/619/349 447/367/349 322/370/365
f 132/242/366 206/241/366 321/636/366 320/637/366
f 269/612/343 216/638/367 402/479/367 416/482/344
f 147/639/368 146/633/361 361/399/363 341/398/368
f 217/640/369 226/641/370 329/489/371 409/488/369
f 138/642/372 189/635/364 322/370/365 309/372/372
f 198/643/373 250/644/374 417/431/375 334/343/373
f 131/645/376 153/646/377 364/405/378 324/404/376
f 143/243/379 131/246/379 324/647/379 323/648/379
f 271/649/380 171/650/381 335/345/382 418/344/380
f 153/646/377 152/578/311 366/407/311 364/405/378
f 230/651/383 219/652/384 410/473/384 442/471/385
f 190/653/386 191/654/387 289/335/387 325/333/388
f 168/655/389 135/656/390 316/353/390 339/351/391
f 231/570/301 230/651/383 442/471/385 441/379/301
f 192/594/326 129/657/392 310/409/392 326/412/327
f 169/658/393 168/655/389 339/351/391 336/350/393
f 218/659/394 235/553/285 444/477/287 414/476/394
f 183/596/329 194/660/395 327/331/395 306/334/330
f 195/661/396 249/662/397 419/435/398 331/337/396
f 172/663/399 136/664/400 314/341/400 333/339/401
f 226/641/370 156/665/402 328/374/402 329/489/371
f 272/666/403 271/649/380 418/344/380 420/432/404
f 173/667/405 172/663/399 333/339/401 330/338/405
f 247/668/406 222/669/407 406/441/407 421/439/408
f 148/670/409 184/671/410 293/395/410 360/393/411
f 248/672/412 272/666/403 420/432/404 405/434/412
f 149/673/413 148/670/409 360/393/411 377/392/413
f 250/644/374 223/674/414 404/433/414 417/431/375
f 196/675/415 195/661/396 331/337/396 332/340/416
f 194/660/395 247/668/406 421/439/408 327/331/395
f 150/676/417 186/677/418 296/389/418 359/387/419
f 258/573/305 173/667/405 330/338/405 397/436/306
f 274/678/420 190/653/386 325/333/388 422/332/420
f 151/555/288 150/676/417 359/387/419 357/386/288
f 232/548/279 261/679/421 385/469/421 438/467/280
f 170/680/422 196/675/415 332/340/416 315/342/422
f 155/681/423 188/682/424 302/377/424 354/375/425
f 181/590/322 198/643/373 334/343/373 305/346/323
f 154/683/426 246/684/427 423/373/427 355/376/428
f 156/665/402 155/681/423 354/375/425 328/374/402
f 233/685/429 263/686/430 388/465/430 439/463/431
f 275/687/432 274/678/420 422/332/420 424/440/433
f 137/688/434 154/683/426 355/376/428 303/378/434
f 234/526/254 233/685/429 439/463/431 436/391/254
f 227/689/435 159/497/218 378/368/218 379/485/436
f 237/524/251 265/690/437 394/457/437 435/455/252
f 200/691/438 199/692/439 337/349/439 338/352/440
f 276/693/441 275/687/432 424/440/433 407/442/441
f 193/694/442 142/695/443 370/417/444 292/416/442
f 199/692/439 267/631/358 415/427/360 337/349/439
f 144/518/245 241/514/239 425/447/241 369/413/245
f 142/695/443 141/696/445 372/419/445 370/417/444
f 224/697/446 236/510/233 434/456/235 395/458/446
f 201/698/447 200/691/438 338/352/440 317/354/447
f 281/496/216 214/593/325 368/414/325 426/448/217
f 171/650/381 197/699/448 307/347/448 335/345/382
f 260/577/309 169/658/393 336/350/393 398/428/310
f 264/602/336 147/639/368 341/398/368 340/460/337
f 167/511/234 166/700/449 374/424/450 376/426/234
f 270/701/451 227/689/435 379/485/436 384/484/451
f 202/554/286 204/702/452 343/357/453 342/356/286
f 279/703/454 277/506/229 428/444/231 429/446/454
f 166/700/449 165/704/455 318/421/455 374/424/450
f 278/579/312 242/705/456 430/445/456 427/443/313
f 162/517/243 161/706/457 347/363/458 351/362/243
f 205/707/459 203/544/273 344/358/275 345/360/459
f 242/286/460 279/285/460 429/708/460 430/709/460
f 262/598/332 149/673/413 377/392/413 380/464/333
f 249/662/397 273/710/461 399/437/461 419/435/398
f 204/702/452 163/711/462 346/359/462 343/357/453
f 141/696/445 239/529/257 431/451/259 372/419/445
f 161/706/457 160/712/463 350/365/463 347/363/458
f 246/684/427 245/493/212 448/490/214 423/373/427
f 163/200/464 205/199/464 345/713/464 346/714/464
f 539/715/465 541/716/465 461/717/465 454/718/465
f 537/719/466 486/720/466 498/721/466 543/722/466
f 492/723/467 491/724/467 469/725/467 457/726/467
f 456/727/468 468/728/468 494/729/468 493/730/468
f 488/731/469 487/732/469 466/733/469 453/734/469
f 462/735/470 474/736/470 473/737/470 497/738/470
f 451/739/471 455/740/471 511/741/471 499/742/471
f 461/743/472 498/721/472 486/720/472 454/744/472
f 450/745/473 464/746/473 465/747/473 500/748/473
f 449/749/474 463/750/474 472/751/474 460/752/474
f 503/753/475 504/754/475 501/755/475 502/756/475
f 510/757/476 509/758/476 471/759/476 459/760/476
f 507/761/477 508/762/477 495/763/477 496/764/477
f 512/765/478 467/766/478 470/767/478 458/768/478
f 489/769/479 490/770/479 505/771/479 506/772/479
f 451/739/465 478/773/465 477/774/465 455/740/465
f 514/775/480 506/776/480 505/777/480 516/778/480
f 534/779/481 532/780/481 469/725/482 491/724/482
f 517/781/465 513/782/465 456/783/465 493/784/465
f 506/776/465 514/775/465 518/785/465 489/786/465
f 547/787/480 548/788/480 546/789/480 545/790/480
f 526/791/483 523/792/483 472/751/484 463/750/484
f 550/793/485 547/787/485 510/794/486 459/795/486
f 551/796/487 546/797/487 501/755/466 504/754/466
f 558/798/488 554/799/488 465/747/489 464/746/489
f 559/800/490 555/801/490 512/802/491 458/803/491
f 455/804/492 477/805/493 484/806/493 511/807/492
f 511/807/466 484/806/466 483/808/466 499/809/466
f 478/810/494 451/811/495 499/809/495 483/808/494
f 479/812/496 481/813/497 476/814/497 485/815/496
f 479/812/466 480/816/466 482/817/466 481/813/466
f 482/817/498 480/816/499 452/818/499 475/819/498
f 481/820/497 482/821/498 475/822/498 476/823/497
f 485/824/465 476/823/465 475/822/465 452/825/465
f 540/826/471 538/827/471 487/828/471 488/829/471
f 541/716/480 543/830/480 498/831/480 461/717/480
f 474/736/500 531/832/501 533/833/501 473/737/500
f 533/834/471 535/835/471 497/836/471 473/837/471
f 520/838/466 516/839/466 505/771/466 490/770/466
f 520/840/471 490/841/471 489/786/471 518/785/471
f 508/762/502 524/842/503 525/843/503 495/763/502
f 527/844/471 496/845/471 495/846/471 525/847/471
f 551/848/471 504/849/471 503/850/471 549/851/471
f 548/788/480 502/852/480 501/853/480 546/789/480
f 559/800/471 458/803/471 470/854/471 557/855/471
f 555/801/480 553/856/480 467/857/480 512/802/480
f 477/774/493 478/773/494 483/858/494 484/859/493
f 456/783/480 513/782/480 515/860/480 468/861/480
f 513/782/480 514/775/480 516/778/480 515/860/480
f 494/862/471 519/863/471 517/781/471 493/784/471
f 519/863/471 520/840/471 518/785/471 517/781/471
f 494/729/466 468/728/466 515/864/466 519/865/466
f 519/865/466 515/864/466 516/839/466 520/838/466
f 524/866/480 508/867/480 507/868/480 522/869/480
f 518/785/465 514/775/465 513/782/465 517/781/465
f 472/870/480 523/871/480 521/872/480 460/873/480
f 523/871/480 524/866/480 522/869/480 521/872/480
f 449/874/471 528/875/471 526/876/471 463/877/471
f 528/875/471 527/844/471 525/847/471 526/876/471
f 527/844/504 522/869/504 507/868/505 496/845/505
f 525/843/503 524/842/503 523/792/483 526/791/483
f 449/874/506 460/873/506 521/872/507 528/875/507
f 528/875/507 521/872/507 522/869/504 527/844/504
f 469/878/480 532/879/480 530/880/480 457/881/480
f 532/879/480 531/882/480 529/883/480 530/880/480
f 491/884/471 492/885/471 536/886/471 534/887/471
f 534/887/471 536/886/471 535/835/471 533/834/471
f 535/835/508 529/883/508 462/888/509 497/836/509
f 533/833/501 531/832/501 532/780/481 534/779/481
f 492/885/510 457/881/510 530/880/511 536/886/511
f 536/886/511 530/880/511 529/883/508 535/835/508
f 453/889/480 466/890/480 544/891/480 542/892/480
f 537/893/471 538/827/471 540/826/471 539/715/471
f 454/718/471 486/894/471 537/893/471 539/715/471
f 537/719/466 543/722/466 544/895/466 538/896/466
f 487/732/466 538/896/466 544/895/466 466/733/466
f 541/716/465 539/715/465 540/826/465 542/892/465
f 488/829/465 453/889/465 542/892/465 540/826/465
f 553/856/480 555/801/480 556/897/480 554/898/480
f 510/794/480 547/787/480 545/790/480 509/899/480
f 551/848/471 549/851/471 550/793/471 552/900/471
f 471/901/471 552/900/471 550/793/471 459/795/471
f 545/902/512 546/797/487 551/796/487 552/903/512
f 471/759/513 509/758/513 545/902/512 552/903/512
f 547/787/485 550/793/485 549/851/514 548/788/514
f 503/850/465 502/852/465 548/788/514 549/851/514
f 500/904/480 465/905/480 554/898/480 556/897/480
f 559/800/471 557/855/471 558/906/471 560/907/471
f 450/908/471 560/907/471 558/906/471 464/909/471
f 555/801/490 559/800/490 560/907/515 556/897/515
f 450/908/516 500/904/516 556/897/515 560/907/515
f 553/910/517 554/799/488 558/798/488 557/911/517
f 470/767/518 467/766/518 553/910/517 557/911/517
f 485/824/480 452/825/480 480/912/480 479/913/480
f 543/830/480 541/716/480 542/892/480 544/891/480
f 531/882/480 474/914/480 462/888/480 529/883/480
f 651/915/466 653/916/466 573/917/466 566/918/466
f 649/919/465 598/920/465 610/921/465 655/922/465
f 604/923/475 603/924/475 581/925/475 569/926/475
f 568/927/477 580/928/477 606/929/477 605/930/477
f 600/931/473 599/932/473 578/933/473 565/934/473
f 574/935/476 586/936/476 585/937/476 609/938/476
f 643/939/471 586/940/471 574/941/471 641/942/471
f 573/943/478 610/921/478 598/920/478 566/944/478
f 562/945/469 576/946/469 577/947/469 612/948/469
f 597/949/471 564/950/471 592/951/471 591/952/471
f 561/953/479 575/954/479 584/955/479 572/956/479
f 615/957/467 616/958/467 613/959/467 614/960/467
f 622/961/470 621/962/470 583/963/470 571/964/470
f 619/965/468 620/966/468 607/967/468 608/968/468
f 624/969/472 579/970/472 582/971/472 570/972/472
f 601/973/474 602/974/474 617/975/474 618/976/474
f 563/977/466 590/978/466 589/979/466 567/980/466
f 646/981/519 644/982/519 581/925/520 603/924/520
f 629/983/521 625/984/521 568/985/522 605/986/522
f 632/987/523 628/988/523 617/975/524 602/974/524
f 639/989/525 634/990/525 619/991/526 608/992/526
f 638/993/527 635/994/527 584/955/528 575/954/528
f 662/995/529 659/996/529 622/997/530 571/998/530
f 663/999/531 658/1000/531 613/959/465 616/958/465
f 670/1001/532 666/1002/532 577/947/533 576/946/533
f 579/970/534 665/1003/535 669/1004/535 582/971/534
f 567/1005/496 589/1006/497 596/1007/497 623/1008/496
f 623/1008/465 596/1007/465 595/1009/465 611/1010/465
f 590/1011/498 563/1012/499 611/1010/499 595/1009/498
f 591/1013/492 593/1014/493 588/1015/493 597/1016/492
f 591/1013/465 592/1017/465 594/1018/465 593/1014/465
f 594/1018/494 592/1017/495 564/1019/495 587/1020/494
f 593/1021/493 594/1022/494 587/1023/494 588/1024/493
f 597/949/466 588/1024/466 587/1023/466 564/950/466
f 652/1025/480 650/1026/480 599/1027/480 600/1028/480
f 653/916/471 655/1029/471 610/1030/471 573/917/471
f 586/936/536 643/1031/537 645/1032/537 585/937/536
f 645/1033/480 647/1034/480 609/1035/480 585/1036/480
f 632/1037/480 602/1038/480 601/1039/480 630/1040/480
f 626/1041/471 618/1042/471 617/1043/471 628/1044/471
f 639/989/480 608/992/480 607/1045/480 637/1046/480
f 636/1047/471 620/1048/471 619/991/471 634/990/471
f 663/1049/480 616/1050/480 615/1051/480 661/1052/480
f 660/1053/471 614/1054/471 613/1055/471 658/1056/471
f 671/1057/538 667/1058/538 624/1059/539 570/1060/539
f 671/1057/480 570/1060/480 582/1061/480 669/1062/480
f 589/979/497 590/978/498 595/1063/498 596/1064/497
f 568/985/471 625/984/471 627/1065/471 580/1066/471
f 631/1067/480 632/1037/480 630/1040/480 629/983/480
f 606/1068/480 631/1067/480 629/983/480 605/986/480
f 627/1069/540 628/988/523 632/987/523 631/1070/540
f 606/929/541 580/928/541 627/1069/540 631/1070/540
f 625/984/521 629/983/521 630/1040/542 626/1041/542
f 601/1039/543 618/1042/543 626/1041/542 630/1040/542
f 584/1071/471 635/1072/471 633/1073/471 572/1074/471
f 639/989/480 637/1046/480 638/1075/480 640/1076/480
f 561/1077/480 640/1076/480 638/1075/480 575/1078/480
f 635/994/527 638/993/527 637/1079/544 636/1080/544
f 607/967/545 620/966/545 636/1080/544 637/1079/544
f 633/1073/546 634/990/525 639/989/525 640/1076/546
f 561/1077/547 572/1074/547 633/1073/546 640/1076/546
f 625/984/471 626/1041/471 628/1044/471 627/1065/471
f 581/1081/471 644/1082/471 642/1083/471 569/1084/471
f 644/1082/471 643/939/471 641/942/471 642/1083/471
f 603/1085/480 604/1086/480 648/1087/480 646/1088/480
f 646/1088/480 648/1087/480 647/1034/480 645/1033/480
f 647/1034/548 641/942/548 574/941/549 609/1035/549
f 645/1032/537 643/1031/537 644/982/519 646/981/519
f 604/1086/550 569/1084/550 642/1083/551 648/1087/551
f 648/1087/551 642/1083/551 641/942/548 647/1034/548
f 565/1089/471 578/1090/471 656/1091/471 654/1092/471
f 649/1093/480 650/1026/480 652/1025/480 651/915/480
f 566/918/480 598/1094/480 649/1093/480 651/915/480
f 649/919/465 655/922/465 656/1095/465 650/1096/465
f 599/932/465 650/1096/465 656/1095/465 578/933/465
f 653/916/466 651/915/466 652/1025/466 654/1092/466
f 600/1028/466 565/1089/466 654/1092/466 652/1025/466
f 622/997/471 659/996/471 657/1097/471 621/1098/471
f 663/1049/480 661/1052/480 662/995/480 664/1099/480
f 583/1100/480 664/1099/480 662/995/480 571/998/480
f 657/1101/552 658/1000/531 663/999/531 664/1102/552
f 583/963/553 621/962/553 657/1101/552 664/1102/552
f 659/996/529 662/995/529 661/1052/554 660/1053/554
f 615/1051/466 614/1054/466 660/1053/554 661/1052/554
f 635/1072/471 636/1047/471 634/990/471 633/1073/471
f 612/1103/471 577/1104/471 666/1105/471 668/1106/471
f 668/1106/471 666/1105/471 665/1107/471 667/1058/471
f 562/1108/480 672/1109/480 670/1110/480 576/1111/480
f 672/1109/480 671/1057/480 669/1062/480 670/1110/480
f 562/1108/555 612/1103/555 668/1106/556 672/1109/556
f 672/1109/556 668/1106/556 667/1058/538 671/1057/538
f 563/977/480 567/980/480 623/1112/480 611/1113/480
f 669/1004/535 665/1003/535 666/1002/532 670/1001/532
f 667/1058/471 665/1107/471 579/1114/471 624/1059/471
f 659/996/471 660/1053/471 658/1056/471 657/1097/471
f 655/1029/471 653/916/471 654/1092/471 656/1091/471
