mtllib WoodenBarrel1.mtl
o WoodenBarrel
v 0.378291 0.793092 0.156693
v 0.296981 0.746494 0.296981
v 0.160725 0.746494 0.388024
v 0.378845 0.744248 -0.156923
v 0.289955 0.744248 -0.289955
v 0.399524 0.790846 -0.000000
v 0.156923 0.744248 -0.378845
v 0.152891 0.790846 -0.369112
v 0.282506 0.790846 -0.282506
v 0.410059 0.744248 -0.000000
v 0.369112 0.790846 -0.152891
v 0.152891 0.790846 0.369112
v 0.000000 0.744248 0.410059
v 0.282506 0.790846 0.282506
v 0.369112 0.790846 0.152891
v 0.388024 0.746494 -0.160725
v 0.419994 0.746494 -0.000000
v 0.296981 0.746494 -0.296981
v 0.156693 0.793092 -0.378291
v 0.289532 0.793092 -0.289531
v -0.000000 0.746494 -0.419994
v 0.160725 0.746494 -0.388024
v 0.378845 0.744248 0.156923
v 0.000000 0.790846 0.399524
v 0.289955 0.744248 0.289955
v 0.156693 0.793092 0.378291
v 0.409459 0.793092 -0.000000
v 0.388024 0.746494 0.160725
v 0.000000 0.793092 -0.409459
v 0.378291 0.793092 -0.156693
v 0.156923 0.744248 0.378845
v 0.289532 0.793092 0.289532
v -0.378291 0.793092 -0.156693
v -0.296981 0.746494 -0.296981
v -0.160725 0.746494 -0.388024
v -0.378845 0.744248 0.156923
v -0.289955 0.744248 0.289955
v -0.156923 0.744248 0.378845
v -0.152891 0.790846 0.369112
v -0.282506 0.790846 0.282506
v -0.399524 0.790846 0.000000
v -0.369112 0.790846 0.152891
v -0.152891 0.790846 -0.369112
v -0.000000 0.744248 -0.410059
v -0.282506 0.790846 -0.282506
v -0.369112 0.790846 -0.152891
v -0.388024 0.746494 0.160725
v -0.296981 0.746494 0.296981
v -0.156693 0.793092 0.378291
v -0.289531 0.793092 0.289532
v 0.000000 0.746494 0.419994
v -0.160725 0.746494 0.388024
v -0.378845 0.744248 -0.156923
v -0.000000 0.790846 -0.399524
v -0.289955 0.744248 -0.289955
v -0.156693 0.793092 -0.378291
v -0.409459 0.793092 0.000000
v -0.388024 0.746494 -0.160725
v 0.000000 0.793092 0.409459
v -0.378291 0.793092 0.156693
v -0.156923 0.744248 -0.378845
v -0.410059 0.744248 0.000000
v -0.419994 0.746494 0.000000
v -0.289532 0.793092 -0.289531
v 0.378291 0.118960 -0.156694
v 0.296981 0.165558 -0.296981
v 0.160725 0.165558 -0.388024
v 0.378845 0.167804 0.156922
v 0.289955 0.167804 0.289955
v 0.399524 0.121207 -0.000000
v 0.156923 0.167804 0.378844
v 0.152891 0.121206 0.369112
v 0.282506 0.121207 0.282506
v 0.410059 0.167805 -0.000000
v 0.369112 0.121206 0.152891
v 0.152891 0.121207 -0.369112
v 0.000000 0.167805 -0.410059
v 0.282506 0.121207 -0.282506
v 0.369112 0.121207 -0.152891
v 0.388024 0.165558 0.160725
v 0.419994 0.165558 -0.000000
v 0.296981 0.165558 0.296981
v 0.156693 0.118960 0.378291
v 0.289532 0.118960 0.289531
v -0.000000 0.165558 0.419994
v 0.160725 0.165558 0.388024
v 0.378845 0.167805 -0.156923
v 0.000000 0.121207 -0.399524
v 0.289955 0.167805 -0.289955
v 0.156693 0.118960 -0.378291
v 0.409459 0.118960 -0.000000
v 0.388024 0.165558 -0.160725
v 0.000000 0.118960 0.409459
v 0.378291 0.118960 0.156693
v 0.156923 0.167805 -0.378845
v 0.289532 0.118960 -0.289532
v -0.378291 0.118960 0.156693
v -0.296981 0.165558 0.296981
v -0.160725 0.165558 0.388024
v -0.378845 0.167805 -0.156923
v -0.289955 0.167805 -0.289955
v -0.156923 0.167805 -0.378845
v -0.152891 0.121207 -0.369112
v -0.282506 0.121207 -0.282506
v -0.399524 0.121207 -0.000000
v -0.369112 0.121207 -0.152891
v -0.152891 0.121206 0.369112
v -0.000000 0.167804 0.410058
v -0.282506 0.121207 0.282506
v -0.369112 0.121206 0.152891
v -0.388024 0.165558 -0.160725
v -0.296981 0.165558 -0.296981
v -0.156693 0.118960 -0.378291
v -0.289531 0.118960 -0.289532
v 0.000000 0.165558 -0.419995
v -0.160725 0.165558 -0.388024
v -0.378845 0.167804 0.156922
v -0.000000 0.121206 0.399523
v -0.289955 0.167804 0.289955
v -0.156693 0.118960 0.378291
v -0.409459 0.118960 -0.000000
v -0.388024 0.165558 0.160725
v 0.000000 0.118960 -0.409460
v -0.378291 0.118960 -0.156694
v -0.156923 0.167804 0.378844
v -0.410059 0.167805 -0.000000
v -0.419994 0.165558 -0.000000
v -0.289532 0.118960 0.289531
v 0.238398 -0.006079 -0.238397
v 0.317259 0.017939 -0.131413
v 0.000000 0.000980 -0.338982
v -0.311632 -0.005450 -0.129082
v -0.237890 -0.008833 -0.237890
v -0.128993 -0.006346 -0.311417
v 0.313038 0.000393 0.129664
v 0.128845 -0.007838 0.311058
v 0.000000 0.010225 0.341390
v -0.130424 0.008016 0.314871
v 0.382410 0.456026 -0.158399
v 0.365358 0.217900 -0.151336
v 0.292684 0.456026 -0.292683
v 0.279633 0.217900 -0.279633
v 0.129723 0.000980 -0.313179
v 0.158399 0.456026 -0.382409
v 0.151336 0.217900 -0.365358
v -0.365357 0.217900 -0.151336
v -0.382409 0.456026 -0.158399
v -0.279632 0.217900 -0.279633
v -0.292683 0.456026 -0.292683
v -0.151336 0.217900 -0.365358
v -0.158399 0.456026 -0.382409
v 0.000000 0.456026 -0.413917
v 0.000000 0.217900 -0.395460
v 0.000000 0.217900 0.395460
v -0.151336 0.217900 0.365358
v -0.158399 0.456026 0.382409
v -0.239133 -0.002083 0.239133
v -0.279632 0.217900 0.279633
v -0.292683 0.456026 0.292683
v -0.312442 -0.002083 0.129418
v -0.365357 0.217900 0.151336
v -0.382409 0.456026 0.158399
v -0.341401 0.010271 0.000000
v -0.395460 0.217900 0.000000
v 0.343398 0.017939 -0.000000
v 0.395461 0.217900 -0.000000
v 0.413917 0.456026 -0.000000
v 0.365358 0.217900 0.151336
v 0.382410 0.456026 0.158399
v 0.238074 -0.007838 0.238073
v 0.279633 0.217900 0.279633
v 0.151336 0.217900 0.365358
v 0.158399 0.456026 0.382409
v 0.365358 0.217900 -0.151336
v 0.315482 0.010551 -0.130677
v -0.314059 0.004641 -0.130088
v -0.365357 0.217900 -0.151336
v 0.000000 0.217900 -0.395460
v 0.000000 -0.006346 -0.337075
v 0.311837 -0.004600 0.129167
v 0.365358 0.217900 0.151336
v 0.130324 0.007002 0.314628
v 0.151336 0.217900 0.365358
v -0.240370 0.004641 -0.240371
v -0.279632 0.217900 -0.279633
v -0.128745 -0.008833 -0.310819
v -0.151336 0.217900 -0.365358
v -0.130644 0.010225 0.315403
v -0.151336 0.217900 0.365358
v 0.000000 0.217900 0.395460
v 0.000000 0.007002 0.340551
v 0.279633 0.217900 -0.279633
v 0.241459 0.010551 -0.241459
v 0.158399 0.456026 0.382409
v 0.292684 0.456026 0.292683
v 0.279633 0.217900 0.279633
v 0.238670 -0.004600 0.238669
v 0.382410 0.456026 0.158399
v 0.413917 0.456026 -0.000000
v 0.395461 0.217900 -0.000000
v 0.338830 0.000393 -0.000000
v -0.413917 0.456026 0.000000
v -0.365357 0.217900 0.151336
v -0.395460 0.217900 0.000000
v -0.315413 0.010271 0.130649
v -0.337308 -0.005450 0.000000
v -0.279632 0.217900 0.279633
v -0.240992 0.008016 0.240992
v 0.000000 0.456026 -0.413917
v -0.292683 0.456026 -0.292683
v 0.151336 0.217900 -0.365358
v 0.129020 -0.006079 -0.311481
v 0.158399 0.456026 -0.382409
v 0.292684 0.456026 -0.292683
v 0.382410 0.456026 -0.158399
v -0.238397 0.918132 0.238397
v -0.131413 0.894114 0.317258
v -0.346326 0.882867 0.000000
v -0.129082 0.917502 -0.311632
v -0.234422 0.939726 -0.234422
v -0.311417 0.918398 -0.128993
v 0.129665 0.911660 0.313038
v 0.311058 0.919891 0.128844
v 0.349276 0.871536 -0.000000
v 0.326510 0.855652 -0.135245
v -0.151336 0.694153 0.365358
v -0.279633 0.694153 0.279633
v -0.319964 0.882867 0.132533
v -0.365358 0.694153 0.151336
v -0.151336 0.694153 -0.365358
v -0.158399 0.456027 -0.382409
v -0.279633 0.694153 -0.279633
v -0.365358 0.694153 -0.151336
v -0.382409 0.456027 -0.158399
v -0.395460 0.694153 -0.000000
v 0.395460 0.694153 -0.000000
v 0.365358 0.694153 -0.151336
v 0.239133 0.914135 -0.239133
v 0.279633 0.694153 -0.279633
v 0.129418 0.914135 -0.312442
v 0.151336 0.694153 -0.365358
v -0.000000 0.882315 -0.346470
v -0.000000 0.694153 -0.395460
v 0.000000 0.894114 0.343398
v 0.000000 0.694153 0.395460
v -0.000000 0.456027 0.413917
v 0.151336 0.694153 0.365358
v 0.238073 0.919891 0.238073
v 0.279633 0.694153 0.279633
v 0.365358 0.694153 0.151336
v -0.151336 0.694153 0.365358
v -0.135419 0.853908 0.326930
v -0.134628 0.861845 -0.325020
v -0.151336 0.694153 -0.365358
v -0.395460 0.694153 -0.000000
v -0.337075 0.918398 -0.000000
v 0.134107 0.867070 0.323764
v 0.151336 0.694153 0.365358
v 0.314628 0.905051 0.130323
v 0.365358 0.694153 0.151336
v -0.248760 0.861845 -0.248760
v -0.279633 0.694153 -0.279633
v -0.306287 0.939726 -0.126868
v -0.365358 0.694153 -0.151336
v 0.322689 0.871536 -0.133662
v 0.365358 0.694153 -0.151336
v 0.395460 0.694153 -0.000000
v 0.340551 0.905051 -0.000000
v -0.279633 0.694153 0.279633
v -0.250221 0.853908 0.250221
v 0.292683 0.456027 0.292683
v 0.279633 0.694153 0.279633
v 0.247798 0.867070 0.247798
v -0.000000 0.456027 0.413917
v 0.000000 0.694153 0.395460
v -0.000000 0.911660 0.338830
v 0.151336 0.694153 -0.365358
v -0.000000 0.694153 -0.395460
v 0.132588 0.882315 -0.320096
v -0.000000 0.917502 -0.337308
v 0.279633 0.694153 -0.279633
v 0.249900 0.855652 -0.249900
v -0.413917 0.456027 -0.000000
v -0.365358 0.694153 0.151336
v -0.311481 0.918132 0.129020
v -0.382409 0.456027 0.158399
v -0.292683 0.456027 0.292683
v -0.158399 0.456027 0.382409
v 0.004726 0.000817 0.364308
v 0.135049 0.000817 0.338385
v 0.335510 0.003718 -0.144059
v 0.261487 0.003717 -0.254841
v -0.260408 -0.002135 -0.253760
v -0.334097 -0.002135 -0.143477
v 0.385875 0.213889 -0.165045
v -0.142222 -0.014851 -0.330988
v -0.251367 -0.014852 -0.258060
v -0.385875 0.213889 -0.165045
v -0.004725 -0.012531 -0.360833
v -0.133718 -0.012531 -0.335174
v -0.004814 0.213889 -0.419662
v -0.135354 0.003668 0.339084
v -0.004710 0.003668 0.365071
v 0.331870 -0.011409 0.142552
v 0.385875 0.213889 0.165045
v 0.156151 0.213889 0.389560
v 0.258702 -0.011409 0.252055
v -0.254374 0.001179 0.261020
v -0.143805 0.001179 0.334899
v 0.251855 -0.012265 -0.258538
v 0.142477 -0.012265 -0.331621
v -0.293342 0.213889 -0.300150
v -0.156150 0.213889 -0.389560
v 0.142302 -0.014024 0.331198
v 0.251531 -0.014024 0.258214
v 0.336796 -0.005792 0.134390
v 0.362588 -0.005792 0.004726
v 0.367156 0.011753 -0.004726
v 0.341016 0.011753 -0.136138
v -0.335389 -0.011635 -0.133808
v -0.361065 -0.011635 -0.004726
v -0.165045 0.213889 0.385875
v 0.134436 -0.005531 -0.336870
v 0.004713 -0.005531 -0.362673
v 0.004814 0.213889 0.419662
v 0.293342 0.213889 -0.300150
v 0.163277 0.456026 0.406929
v -0.163276 0.456026 0.406929
v -0.156150 0.698164 0.389560
v 0.172289 0.456026 0.403196
v 0.306573 0.456026 0.313470
v 0.293342 0.213889 0.300150
v 0.165046 0.213889 0.385875
v 0.403196 0.456026 0.172288
v 0.300150 0.213889 0.293342
v 0.406929 0.456026 0.163276
v 0.438437 0.456026 0.004877
v 0.419663 0.213889 0.004814
v 0.389560 0.213889 0.156150
v -0.389560 0.698164 -0.156150
v -0.406929 0.456026 -0.163276
v -0.438436 0.456026 0.004877
v -0.419662 0.213889 0.004814
v -0.389559 0.213889 0.156150
v -0.339125 0.003860 0.135365
v -0.365112 0.003860 0.004716
v -0.385875 0.213889 0.165045
v -0.300150 0.213889 0.293342
v -0.259273 -0.008268 0.252590
v -0.332582 -0.008268 0.142875
v -0.403196 0.456026 0.172288
v -0.385875 0.698164 0.165045
v -0.293341 0.213889 0.300150
v -0.156150 0.213889 0.389560
v -0.004814 0.213889 0.419662
v -0.004877 0.456026 -0.438437
v -0.172288 0.456026 -0.403196
v -0.306572 0.456026 -0.313470
v -0.165045 0.213889 -0.385875
v -0.300150 0.213889 -0.293342
v -0.389559 0.213889 -0.156150
v -0.419662 0.213889 -0.004814
v 0.156150 0.213889 -0.389560
v 0.004814 0.213889 -0.419662
v 0.163277 0.456026 -0.406929
v 0.004877 0.456026 -0.438437
v 0.165046 0.213889 -0.385875
v 0.306573 0.456026 -0.313470
v 0.172289 0.456026 -0.403196
v 0.300150 0.213889 -0.293342
v 0.403196 0.456026 -0.172288
v 0.313470 0.456026 -0.306573
v 0.389560 0.213889 -0.156150
v 0.419663 0.213889 -0.004814
v 0.406929 0.456026 -0.163276
v 0.438437 0.456026 -0.004877
v -0.313470 0.456026 -0.306573
v -0.306572 0.456026 0.313470
v -0.293342 0.698164 0.300150
v -0.300150 0.698164 -0.293342
v 0.364308 0.911236 0.004726
v 0.338385 0.911236 0.135049
v -0.148876 0.860093 0.347070
v -0.263679 0.860093 0.270362
v -0.262217 0.868030 -0.268900
v -0.148085 0.868030 -0.345161
v -0.165045 0.698164 0.385875
v -0.326427 0.945912 -0.140325
v -0.254562 0.945912 -0.247879
v -0.165045 0.698164 -0.385875
v -0.360833 0.924584 -0.004726
v -0.335174 0.924584 -0.133719
v -0.419662 0.698164 -0.004814
v 0.346447 0.877721 -0.138388
v 0.373034 0.877721 -0.004726
v 0.147565 0.873255 0.343904
v 0.165045 0.698164 0.385875
v 0.389560 0.698164 0.156150
v 0.261255 0.873255 0.267938
v 0.270040 0.861837 -0.263357
v 0.346651 0.861837 -0.148702
v -0.258538 0.924318 0.251855
v -0.331621 0.924318 0.142477
v 0.331198 0.926076 0.142302
v 0.258214 0.926077 0.251531
v 0.134390 0.917845 0.336795
v 0.004726 0.917845 0.362587
v -0.004726 0.900300 0.367155
v -0.136138 0.900300 0.341016
v -0.133808 0.923688 -0.335390
v -0.004726 0.923688 -0.361066
v 0.385875 0.698164 -0.165045
v -0.343721 0.889053 0.137259
v -0.370083 0.889053 0.004726
v 0.419662 0.698164 0.004814
v -0.300150 0.698164 0.293342
v 0.385875 0.698164 0.165045
v 0.313470 0.456027 0.306573
v 0.293342 0.698164 0.300150
v 0.300150 0.698164 0.293342
v 0.156150 0.698164 0.389560
v 0.004877 0.456027 0.438437
v -0.004877 0.456027 0.438437
v 0.004814 0.698164 0.419662
v 0.165045 0.698164 -0.385875
v 0.293342 0.698164 -0.300150
v 0.004814 0.698164 -0.419662
v 0.156150 0.698164 -0.389560
v 0.137314 0.888501 -0.343854
v 0.004726 0.888501 -0.370227
v 0.300150 0.698164 -0.293342
v 0.252590 0.920321 -0.259273
v 0.142875 0.920321 -0.332583
v 0.419662 0.698164 -0.004814
v 0.389560 0.698164 -0.156150
v -0.403196 0.456027 -0.172288
v -0.438436 0.456027 -0.004877
v -0.293342 0.698164 -0.300150
v -0.385875 0.698164 -0.165045
v -0.004814 0.698164 -0.419662
v -0.163276 0.456027 -0.406929
v -0.156150 0.698164 -0.389560
v -0.389560 0.698164 0.156150
v -0.419662 0.698164 0.004814
v -0.406929 0.456027 0.163276
v -0.313470 0.456027 0.306573
v -0.172288 0.456027 0.403196
v -0.004814 0.698164 0.419662
v 0.358528 0.835047 -0.001893
v 0.253518 0.837472 -0.254590
v 0.137203 0.837472 -0.331556
v 0.137203 0.837472 0.331556
v 0.253518 0.837472 0.254590
v -0.137203 0.837472 0.330165
v -0.137203 0.837472 -0.331556
v -0.358528 0.837472 0.001893
v 0.331237 0.839013 0.138807
v -0.253518 0.835167 -0.254590
v -0.331237 0.837472 -0.138807
v 0.331237 0.835047 -0.135310
v -0.253518 0.837472 0.254590
v -0.331237 0.839191 0.138807
v 0.358528 0.810047 -0.001893
v 0.253518 0.812472 -0.254590
v 0.137203 0.812472 -0.330165
v 0.253518 0.812472 0.254590
v -0.137203 0.810167 -0.330165
v -0.358528 0.812472 0.001893
v 0.331237 0.814013 0.138807
v -0.253518 0.810167 -0.254590
v -0.331237 0.812472 -0.138807
v 0.331237 0.810047 -0.135310
v -0.253518 0.814191 0.251913
v -0.331237 0.814191 0.138807
v 0.050220 0.837472 0.354030
v -0.050220 0.837472 0.354030
v -0.050220 0.837472 -0.354030
v 0.050220 0.837472 -0.354030
v -0.137203 0.812472 0.331556
v 0.137203 0.812472 0.331556
v -0.050220 0.812472 0.354030
v 0.050220 0.812472 0.354030
v 0.050220 0.812472 -0.354030
v -0.050220 0.812472 -0.354030
v -0.137203 0.837472 0.331556
v -0.137203 0.812472 0.330165
v 0.137203 0.812472 0.330165
v 0.137203 0.837472 0.330165
v 0.331237 0.837472 0.135310
v 0.331237 0.812472 0.135310
v 0.253518 0.814013 0.251913
v 0.253518 0.839013 0.251913
v -0.331237 0.837472 0.135310
v -0.331237 0.812472 0.135310
v -0.358528 0.814939 -0.001893
v -0.358528 0.839939 -0.001893
v -0.253518 0.839191 0.251913
v -0.253518 0.812472 0.254590
v 0.137203 0.812472 -0.331556
v 0.137203 0.837472 -0.330165
v 0.253518 0.812472 -0.251913
v 0.253518 0.837472 -0.251913
v 0.331237 0.837472 -0.138807
v 0.331237 0.812472 -0.138807
v 0.358528 0.812472 0.001893
v 0.358528 0.837472 0.001893
v -0.331237 0.839939 -0.135310
v -0.331237 0.814939 -0.135310
v -0.253518 0.812472 -0.251913
v -0.253518 0.837472 -0.251913
v -0.137203 0.812472 -0.331556
v -0.137203 0.835167 -0.330165
v -0.254093 0.837472 0.001893
v -0.041258 0.837472 0.001893
v -0.254093 0.812472 0.001893
v -0.041258 0.812472 0.001893
v -0.254093 0.837472 0.135310
v -0.041258 0.837472 0.135310
v -0.254093 0.812472 0.135310
v -0.041258 0.812472 0.135310
v 0.241965 0.837472 -0.135310
v 0.030810 0.837472 -0.135310
v 0.241965 0.812472 -0.135310
v 0.030810 0.812472 -0.135310
v 0.030810 0.812472 -0.001893
v 0.241965 0.812472 -0.001893
v 0.030810 0.837472 -0.001893
v 0.241965 0.837472 -0.001893
v 0.023224 0.837472 0.138807
v 0.180264 0.837472 0.138807
v 0.023224 0.812472 0.138807
v 0.180264 0.812472 0.138807
v 0.023224 0.812472 0.251913
v 0.180264 0.812472 0.251913
v 0.023224 0.837472 0.251913
v 0.180264 0.837472 0.251913
v -0.081154 0.812472 0.330165
v 0.107446 0.812472 0.330165
v -0.081154 0.837472 0.330165
v 0.107446 0.837472 0.330165
v -0.081154 0.837472 0.254590
v 0.107446 0.837472 0.254590
v -0.081154 0.812472 0.254590
v 0.107446 0.812472 0.254590
v -0.146189 0.816120 -0.251913
v 0.183228 0.812472 -0.251913
v -0.146189 0.841120 -0.251913
v 0.183228 0.837472 -0.251913
v 0.183228 0.837472 -0.138807
v -0.146189 0.841120 -0.138807
v 0.183228 0.812472 -0.138807
v -0.146189 0.816120 -0.138807
v -0.097680 0.812472 -0.330165
v 0.097680 0.814513 -0.330165
v -0.097680 0.837472 -0.330165
v 0.097680 0.839513 -0.330165
v -0.097680 0.812472 -0.254590
v 0.097680 0.814513 -0.254590
v -0.097680 0.837472 -0.254590
v 0.097680 0.839513 -0.254590
v 0.352923 0.034375 0.001863
v 0.249555 0.031950 0.250610
v 0.135058 0.031949 0.326372
v 0.135058 0.031950 -0.326373
v 0.249555 0.031950 -0.250610
v -0.135058 0.031950 -0.325003
v -0.135058 0.031950 0.326372
v -0.352923 0.031950 -0.001864
v 0.326059 0.030409 -0.136638
v -0.249554 0.034255 0.250610
v -0.326059 0.031950 0.136637
v 0.326059 0.034375 0.133194
v -0.249554 0.031950 -0.250610
v -0.326059 0.030231 -0.136638
v 0.352923 0.059375 0.001863
v 0.249555 0.056949 0.250610
v 0.135058 0.056949 0.325003
v 0.249555 0.056950 -0.250610
v -0.135058 0.059255 0.325003
v -0.352923 0.056950 -0.001863
v 0.326059 0.055409 -0.136638
v -0.249554 0.059255 0.250610
v -0.326059 0.056950 0.136637
v 0.326059 0.059375 0.133194
v -0.249554 0.055231 -0.247975
v -0.326059 0.055231 -0.136638
v 0.049435 0.031950 -0.348496
v -0.049435 0.031950 -0.348496
v -0.049435 0.031949 0.348496
v 0.049435 0.031949 0.348496
v -0.135058 0.056950 -0.326373
v 0.135058 0.056950 -0.326373
v -0.049435 0.056950 -0.348496
v 0.049435 0.056950 -0.348496
v 0.049435 0.056949 0.348496
v -0.049435 0.056949 0.348496
v -0.135058 0.031950 -0.326373
v -0.135058 0.056950 -0.325003
v 0.135058 0.056950 -0.325003
v 0.135058 0.031950 -0.325003
v 0.326059 0.031950 -0.133195
v 0.326059 0.056950 -0.133195
v 0.249555 0.055409 -0.247975
v 0.249555 0.030409 -0.247975
v -0.326059 0.031950 -0.133195
v -0.326059 0.056950 -0.133195
v -0.352923 0.054482 0.001863
v -0.352923 0.029482 0.001863
v -0.249554 0.030231 -0.247975
v -0.249554 0.056950 -0.250610
v 0.135058 0.056949 0.326372
v 0.135058 0.031949 0.325003
v 0.249555 0.056949 0.247975
v 0.249555 0.031950 0.247975
v 0.326059 0.031949 0.136637
v 0.326059 0.056949 0.136637
v 0.352923 0.056950 -0.001863
v 0.352923 0.031950 -0.001864
v -0.326059 0.029482 0.133194
v -0.326059 0.054482 0.133194
v -0.249554 0.056949 0.247975
v -0.249554 0.031950 0.247975
v -0.135058 0.056949 0.326372
v -0.135058 0.034255 0.325003
v -0.169745 0.028728 -0.001864
v 0.239587 0.028302 -0.001864
v -0.169745 0.053728 -0.001863
v 0.239587 0.053302 -0.001863
v -0.169745 0.028728 -0.133195
v 0.239587 0.028302 -0.133195
v -0.169745 0.053728 -0.133195
v 0.239587 0.053302 -0.133195
v 0.129981 0.031949 0.133194
v -0.230200 0.031950 0.133194
v 0.129981 0.056949 0.133194
v -0.230200 0.056950 0.133194
v -0.230200 0.056950 0.001863
v 0.129981 0.056950 0.001863
v -0.230200 0.031950 0.001863
v 0.129981 0.031950 0.001863
v -0.051529 0.031950 -0.136638
v 0.143903 0.031950 -0.136638
v -0.051529 0.056950 -0.136638
v 0.143903 0.056950 -0.136638
v -0.051529 0.056950 -0.247975
v 0.143903 0.056950 -0.247975
v -0.051529 0.031950 -0.247975
v 0.143903 0.031950 -0.247975
v -0.096153 0.056950 -0.325003
v 0.096153 0.056950 -0.325003
v -0.096153 0.031950 -0.325003
v 0.096153 0.031950 -0.325003
v -0.096153 0.031950 -0.250610
v 0.096153 0.031950 -0.250610
v -0.096153 0.056950 -0.250610
v 0.096153 0.056950 -0.250610
v -0.173463 0.053302 0.247975
v 0.192953 0.056949 0.247975
v -0.173463 0.028302 0.247975
v 0.192953 0.031950 0.247975
v 0.192953 0.031949 0.136637
v -0.173463 0.028302 0.136637
v 0.192953 0.056949 0.136637
v -0.173463 0.053302 0.136637
v -0.028040 0.054454 0.325003
v 0.082496 0.054844 0.325003
v -0.028040 0.029454 0.325003
v 0.082496 0.029844 0.325003
v -0.028040 0.054454 0.250610
v 0.082496 0.054845 0.250610
v -0.028040 0.029454 0.250610
v 0.082496 0.029845 0.250610
vn -0.3733 -0.2205 0.9011
vn -0.6897 -0.2205 0.6897
vn -0.9011 -0.2205 0.3733
vn -0.9754 -0.2205 -0.0000
vn -0.1559 0.9754 -0.1559
vn -0.0844 0.9754 -0.2037
vn 0.2037 -0.9754 0.0844
vn 0.2205 -0.9754 -0.0000
vn 0.3733 0.2205 0.9011
vn -0.0000 0.2205 0.9754
vn -0.0000 -0.9754 0.2205
vn 0.0844 -0.9754 0.2037
vn -0.0000 -0.2205 0.9754
vn 0.3733 0.2205 -0.9011
vn 0.6897 0.2205 -0.6897
vn 0.9011 0.2205 -0.3733
vn 0.9754 0.2205 -0.0000
vn -0.2205 0.9754 -0.0000
vn -0.2037 0.9754 -0.0844
vn -0.3733 -0.2205 -0.9011
vn -0.0000 -0.2205 -0.9754
vn -0.9011 -0.2205 -0.3733
vn -0.6897 -0.2205 -0.6897
vn -0.0000 0.2205 -0.9754
vn 0.6897 0.2205 0.6897
vn -0.0000 0.9754 -0.2205
vn 0.2037 -0.9754 -0.0844
vn 0.1559 -0.9754 -0.1559
vn -0.0844 0.9754 0.2037
vn -0.1559 0.9754 0.1559
vn 0.0844 -0.9754 -0.2037
vn -0.0000 -0.9754 -0.2205
vn 0.1559 -0.9754 0.1559
vn 0.9011 0.2205 0.3733
vn -0.0000 0.9754 0.2205
vn -0.2037 0.9754 0.0844
vn 0.3733 -0.2205 -0.9011
vn 0.6897 -0.2205 -0.6897
vn 0.9011 -0.2205 -0.3733
vn 0.9754 -0.2205 -0.0000
vn 0.1559 0.9754 0.1559
vn 0.0844 0.9754 0.2037
vn -0.2037 -0.9754 -0.0844
vn -0.2205 -0.9754 -0.0000
vn -0.3733 0.2205 -0.9011
vn -0.0844 -0.9754 -0.2037
vn -0.3733 0.2205 0.9011
vn -0.6897 0.2205 0.6897
vn -0.9011 0.2205 0.3733
vn -0.9754 0.2205 -0.0000
vn 0.2205 0.9754 -0.0000
vn 0.2037 0.9754 0.0844
vn 0.3733 -0.2205 0.9011
vn 0.9011 -0.2205 0.3733
vn 0.6897 -0.2205 0.6897
vn -0.6897 0.2205 -0.6897
vn -0.2037 -0.9754 0.0844
vn -0.1559 -0.9754 0.1559
vn 0.0844 0.9754 -0.2037
vn 0.1559 0.9754 -0.1559
vn -0.0844 -0.9754 0.2037
vn -0.1559 -0.9754 -0.1559
vn -0.9011 0.2205 -0.3733
vn 0.2037 0.9754 -0.0844
vn -0.1951 -0.0000 -0.9808
vn -0.1926 0.1604 -0.9681
vn -0.1890 0.2474 -0.9503
vn -0.5556 -0.0000 -0.8315
vn -0.5484 0.1604 -0.8207
vn -0.5383 0.2474 -0.8056
vn -0.8315 -0.0000 -0.5556
vn -0.8207 0.1604 -0.5484
vn -0.8056 0.2474 -0.5383
vn -0.9808 -0.0000 -0.1951
vn -0.9681 0.1604 -0.1926
vn -0.9503 0.2474 -0.1890
vn 0.9808 -0.0000 -0.1951
vn 0.9681 0.1604 -0.1926
vn 0.9503 0.2474 -0.1890
vn 0.8315 -0.0000 -0.5556
vn 0.8207 0.1604 -0.5484
vn 0.8056 0.2474 -0.5383
vn 0.5556 -0.0000 -0.8315
vn 0.5484 0.1604 -0.8207
vn 0.5383 0.2474 -0.8056
vn 0.1951 -0.0000 -0.9808
vn 0.1926 0.1604 -0.9681
vn 0.1890 0.2474 -0.9503
vn 0.1951 -0.0000 0.9808
vn 0.1926 0.1604 0.9681
vn 0.1890 0.2474 0.9503
vn 0.5556 -0.0000 0.8315
vn 0.5484 0.1604 0.8207
vn 0.5383 0.2474 0.8056
vn 0.8315 -0.0000 0.5556
vn 0.8207 0.1604 0.5484
vn 0.8056 0.2474 0.5383
vn 0.9808 -0.0000 0.1951
vn 0.9681 0.1604 0.1926
vn 0.9503 0.2474 0.1890
vn -0.1890 0.2474 0.9503
vn -0.1926 0.1604 0.9681
vn -0.1951 -0.0000 0.9808
vn -0.5383 0.2474 0.8056
vn -0.5484 0.1604 0.8207
vn -0.5556 -0.0000 0.8315
vn -0.8056 0.2474 0.5383
vn -0.8207 0.1604 0.5484
vn -0.8315 -0.0000 0.5556
vn -0.9503 0.2474 0.1890
vn -0.9681 0.1604 0.1926
vn -0.9808 -0.0000 0.1951
vn -0.9681 -0.1604 -0.1926
vn -0.9503 -0.2474 -0.1890
vn -0.8207 -0.1604 -0.5484
vn -0.8056 -0.2474 -0.5383
vn -0.5484 -0.1604 -0.8207
vn -0.5383 -0.2474 -0.8056
vn -0.1926 -0.1604 -0.9681
vn -0.1890 -0.2474 -0.9503
vn -0.1926 -0.1604 0.9681
vn -0.1890 -0.2474 0.9503
vn -0.5484 -0.1604 0.8207
vn -0.5383 -0.2474 0.8056
vn -0.8207 -0.1604 0.5484
vn -0.8056 -0.2474 0.5383
vn -0.9681 -0.1604 0.1926
vn -0.9503 -0.2474 0.1890
vn 0.9681 -0.1604 0.1926
vn 0.9503 -0.2474 0.1890
vn 0.8207 -0.1604 0.5484
vn 0.8056 -0.2474 0.5383
vn 0.5484 -0.1604 0.8207
vn 0.5383 -0.2474 0.8056
vn 0.1926 -0.1604 0.9681
vn 0.1890 -0.2474 0.9503
vn 0.9503 -0.2474 -0.1890
vn 0.9681 -0.1604 -0.1926
vn 0.8056 -0.2474 -0.5383
vn 0.8207 -0.1604 -0.5484
vn 0.5383 -0.2474 -0.8056
vn 0.5484 -0.1604 -0.8207
vn 0.1890 -0.2474 -0.9503
vn 0.1926 -0.1604 -0.9681
vn 0.1926 -0.1603 0.9681
vn 0.1890 -0.2470 0.9504
vn 0.5484 -0.1603 0.8207
vn 0.5384 -0.2470 0.8057
vn 0.8207 -0.1602 0.5484
vn 0.8057 -0.2469 0.5384
vn 0.9681 -0.1603 0.1926
vn 0.9504 -0.2470 0.1890
vn -0.9681 -0.1603 0.1926
vn -0.9504 -0.2469 0.1890
vn -0.8207 -0.1603 0.5484
vn -0.8057 -0.2470 0.5384
vn -0.5484 -0.1602 0.8207
vn -0.5384 -0.2469 0.8057
vn -0.1926 -0.1602 0.9681
vn -0.1891 -0.2469 0.9504
vn -0.1926 -0.1603 -0.9681
vn -0.1890 -0.2470 -0.9504
vn -0.5484 -0.1603 -0.8207
vn -0.5383 -0.2470 -0.8057
vn -0.8207 -0.1602 -0.5484
vn -0.8057 -0.2469 -0.5384
vn -0.9681 -0.1603 -0.1926
vn -0.9504 -0.2470 -0.1890
vn 0.1890 -0.2469 -0.9504
vn 0.1926 -0.1603 -0.9681
vn 0.5384 -0.2470 -0.8057
vn 0.5484 -0.1603 -0.8207
vn 0.8057 -0.2468 -0.5384
vn 0.8207 -0.1602 -0.5484
vn 0.9504 -0.2470 -0.1890
vn 0.9681 -0.1603 -0.1926
vn 0.9681 0.1603 0.1926
vn 0.9504 0.2470 0.1890
vn 0.8207 0.1603 0.5484
vn 0.8057 0.2470 0.5384
vn 0.5484 0.1602 0.8207
vn 0.5384 0.2469 0.8057
vn 0.1926 0.1603 0.9681
vn 0.1890 0.2470 0.9504
vn 0.1926 0.1603 -0.9681
vn 0.1890 0.2469 -0.9504
vn 0.5484 0.1603 -0.8207
vn 0.5384 0.2470 -0.8057
vn 0.8207 0.1602 -0.5484
vn 0.8057 0.2469 -0.5384
vn 0.9681 0.1603 -0.1926
vn 0.9504 0.2469 -0.1891
vn -0.9681 0.1603 -0.1926
vn -0.9504 0.2470 -0.1890
vn -0.8207 0.1603 -0.5484
vn -0.8057 0.2470 -0.5383
vn -0.5484 0.1602 -0.8207
vn -0.5384 0.2469 -0.8057
vn -0.1926 0.1603 -0.9681
vn -0.1890 0.2470 -0.9504
vn -0.9504 0.2469 0.1890
vn -0.9681 0.1603 0.1926
vn -0.8057 0.2470 0.5384
vn -0.8207 0.1603 0.5484
vn -0.5384 0.2468 0.8057
vn -0.5484 0.1602 0.8207
vn -0.1890 0.2470 0.9504
vn -0.1926 0.1603 0.9681
vn -0.1851 -0.0479 0.9816
vn -0.1895 -0.0314 0.9814
vn 0.9814 0.0314 0.1895
vn 0.9816 0.0479 0.1851
vn 0.8249 0.0479 0.5632
vn 0.8279 0.0314 0.5599
vn -0.8308 -0.0000 -0.5566
vn -0.8278 -0.0313 -0.5602
vn 0.5506 0.0314 0.8342
vn 0.5546 -0.0000 0.8321
vn 0.5632 -0.0479 0.8249
vn 0.5599 -0.0314 0.8279
vn -0.1375 0.9689 0.2057
vn -0.8246 -0.0477 -0.5637
vn 0.9792 0.0314 0.2005
vn 0.9805 -0.0000 0.1963
vn 0.2057 -0.9689 -0.1375
vn 0.1895 0.0314 0.9814
vn 0.1939 -0.0000 0.9810
vn -0.8360 -0.0479 -0.5466
vn -0.8342 -0.0314 -0.5506
vn -0.8342 0.0314 -0.5506
vn -0.8360 0.0479 -0.5466
vn -0.5506 0.0314 -0.8342
vn -0.5546 -0.0000 -0.8321
vn -0.8321 -0.0000 -0.5546
vn 0.9816 0.0479 -0.1851
vn 0.9814 0.0314 -0.1895
vn -0.2427 0.9689 -0.0483
vn -0.1963 -0.0000 -0.9805
vn -0.2005 0.0314 -0.9792
vn -0.5504 -0.0313 0.8343
vn -0.5546 -0.0000 0.8321
vn 0.1375 0.9689 -0.2057
vn -0.5599 0.0314 -0.8279
vn -0.5632 0.0478 -0.8249
vn 0.9810 -0.0000 -0.1939
vn 0.9814 -0.0314 -0.1895
vn 0.1375 0.9689 0.2057
vn -0.5466 0.0479 -0.8360
vn -0.1939 -0.0000 0.9810
vn -0.1895 0.0314 0.9814
vn 0.8342 0.0314 0.5506
vn 0.8360 0.0478 0.5466
vn -0.0483 -0.9689 -0.2427
vn 0.2057 0.9689 0.1375
vn 0.2006 -0.0314 0.9792
vn 0.1963 -0.0000 0.9805
vn -0.8280 -0.0315 0.5599
vn -0.8308 -0.0000 0.5566
vn -0.8280 -0.0314 0.5599
vn -0.8279 0.0314 0.5599
vn -0.2269 -0.9620 0.1516
vn 0.8360 0.0479 -0.5466
vn 0.8342 0.0314 -0.5506
vn -0.1895 0.0314 -0.9814
vn -0.1939 -0.0000 -0.9810
vn 0.8321 -0.0000 -0.5546
vn 0.2251 -0.9627 0.1504
vn 0.2427 0.9689 0.0483
vn 0.5504 -0.0313 0.8343
vn 0.5461 -0.0477 0.8364
vn -0.1851 0.0479 0.9816
vn 0.1338 -0.9706 0.2002
vn -0.2427 0.9689 0.0483
vn 0.9792 -0.0314 0.2006
vn 0.9776 -0.0478 0.2050
vn 0.9792 -0.0313 0.2006
vn -0.9792 -0.0314 0.2005
vn -0.9805 -0.0000 0.1963
vn -0.5461 -0.0477 0.8363
vn -0.8360 0.0479 0.5466
vn -0.8342 0.0314 0.5506
vn 0.0483 -0.9689 0.2427
vn -0.2047 0.0479 0.9777
vn -0.2005 0.0314 0.9792
vn -0.9810 -0.0000 -0.1939
vn -0.9814 0.0314 -0.1895
vn 0.9816 -0.0479 -0.1851
vn -0.1375 0.9689 -0.2057
vn 0.0511 -0.9651 -0.2570
vn -0.2057 0.9689 0.1375
vn 0.2005 0.0314 0.9792
vn 0.2047 0.0479 0.9777
vn 0.5461 -0.0477 -0.8364
vn 0.5504 -0.0313 -0.8343
vn 0.2057 0.9689 -0.1375
vn 0.8308 -0.0000 0.5566
vn 0.8279 -0.0314 0.5599
vn 0.9777 -0.0479 -0.2047
vn 0.9792 -0.0314 -0.2005
vn 0.5632 0.0480 -0.8249
vn 0.5599 0.0315 -0.8279
vn 0.5599 0.0314 -0.8279
vn -0.2261 -0.9623 -0.1511
vn 0.2047 0.0479 -0.9777
vn 0.2005 0.0314 -0.9792
vn 0.1517 -0.9620 -0.2270
vn -0.2057 0.9689 -0.1375
vn -0.1375 -0.9689 0.2057
vn -0.0483 0.9689 -0.2427
vn 0.5566 -0.0000 0.8308
vn 0.5599 0.0314 0.8279
vn -0.8250 -0.0480 0.5631
vn 0.0483 0.9689 -0.2427
vn -0.9777 -0.0479 0.2047
vn 0.0483 0.9689 0.2427
vn 0.8321 -0.0000 0.5546
vn -0.1375 -0.9689 -0.2057
vn 0.5466 0.0478 0.8360
vn -0.2047 -0.0479 -0.9777
vn -0.2005 -0.0314 -0.9792
vn -0.2427 -0.9689 -0.0483
vn 0.2427 0.9689 -0.0483
vn -0.2427 -0.9689 0.0483
vn 0.1895 0.0314 -0.9814
vn 0.1851 0.0479 -0.9816
vn 0.2005 -0.0314 -0.9792
vn 0.2047 -0.0479 -0.9777
vn 0.8343 -0.0313 0.5504
vn 0.2427 -0.9689 0.0483
vn 0.5632 0.0479 0.8249
vn 0.1963 -0.0000 -0.9805
vn -0.9777 0.0479 -0.2047
vn -0.9792 0.0314 -0.2005
vn 0.8364 -0.0477 0.5461
vn 0.5546 -0.0000 -0.8321
vn 0.5506 0.0314 -0.8342
vn -0.9816 -0.0478 -0.1848
vn -0.9814 -0.0314 -0.1893
vn -0.9814 -0.0313 -0.1894
vn -0.0508 -0.9655 0.2552
vn -0.5566 -0.0000 0.8308
vn -0.5602 -0.0313 0.8278
vn -0.9792 0.0314 0.2005
vn -0.9777 0.0479 0.2047
vn -0.9814 -0.0314 0.1895
vn -0.9816 -0.0479 0.1851
vn -0.2005 -0.0314 0.9792
vn -0.2047 -0.0479 0.9777
vn 0.8249 -0.0479 0.5632
vn -0.1963 -0.0000 0.9805
vn -0.1851 0.0479 -0.9816
vn 0.9805 -0.0000 -0.1963
vn 0.8308 -0.0000 -0.5566
vn 0.8279 0.0314 -0.5599
vn -0.8342 -0.0314 0.5506
vn -0.8360 -0.0479 0.5466
vn -0.9805 -0.0000 -0.1963
vn -0.5599 0.0314 0.8279
vn -0.8321 -0.0000 0.5546
vn 0.9792 0.0314 -0.2005
vn 0.9777 0.0479 -0.2047
vn 0.5602 -0.0313 -0.8278
vn 0.5637 -0.0477 -0.8246
vn -0.5632 0.0479 0.8249
vn 0.5566 -0.0000 -0.8308
vn 0.5466 0.0479 -0.8360
vn 0.8279 -0.0314 -0.5599
vn 0.8341 -0.0315 -0.5507
vn 0.8359 -0.0480 -0.5467
vn 0.8341 -0.0314 -0.5507
vn -0.9810 -0.0000 0.1939
vn -0.8249 0.0479 0.5632
vn 0.8249 -0.0479 -0.5632
vn -0.9792 -0.0314 -0.2007
vn -0.9776 -0.0478 -0.2050
vn -0.9792 -0.0313 -0.2007
vn 0.9814 -0.0314 0.1893
vn 0.9810 -0.0000 0.1939
vn 0.9814 -0.0313 0.1893
vn -0.5506 0.0315 0.8342
vn -0.5466 0.0480 0.8360
vn -0.5506 0.0314 0.8342
vn -0.9814 0.0314 0.1895
vn 0.9816 -0.0478 0.1847
vn -0.8279 0.0314 -0.5599
vn -0.2046 0.0479 -0.9777
vn 0.1895 -0.0314 -0.9814
vn 0.1939 -0.0000 -0.9810
vn -0.9816 0.0479 0.1851
vn -0.5637 -0.0477 -0.8246
vn -0.5602 -0.0313 -0.8278
vn -0.5566 -0.0000 -0.8308
vn 0.1851 0.0479 0.9816
vn 0.1851 -0.0479 -0.9816
vn -0.5637 -0.0477 0.8246
vn 0.1895 -0.0314 0.9814
vn -0.8249 0.0478 -0.5632
vn -0.1894 -0.0314 -0.9814
vn 0.9777 0.0479 0.2047
vn 0.1851 -0.0479 0.9816
vn -0.9816 0.0479 -0.1851
vn -0.5506 -0.0314 -0.8342
vn 0.2049 -0.0478 0.9776
vn -0.0483 0.9689 0.2427
vn 0.8249 0.0479 -0.5632
vn -0.1848 -0.0478 -0.9816
vn -0.5466 -0.0479 -0.8360
vn 0.2514 -0.9666 -0.0500
vn -0.0000 1.0000 -0.0000
vn -0.0000 -1.0000 -0.0000
vn 0.8242 -0.0000 0.5663
vn -0.9797 -0.0000 0.2004
vn 0.5448 -0.0000 0.8385
vn -0.8242 -0.0000 0.5663
vn -0.0000 -0.0000 1.0000
vn -0.5448 -0.0000 0.8385
vn 0.5448 -0.0000 -0.8385
vn 0.9797 -0.0000 -0.2004
vn 0.8242 -0.0000 -0.5663
vn -0.8242 -0.0000 -0.5663
vn -0.9797 -0.0000 -0.2004
vn -0.5448 -0.0000 -0.8385
vn 0.9797 -0.0000 0.2004
vn -0.0000 -0.0000 -1.0000
vn 0.0069 -1.0000 0.0024
vn 0.0137 -0.9999 0.0047
vn -0.0118 -0.9999 0.0012
vn -0.0236 -0.9997 0.0024
vn -0.0069 1.0000 -0.0043
vn -0.0249 0.9997 -0.0086
vn -0.0055 -1.0000 -0.0000
vn -0.0052 -1.0000 0.0080
vn -0.0209 -0.9997 0.0161
vn -0.0170 0.9998 -0.0091
vn -0.0236 0.9996 -0.0182
vn -0.2502 -0.0000 -0.9682
vn -0.1261 -0.0000 -0.9920
vn 0.1261 -0.0000 -0.9920
vn 0.2502 -0.0000 -0.9682
vn -0.2502 -0.0000 0.9682
vn -0.1261 -0.0000 0.9920
vn 0.1261 -0.0000 0.9920
vn 0.2502 -0.0000 0.9682
vn -0.0054 -1.0000 0.0019
vn -0.0027 -1.0000 0.0009
vn -0.0066 -1.0000 -0.0007
vn -0.0033 -1.0000 -0.0003
vn 0.0033 1.0000 0.0003
vn 0.0066 1.0000 0.0007
vn 0.0236 0.9997 -0.0024
vn 0.0118 0.9999 -0.0012
vn 0.0027 1.0000 -0.0009
vn 0.0054 1.0000 -0.0019
vn -0.0137 0.9999 -0.0047
vn -0.0069 1.0000 -0.0024
vn 0.0069 -1.0000 0.0043
vn 0.0249 -0.9997 0.0086
vn 0.0055 1.0000 -0.0000
vn 0.0052 1.0000 -0.0080
vn 0.0209 0.9997 -0.0161
vn 0.0170 -0.9998 0.0091
vn 0.0236 -0.9996 0.0182
vn 0.0054 1.0000 -0.0018
vn 0.0107 0.9999 -0.0037
vn -0.0100 -0.9999 -0.0010
vn -0.0190 -0.9998 -0.0019
vn -0.0177 0.9998 0.0019
vn -0.0365 0.9993 0.0037
vn 0.0113 -0.9999 -0.0012
vn 0.0226 -0.9997 -0.0023
vn -0.0058 1.0000 -0.0006
vn -0.0116 0.9999 -0.0012
vn -0.0110 -0.9999 0.0055
vn -0.0319 -0.9994 0.0110
vn -0.0050 1.0000 -0.0000
vn -0.0113 0.9999 -0.0074
vn -0.0192 0.9997 -0.0147
vn 0.0292 0.9993 -0.0225
vn 0.0128 0.9999 -0.0112
vn -0.0073 1.0000 -0.0025
vn -0.0036 1.0000 -0.0012
vn -0.0128 -0.9999 0.0112
vn -0.0292 -0.9993 0.0225
vn 0.0100 0.9999 0.0010
vn 0.0190 0.9998 0.0019
vn 0.0177 -0.9998 -0.0019
vn 0.0365 -0.9993 -0.0037
vn -0.0113 0.9999 0.0012
vn -0.0226 0.9997 0.0023
vn 0.0058 -1.0000 0.0006
vn 0.0116 -0.9999 0.0012
vn 0.0036 -1.0000 0.0012
vn 0.0073 -1.0000 0.0025
vn -0.0107 -0.9999 0.0037
vn -0.0054 -1.0000 0.0018
vn 0.0110 0.9999 -0.0055
vn 0.0319 0.9994 -0.0110
vn 0.0050 -1.0000 -0.0000
vn 0.0192 -0.9997 0.0147
vn 0.0113 -0.9999 0.0074
vt 0.066838 0.060660
vt 0.083749 0.060822
vt 0.082769 0.117816
vt 0.066036 0.117469
vt 0.080815 0.171667
vt 0.065889 0.171421
vt 0.080093 0.222563
vt 0.065089 0.222344
vt 0.064996 0.318093
vt 0.065740 0.366601
vt 0.062499 0.366615
vt 0.061991 0.318084
vt 0.044582 0.270881
vt 0.043236 0.222509
vt 0.046429 0.222479
vt 0.047656 0.270882
vt 0.062556 0.415085
vt 0.047785 0.415354
vt 0.047676 0.366692
vt 0.044745 0.415408
vt 0.044421 0.366722
vt 0.067827 0.002573
vt 0.085309 0.002286
vt 0.063084 0.060620
vt 0.062563 0.117471
vt 0.045307 0.117551
vt 0.045904 0.060805
vt 0.062592 0.171417
vt 0.046547 0.171349
vt 0.061971 0.222346
vt 0.065163 0.270859
vt 0.062340 0.270858
vt 0.079549 0.366557
vt 0.079792 0.415035
vt 0.065522 0.415049
vt 0.078845 0.270885
vt 0.079479 0.318028
vt 0.064372 0.001819
vt 0.045465 0.000680
vt 0.046995 0.318088
vt 0.043175 0.171374
vt 0.041759 0.117565
vt 0.042153 0.060796
vt 0.041759 0.001423
vt 0.044050 0.318077
vt 0.066142 0.461176
vt 0.079149 0.461075
vt 0.080130 0.505877
vt 0.066528 0.506054
vt 0.080358 0.550930
vt 0.067677 0.551108
vt 0.080980 0.594851
vt 0.067821 0.595014
vt 0.069659 0.679484
vt 0.070798 0.719752
vt 0.068167 0.719794
vt 0.067254 0.679538
vt 0.050557 0.638233
vt 0.048871 0.595436
vt 0.051658 0.595382
vt 0.053268 0.638150
vt 0.069208 0.760989
vt 0.055800 0.761627
vt 0.056117 0.719985
vt 0.053047 0.761063
vt 0.053611 0.720008
vt 0.063459 0.461206
vt 0.063705 0.506079
vt 0.049678 0.506353
vt 0.049490 0.461383
vt 0.064705 0.551148
vt 0.051117 0.551379
vt 0.065265 0.595057
vt 0.069173 0.637923
vt 0.066352 0.637982
vt 0.082727 0.719582
vt 0.084134 0.760493
vt 0.071912 0.760387
vt 0.081210 0.637703
vt 0.082085 0.679217
vt 0.054653 0.679708
vt 0.048255 0.551425
vt 0.046787 0.506383
vt 0.046564 0.461430
vt 0.052025 0.679787
vt 0.017779 0.360943
vt 0.003043 0.361232
vt 0.002303 0.309842
vt 0.017865 0.309768
vt 0.002555 0.258394
vt 0.017272 0.258341
vt 0.001757 0.206709
vt 0.017196 0.206657
vt 0.016756 0.105519
vt 0.016690 0.053764
vt 0.019861 0.053743
vt 0.020165 0.105507
vt 0.038524 0.155996
vt 0.039864 0.206506
vt 0.036581 0.206509
vt 0.035409 0.156011
vt 0.019288 0.001495
vt 0.036337 0.000680
vt 0.035204 0.053774
vt 0.039599 0.001379
vt 0.038569 0.053771
vt 0.017723 0.409748
vt 0.003935 0.409981
vt 0.020920 0.360971
vt 0.021087 0.309781
vt 0.037101 0.309727
vt 0.036356 0.360912
vt 0.020517 0.258349
vt 0.036238 0.258249
vt 0.020604 0.206647
vt 0.016911 0.156093
vt 0.019895 0.156080
vt 0.001433 0.053742
vt 0.000680 0.001700
vt 0.016214 0.002143
vt 0.002440 0.156163
vt 0.001279 0.105630
vt 0.020678 0.409784
vt 0.035219 0.409819
vt 0.036112 0.105502
vt 0.039557 0.258261
vt 0.040400 0.309750
vt 0.039703 0.360987
vt 0.038244 0.409897
vt 0.039394 0.105472
vt 0.015113 0.718868
vt 0.002200 0.718702
vt 0.002597 0.674945
vt 0.015854 0.675167
vt 0.003669 0.631163
vt 0.016204 0.631337
vt 0.003741 0.587172
vt 0.017081 0.587323
vt 0.017682 0.499028
vt 0.017475 0.455125
vt 0.020283 0.455155
vt 0.020440 0.499060
vt 0.036506 0.543442
vt 0.036450 0.587646
vt 0.033617 0.587580
vt 0.033666 0.543410
vt 0.033932 0.455209
vt 0.036687 0.455258
vt 0.013846 0.762661
vt 0.000680 0.762773
vt 0.017783 0.718921
vt 0.018600 0.675231
vt 0.032212 0.675455
vt 0.030797 0.719086
vt 0.018967 0.631400
vt 0.032368 0.631600
vt 0.019850 0.587383
vt 0.017233 0.543093
vt 0.020009 0.543139
vt 0.004764 0.455111
vt 0.004637 0.543013
vt 0.004367 0.499013
vt 0.016762 0.763326
vt 0.031226 0.764197
vt 0.033974 0.499285
vt 0.035193 0.631669
vt 0.035020 0.675527
vt 0.033630 0.719125
vt 0.034208 0.763590
vt 0.036808 0.499318
vt 0.385742 0.145229
vt 0.386823 0.073533
vt 0.433147 0.073533
vt 0.434228 0.145229
vt 0.390039 0.008185
vt 0.429931 0.008185
vt 0.599130 0.149828
vt 0.600211 0.078131
vt 0.646536 0.078131
vt 0.647617 0.149828
vt 0.603654 0.008185
vt 0.643093 0.008185
vt 0.136514 0.148835
vt 0.137595 0.077139
vt 0.183919 0.077139
vt 0.185000 0.148836
vt 0.140988 0.008196
vt 0.180526 0.008196
vt 0.435588 0.147277
vt 0.436669 0.075581
vt 0.482993 0.075581
vt 0.484074 0.147277
vt 0.439986 0.008185
vt 0.479676 0.008185
vt 0.599131 0.434291
vt 0.600212 0.362594
vt 0.646536 0.362594
vt 0.647617 0.434290
vt 0.603378 0.298259
vt 0.643370 0.298259
vt 0.286051 0.148044
vt 0.287132 0.076348
vt 0.333456 0.076348
vt 0.334537 0.148044
vt 0.290487 0.008185
vt 0.330102 0.008185
vt 0.762670 0.709608
vt 0.763751 0.637912
vt 0.810076 0.637912
vt 0.811157 0.709608
vt 0.766952 0.572878
vt 0.806875 0.572878
vt 0.549285 0.144237
vt 0.550366 0.072540
vt 0.596690 0.072540
vt 0.597771 0.144237
vt 0.553533 0.008191
vt 0.593523 0.008191
vt 0.186360 0.149365
vt 0.187441 0.077669
vt 0.233765 0.077669
vt 0.234846 0.149365
vt 0.190860 0.008185
vt 0.230346 0.008185
vt 0.648976 0.150134
vt 0.650057 0.078437
vt 0.696381 0.078437
vt 0.697462 0.150134
vt 0.653515 0.008183
vt 0.692924 0.008183
vt 0.086668 0.145971
vt 0.087749 0.074275
vt 0.134074 0.074275
vt 0.135155 0.145971
vt 0.091002 0.008195
vt 0.130822 0.008195
vt 0.236205 0.149088
vt 0.237286 0.077391
vt 0.283611 0.077391
vt 0.284692 0.149088
vt 0.240692 0.008185
vt 0.280205 0.008185
vt 0.593382 0.298261
vt 0.596690 0.365474
vt 0.550366 0.365474
vt 0.553674 0.298261
vt 0.597771 0.437171
vt 0.549285 0.437171
vt 0.379886 0.008185
vt 0.383302 0.077586
vt 0.336977 0.077586
vt 0.340393 0.008185
vt 0.384383 0.149283
vt 0.335896 0.149283
vt 0.757068 0.574953
vt 0.760230 0.639201
vt 0.713906 0.639201
vt 0.717068 0.574953
vt 0.761311 0.710897
vt 0.712825 0.710897
vt 0.757181 0.298256
vt 0.760230 0.360215
vt 0.713906 0.360215
vt 0.716955 0.298256
vt 0.761311 0.431911
vt 0.712825 0.431911
vt 0.482993 0.218974
vt 0.436669 0.218974
vt 0.479777 0.284321
vt 0.439885 0.284321
vt 0.183919 0.220532
vt 0.137595 0.220532
vt 0.180477 0.290478
vt 0.141037 0.290478
vt 0.646536 0.221525
vt 0.600212 0.221525
vt 0.643899 0.275104
vt 0.602848 0.275104
vt 0.433147 0.216926
vt 0.386823 0.216926
vt 0.429830 0.284321
vt 0.390140 0.284321
vt 0.596690 0.508868
vt 0.550366 0.508868
vt 0.593821 0.567171
vt 0.553235 0.567171
vt 0.383302 0.220980
vt 0.336977 0.220980
vt 0.379947 0.289142
vt 0.340332 0.289142
vt 0.760230 0.782594
vt 0.713906 0.782594
vt 0.757767 0.832635
vt 0.716368 0.832635
vt 0.760230 0.503608
vt 0.713906 0.503608
vt 0.757525 0.558571
vt 0.716611 0.558571
vt 0.283611 0.220784
vt 0.237286 0.220784
vt 0.280191 0.290268
vt 0.240706 0.290268
vt 0.134074 0.217668
vt 0.087749 0.217668
vt 0.130329 0.293760
vt 0.091494 0.293760
vt 0.696381 0.221831
vt 0.650057 0.221831
vt 0.693824 0.273791
vt 0.652614 0.273791
vt 0.233765 0.221062
vt 0.187441 0.221062
vt 0.230359 0.290268
vt 0.190847 0.290268
vt 0.603089 0.564461
vt 0.600212 0.505987
vt 0.646536 0.505987
vt 0.643658 0.564461
vt 0.290547 0.289142
vt 0.287132 0.219741
vt 0.333456 0.219741
vt 0.330041 0.289142
vt 0.766188 0.830806
vt 0.763751 0.781305
vt 0.810076 0.781305
vt 0.807640 0.830806
vt 0.553415 0.277892
vt 0.550366 0.215933
vt 0.596690 0.215933
vt 0.593641 0.277892
vt 0.704115 0.428781
vt 0.656319 0.429655
vt 0.657239 0.358535
vt 0.702637 0.357637
vt 0.658379 0.290868
vt 0.701001 0.290931
vt 0.654333 0.716379
vt 0.606494 0.716802
vt 0.606768 0.645608
vt 0.652211 0.645354
vt 0.608496 0.573501
vt 0.650631 0.573813
vt 0.540576 0.433276
vt 0.492774 0.433316
vt 0.494928 0.362248
vt 0.540330 0.362141
vt 0.497477 0.290817
vt 0.539692 0.291601
vt 0.754013 0.141121
vt 0.706182 0.141543
vt 0.706460 0.070371
vt 0.751891 0.070115
vt 0.708064 0.000847
vt 0.750462 0.001177
vt 0.540578 0.715875
vt 0.492784 0.714927
vt 0.494293 0.643778
vt 0.539704 0.644701
vt 0.495901 0.578008
vt 0.538645 0.577962
vt 0.241496 0.441506
vt 0.193701 0.440650
vt 0.195264 0.369671
vt 0.240691 0.370291
vt 0.198221 0.299446
vt 0.240518 0.300549
vt 0.141825 0.727265
vt 0.094024 0.726265
vt 0.095602 0.655091
vt 0.141029 0.656062
vt 0.097325 0.588461
vt 0.140007 0.588461
vt 0.817813 0.429373
vt 0.770016 0.428486
vt 0.771620 0.357472
vt 0.817061 0.358116
vt 0.774362 0.290938
vt 0.817081 0.292100
vt 0.440886 0.436229
vt 0.393090 0.435373
vt 0.394553 0.364255
vt 0.439943 0.365137
vt 0.396425 0.293382
vt 0.438591 0.293320
vt 0.440918 0.723943
vt 0.393077 0.723520
vt 0.395199 0.652491
vt 0.440644 0.652745
vt 0.396798 0.580686
vt 0.438902 0.580375
vt 0.540583 0.140001
vt 0.492776 0.140047
vt 0.493064 0.069033
vt 0.538495 0.068832
vt 0.494656 0.000680
vt 0.537185 0.001036
vt 0.341186 0.440794
vt 0.293396 0.439892
vt 0.294861 0.368794
vt 0.340253 0.369680
vt 0.296720 0.298202
vt 0.338917 0.298140
vt 0.773264 0.000766
vt 0.815691 0.000702
vt 0.816929 0.070362
vt 0.771522 0.069473
vt 0.817856 0.141493
vt 0.770056 0.140630
vt 0.098626 0.302943
vt 0.140789 0.304039
vt 0.141006 0.375034
vt 0.095579 0.374408
vt 0.141805 0.446244
vt 0.094010 0.445383
vt 0.197582 0.585044
vt 0.240335 0.586054
vt 0.240561 0.652068
vt 0.195099 0.651621
vt 0.241569 0.723194
vt 0.193723 0.722825
vt 0.297696 0.584562
vt 0.340689 0.585396
vt 0.340988 0.648742
vt 0.295556 0.648803
vt 0.341226 0.720102
vt 0.293385 0.719779
vt 0.752880 0.212089
vt 0.707476 0.212818
vt 0.751517 0.279737
vt 0.708899 0.279545
vt 0.538552 0.504457
vt 0.493123 0.504302
vt 0.537083 0.575985
vt 0.494969 0.576352
vt 0.653192 0.787427
vt 0.607756 0.788147
vt 0.652385 0.843220
vt 0.608522 0.842988
vt 0.703337 0.500009
vt 0.657905 0.500644
vt 0.703219 0.568983
vt 0.660834 0.570107
vt 0.816276 0.212533
vt 0.770828 0.211911
vt 0.813971 0.272883
vt 0.770611 0.271685
vt 0.140337 0.517369
vt 0.094945 0.516482
vt 0.138541 0.586910
vt 0.096229 0.586972
vt 0.239509 0.794346
vt 0.194028 0.794099
vt 0.239040 0.845735
vt 0.194819 0.846188
vt 0.340047 0.791476
vt 0.294608 0.790809
vt 0.339274 0.847730
vt 0.295545 0.848008
vt 0.339721 0.511892
vt 0.294329 0.511006
vt 0.337845 0.582764
vt 0.295677 0.582825
vt 0.540302 0.210987
vt 0.494877 0.211180
vt 0.538219 0.289195
vt 0.496784 0.288907
vt 0.439662 0.795300
vt 0.394219 0.794581
vt 0.438978 0.848504
vt 0.394951 0.848739
vt 0.439324 0.507202
vt 0.393898 0.506582
vt 0.436298 0.578471
vt 0.394115 0.577378
vt 0.537830 0.846817
vt 0.494464 0.846883
vt 0.493663 0.786124
vt 0.539082 0.787044
vt 0.238167 0.583418
vt 0.195991 0.583480
vt 0.194643 0.511744
vt 0.240034 0.512627
vt 0.139482 0.849197
vt 0.095198 0.849233
vt 0.094830 0.797537
vt 0.140285 0.798494
vt 0.814881 0.563834
vt 0.771889 0.563899
vt 0.770917 0.499634
vt 0.816325 0.500543
vt 0.346667 0.298007
vt 0.347894 0.369554
vt 0.823922 0.500717
vt 0.822538 0.564002
vt 0.088476 0.587101
vt 0.087304 0.516607
vt 0.086668 0.726221
vt 0.088004 0.654902
vt 0.186360 0.794186
vt 0.186360 0.722769
vt 0.248183 0.300537
vt 0.248296 0.370232
vt 0.379947 0.296648
vt 0.340332 0.296648
vt 0.089653 0.588474
vt 0.763216 0.211948
vt 0.762703 0.140593
vt 0.290487 0.000680
vt 0.330102 0.000680
vt 0.286951 0.790947
vt 0.286051 0.719729
vt 0.148453 0.304022
vt 0.148610 0.374974
vt 0.147929 0.517552
vt 0.146190 0.587101
vt 0.187003 0.511871
vt 0.186360 0.440617
vt 0.149154 0.446280
vt 0.386451 0.577395
vt 0.386294 0.506643
vt 0.479777 0.291827
vt 0.439885 0.291827
vt 0.348596 0.720150
vt 0.347656 0.791603
vt 0.546096 0.068641
vt 0.547926 0.139907
vt 0.807640 0.838311
vt 0.766188 0.838311
vt 0.247117 0.794503
vt 0.246724 0.845794
vt 0.385742 0.435338
vt 0.386961 0.364070
vt 0.693824 0.281296
vt 0.652614 0.281296
vt 0.188241 0.583614
vt 0.348531 0.440825
vt 0.347311 0.512076
vt 0.147888 0.798650
vt 0.147153 0.849308
vt 0.390039 0.000680
vt 0.429931 0.000680
vt 0.130329 0.301265
vt 0.091494 0.301265
vt 0.547356 0.644588
vt 0.547929 0.715910
vt 0.448282 0.652633
vt 0.448282 0.723995
vt 0.447270 0.795428
vt 0.717068 0.567436
vt 0.757068 0.567436
vt 0.387143 0.848823
vt 0.386556 0.794706
vt 0.486003 0.786230
vt 0.485433 0.714891
vt 0.385742 0.723466
vt 0.091002 0.000680
vt 0.130822 0.000680
vt 0.280191 0.297773
vt 0.240706 0.297773
vt 0.187455 0.651399
vt 0.189815 0.584973
vt 0.345492 0.582960
vt 0.653515 0.000680
vt 0.692924 0.000680
vt 0.757525 0.566076
vt 0.716611 0.566076
vt 0.763926 0.069292
vt 0.765604 0.000680
vt 0.447583 0.365010
vt 0.448227 0.436262
vt 0.544861 0.001080
vt 0.600854 0.843086
vt 0.600148 0.788279
vt 0.190860 0.000680
vt 0.230346 0.000680
vt 0.701245 0.279702
vt 0.699875 0.212976
vt 0.825201 0.141527
vt 0.823918 0.212772
vt 0.388777 0.293186
vt 0.643899 0.282609
vt 0.602848 0.282609
vt 0.553533 0.000680
vt 0.593523 0.000680
vt 0.757767 0.840141
vt 0.716368 0.840141
vt 0.546680 0.787213
vt 0.545491 0.846970
vt 0.547352 0.291733
vt 0.547924 0.362088
vt 0.330041 0.296648
vt 0.290547 0.296648
vt 0.086668 0.445349
vt 0.087955 0.374157
vt 0.708653 0.290750
vt 0.710231 0.357458
vt 0.489129 0.289089
vt 0.487280 0.211389
vt 0.140988 0.000680
vt 0.180526 0.000680
vt 0.287928 0.582958
vt 0.286688 0.511132
vt 0.766952 0.565361
vt 0.806875 0.565361
vt 0.180477 0.297984
vt 0.141037 0.297984
vt 0.340393 0.000680
vt 0.379886 0.000680
vt 0.429830 0.291827
vt 0.390140 0.291827
vt 0.248845 0.441541
vt 0.247626 0.512811
vt 0.446633 0.580147
vt 0.593641 0.285398
vt 0.553415 0.285398
vt 0.446340 0.293186
vt 0.230359 0.297773
vt 0.190847 0.297773
vt 0.149180 0.727306
vt 0.603654 0.000680
vt 0.643093 0.000680
vt 0.187014 0.846286
vt 0.348352 0.585367
vt 0.348596 0.648703
vt 0.439986 0.000680
vt 0.479676 0.000680
vt 0.643658 0.571967
vt 0.603089 0.571967
vt 0.716955 0.290750
vt 0.757181 0.290750
vt 0.760518 0.212233
vt 0.759277 0.279880
vt 0.287270 0.368609
vt 0.289072 0.298007
vt 0.148682 0.655955
vt 0.240692 0.000680
vt 0.280205 0.000680
vt 0.245815 0.583614
vt 0.286051 0.439862
vt 0.764115 0.564002
vt 0.763265 0.499747
vt 0.147787 0.588564
vt 0.547924 0.433366
vt 0.546153 0.504649
vt 0.823455 0.000680
vt 0.824574 0.070239
vt 0.553674 0.290750
vt 0.593382 0.290750
vt 0.485433 0.433224
vt 0.487292 0.361992
vt 0.446948 0.507453
vt 0.444025 0.578787
vt 0.649592 0.358415
vt 0.650617 0.290750
vt 0.698822 0.070262
vt 0.700325 0.000680
vt 0.090900 0.302625
vt 0.698822 0.141597
vt 0.486677 0.846970
vt 0.711466 0.428744
vt 0.661667 0.716325
vt 0.660851 0.787554
vt 0.599130 0.645497
vt 0.600761 0.573326
vt 0.762670 0.428448
vt 0.485497 0.504423
vt 0.599130 0.716854
vt 0.710943 0.500064
vt 0.710886 0.568989
vt 0.485433 0.068923
vt 0.486904 0.000699
vt 0.487240 0.576539
vt 0.485433 0.140142
vt 0.544745 0.576136
vt 0.659808 0.645151
vt 0.387603 0.652287
vt 0.389138 0.580470
vt 0.648976 0.429690
vt 0.446648 0.848594
vt 0.658294 0.573651
vt 0.763987 0.357222
vt 0.766608 0.290750
vt 0.824670 0.358070
vt 0.825166 0.429412
vt 0.547922 0.211107
vt 0.545932 0.289391
vt 0.650278 0.500896
vt 0.824757 0.292226
vt 0.087152 0.797620
vt 0.346942 0.847827
vt 0.759485 0.069917
vt 0.761344 0.141068
vt 0.653100 0.570421
vt 0.248017 0.586239
vt 0.248166 0.651995
vt 0.248910 0.723248
vt 0.287748 0.848117
vt 0.758125 0.001025
vt 0.489715 0.290750
vt 0.287913 0.648552
vt 0.087376 0.849267
vt 0.486696 0.643597
vt 0.762934 0.271649
vt 0.289925 0.584319
vt 0.821736 0.273164
vt 0.187639 0.369422
vt 0.546417 0.577923
vt 0.593821 0.574676
vt 0.553235 0.574676
vt 0.660187 0.843313
vt 0.488241 0.577899
vt 0.190490 0.299133
vt 0.603378 0.290750
vt 0.643370 0.290750
vt 0.700101 0.854878
vt 0.677412 0.854878
vt 0.677412 0.803131
vt 0.700101 0.838051
vt 0.272894 0.403697
vt 0.272894 0.420524
vt 0.250204 0.455444
vt 0.250204 0.403697
vt 0.963258 0.314081
vt 0.959008 0.320267
vt 0.925050 0.296936
vt 0.929300 0.290750
vt 0.557717 0.806017
vt 0.556213 0.798664
vt 0.596267 0.790470
vt 0.597771 0.797824
vt 0.279187 0.334053
vt 0.272894 0.338142
vt 0.250204 0.303222
vt 0.256498 0.299133
vt 0.929301 0.502014
vt 0.925050 0.495828
vt 0.959007 0.472496
vt 0.963257 0.478682
vt 0.471468 0.622446
vt 0.471468 0.540063
vt 0.478974 0.540063
vt 0.478974 0.622446
vt 0.256498 0.459534
vt 0.279187 0.424614
vt 0.361672 0.458428
vt 0.355381 0.454335
vt 0.378089 0.419427
vt 0.384380 0.423520
vt 0.709962 0.571781
vt 0.711465 0.579134
vt 0.671410 0.587325
vt 0.669907 0.579972
vt 0.915483 0.776639
vt 0.911233 0.770453
vt 0.945190 0.747121
vt 0.949440 0.753307
vt 0.949443 0.588687
vt 0.945194 0.594874
vt 0.911233 0.571548
vt 0.915482 0.565361
vt 0.669907 0.793579
vt 0.671411 0.786226
vt 0.711465 0.794419
vt 0.709961 0.801772
vt 0.384383 0.332913
vt 0.378092 0.337006
vt 0.355381 0.302100
vt 0.361672 0.298007
vt 0.597771 0.584229
vt 0.596267 0.591582
vt 0.556213 0.583389
vt 0.557717 0.576035
vt 0.464721 0.596332
vt 0.464721 0.566178
vt 0.902368 0.685385
vt 0.902368 0.565361
vt 0.909873 0.565361
vt 0.909873 0.685385
vt 0.959008 0.342264
vt 0.925051 0.342264
vt 0.862313 0.749282
vt 0.902368 0.749282
vt 0.902368 0.780636
vt 0.862313 0.772443
vt 0.862313 0.685385
vt 0.862313 0.573554
vt 0.919031 0.833667
vt 0.918745 0.932474
vt 0.911233 0.932512
vt 0.911534 0.833596
vt 0.711465 0.614136
vt 0.671411 0.614136
vt 0.952714 0.833603
vt 0.918753 0.801469
vt 0.953008 0.778105
vt 0.911234 0.726018
vt 0.945190 0.726018
vt 0.355400 0.407545
vt 0.378089 0.407546
vt 0.842969 0.840473
vt 0.820282 0.840649
vt 0.820057 0.828765
vt 0.842706 0.793514
vt 0.471707 0.538704
vt 0.464960 0.512590
vt 0.472226 0.510713
vt 0.478974 0.536827
vt 0.472226 0.480559
vt 0.478974 0.454444
vt 0.464960 0.478681
vt 0.471707 0.452567
vt 0.463600 0.454444
vt 0.456853 0.480559
vt 0.449586 0.478681
vt 0.456333 0.452567
vt 0.463600 0.536827
vt 0.456853 0.510713
vt 0.456333 0.538704
vt 0.449586 0.512590
vt 0.250205 0.517161
vt 0.250204 0.487007
vt 0.257710 0.487007
vt 0.257710 0.517161
vt 0.264457 0.543275
vt 0.264457 0.460893
vt 0.700101 0.911500
vt 0.707607 0.911500
vt 0.707607 0.920434
vt 0.700101 0.920434
vt 0.669907 0.854878
vt 0.669907 0.803131
vt 0.925051 0.389411
vt 0.959008 0.389411
vt 0.854819 0.874495
vt 0.862316 0.874517
vt 0.862300 0.957561
vt 0.854808 0.957513
vt 0.596267 0.703413
vt 0.556213 0.703413
vt 0.854808 0.685385
vt 0.854808 0.573554
vt 0.671411 0.677529
vt 0.711465 0.677529
vt 0.874246 0.117718
vt 0.874162 0.000680
vt 0.881669 0.000722
vt 0.881759 0.117751
vt 0.960411 0.932508
vt 0.960271 0.977044
vt 0.952760 0.977022
vt 0.952893 0.932462
vt 0.918794 0.953617
vt 0.911281 0.953634
vt 0.850243 0.793363
vt 0.850490 0.840361
vt 0.812798 0.840449
vt 0.812516 0.828504
vt 0.457215 0.596332
vt 0.457215 0.566178
vt 0.909873 0.749282
vt 0.909873 0.780636
vt 0.854808 0.772443
vt 0.854808 0.749282
vt 0.556213 0.767310
vt 0.596267 0.767310
vt 0.826561 0.117750
vt 0.826596 0.008940
vt 0.834102 0.008891
vt 0.834067 0.117714
vt 0.826561 0.207894
vt 0.826771 0.181068
vt 0.834264 0.180977
vt 0.834069 0.207749
vt 0.874180 0.215989
vt 0.874059 0.181089
vt 0.881552 0.181166
vt 0.881674 0.216119
vt 0.903846 0.782067
vt 0.903885 0.827368
vt 0.896379 0.827327
vt 0.896355 0.781995
vt 0.903799 0.874527
vt 0.896292 0.874533
vt 0.854985 0.805353
vt 0.862460 0.805250
vt 0.862326 0.827256
vt 0.854808 0.827309
vt 0.896172 0.980896
vt 0.677412 0.955354
vt 0.669907 0.955354
vt 0.669907 0.911500
vt 0.677412 0.911500
vt 0.707607 0.854878
vt 0.707607 0.838051
vt 0.250204 0.347076
vt 0.272894 0.347076
vt 0.820375 0.898840
vt 0.812851 0.898926
vt 0.911233 0.801284
vt 0.960210 0.833581
vt 0.960515 0.777998
vt 0.945193 0.627115
vt 0.911236 0.627114
vt 0.820088 0.910733
vt 0.812516 0.910911
vt 0.850405 0.899092
vt 0.842890 0.899074
vt 0.842867 0.945900
vt 0.850391 0.946000
vt 0.378091 0.348891
vt 0.355402 0.348891
vt 0.271963 0.460893
vt 0.271963 0.543275
vt 0.903667 0.980869
vt 0.792510 0.885725
vt 0.770176 0.885725
vt 0.770176 0.839671
vt 0.792510 0.874045
vt 0.455880 0.343330
vt 0.455880 0.331650
vt 0.478214 0.297276
vt 0.478214 0.343330
vt 0.038357 0.788523
vt 0.034106 0.794709
vt 0.000680 0.771742
vt 0.004930 0.765556
vt 0.851945 0.565361
vt 0.853448 0.572714
vt 0.814020 0.580778
vt 0.812516 0.573425
vt 0.449586 0.416833
vt 0.455880 0.412744
vt 0.478214 0.447118
vt 0.471920 0.451208
vt 0.004930 0.973711
vt 0.000680 0.967525
vt 0.034106 0.944557
vt 0.038356 0.950743
vt 0.999258 0.678787
vt 0.999178 0.761116
vt 0.991687 0.761156
vt 0.991757 0.678803
vt 0.471920 0.293186
vt 0.449586 0.327560
vt 0.162644 0.457391
vt 0.156352 0.453299
vt 0.178703 0.418935
vt 0.184995 0.423027
vt 0.163858 0.544959
vt 0.163858 0.626054
vt 0.156352 0.626054
vt 0.156352 0.544959
vt 0.828029 0.517378
vt 0.826525 0.510024
vt 0.865954 0.501960
vt 0.867458 0.509313
vt 0.046009 0.971158
vt 0.041759 0.964971
vt 0.075186 0.942005
vt 0.079436 0.948191
vt 0.079441 0.785943
vt 0.075193 0.792130
vt 0.041759 0.769174
vt 0.046008 0.762987
vt 0.867458 0.298813
vt 0.865954 0.306167
vt 0.826525 0.298103
vt 0.828029 0.290750
vt 0.185000 0.333702
vt 0.178709 0.337796
vt 0.156352 0.303436
vt 0.162643 0.299343
vt 0.812516 0.783944
vt 0.814019 0.776590
vt 0.853448 0.784650
vt 0.851945 0.792004
vt 0.264457 0.625729
vt 0.257815 0.600023
vt 0.257815 0.570340
vt 0.264457 0.544634
vt 0.034106 0.826431
vt 0.000680 0.826431
vt 0.915938 0.345943
vt 0.876482 0.345939
vt 0.876339 0.290861
vt 0.916045 0.298934
vt 0.814019 0.750607
vt 0.853447 0.750607
vt 0.930286 0.037615
vt 0.890638 0.037487
vt 0.890839 0.008678
vt 0.930189 0.000680
vt 0.826525 0.443089
vt 0.865954 0.443089
vt 0.980173 0.046588
vt 0.947039 0.046700
vt 0.946707 0.023842
vt 0.980459 0.000810
vt 0.041761 0.925010
vt 0.075187 0.925012
vt 0.156370 0.403141
vt 0.178704 0.403142
vt 0.178707 0.369957
vt 0.156372 0.369955
vt 0.362647 0.459787
vt 0.369289 0.485493
vt 0.362022 0.487370
vt 0.355381 0.461664
vt 0.362022 0.517053
vt 0.355381 0.542759
vt 0.369289 0.518930
vt 0.362647 0.544636
vt 0.170261 0.460628
vt 0.163619 0.486334
vt 0.156352 0.484456
vt 0.162994 0.458750
vt 0.170261 0.541722
vt 0.163619 0.516017
vt 0.162994 0.543600
vt 0.156352 0.517894
vt 0.178005 0.570665
vt 0.178005 0.600348
vt 0.170500 0.600348
vt 0.170500 0.570665
vt 0.792510 0.943459
vt 0.800016 0.943459
vt 0.800016 0.955139
vt 0.792510 0.955139
vt 0.762670 0.885725
vt 0.762670 0.839671
vt 0.000680 0.885104
vt 0.034106 0.885104
vt 0.950803 0.678784
vt 0.958303 0.678813
vt 0.958359 0.738225
vt 0.950872 0.738167
vt 0.923349 0.468579
vt 0.923691 0.494752
vt 0.916133 0.494532
vt 0.915823 0.468458
vt 0.876572 0.468618
vt 0.876345 0.502685
vt 0.868817 0.502875
vt 0.869054 0.468718
vt 0.937681 0.000808
vt 0.937808 0.037689
vt 0.883118 0.037559
vt 0.883368 0.008811
vt 0.987816 0.156608
vt 0.987678 0.196672
vt 0.980163 0.196647
vt 0.980296 0.156563
vt 0.946679 0.156554
vt 0.946709 0.173582
vt 0.939196 0.173595
vt 0.939167 0.156583
vt 0.563754 0.890751
vt 0.585939 0.890685
vt 0.586269 0.922818
vt 0.563747 0.957448
vt 0.556213 0.957609
vt 0.556232 0.890820
vt 0.250310 0.600023
vt 0.250310 0.570340
vt 0.868974 0.345879
vt 0.868817 0.290750
vt 0.923442 0.345870
vt 0.923570 0.298799
vt 0.853448 0.627717
vt 0.814020 0.627716
vt 0.883118 0.204581
vt 0.883247 0.145757
vt 0.890749 0.145714
vt 0.890617 0.204505
vt 0.937500 0.145807
vt 0.930003 0.145759
vt 0.930071 0.212579
vt 0.937566 0.212653
vt 0.826526 0.334955
vt 0.865954 0.334955
vt 0.999280 0.565420
vt 0.999320 0.620092
vt 0.991810 0.620059
vt 0.991786 0.565361
vt 0.950940 0.588361
vt 0.958426 0.588282
vt 0.958318 0.620018
vt 0.950803 0.620058
vt 0.770176 0.989513
vt 0.762670 0.989513
vt 0.762670 0.943459
vt 0.770176 0.943459
vt 0.800016 0.885725
vt 0.800016 0.874045
vt 0.478214 0.401064
vt 0.455880 0.401064
vt 0.939538 0.046587
vt 0.939167 0.023602
vt 0.987672 0.046551
vt 0.987971 0.000680
vt 0.075192 0.815001
vt 0.041766 0.814999
vt 0.586154 0.842028
vt 0.593669 0.841842
vt 0.593427 0.857656
vt 0.585947 0.857780
vt 0.593450 0.890800
vt 0.563851 0.807490
vt 0.563718 0.857652
vt 0.556213 0.857585
vt 0.556339 0.807376
vt 0.271963 0.544634
vt 0.271963 0.625729
vt 0.593797 0.923075
s 1
usemtl WoodenBarrel
f 8/1/1 7/2/1 5/3/2 9/4/2
f 9/4/2 5/3/2 4/5/3 11/6/3
f 11/6/3 4/5/3 10/7/4 6/8/4
f 14/9/5 12/10/6 26/11/6 32/12/5
f 23/13/7 10/14/8 17/15/8 28/16/7
f 26/11/9 59/17/10 51/18/10 3/19/9
f 13/20/11 31/21/12 3/19/12 51/18/11
f 54/22/13 44/23/13 7/2/1 8/1/1
f 19/24/14 20/25/15 18/26/15 22/27/14
f 20/25/15 30/28/16 16/29/16 18/26/15
f 30/28/16 27/30/17 17/15/17 16/29/16
f 6/8/18 15/31/19 1/32/19 27/30/18
f 12/10/20 31/33/20 13/34/21 24/35/21
f 15/31/22 23/36/22 25/37/23 14/9/23
f 14/9/23 25/37/23 31/33/20 12/10/20
f 29/38/24 19/24/14 22/27/14 21/39/24
f 32/12/25 26/11/9 3/19/9 2/40/25
f 6/8/4 10/7/4 23/36/22 15/31/22
f 12/10/6 24/35/26 59/17/26 26/11/6
f 10/14/8 4/41/27 16/29/27 17/15/8
f 4/41/27 5/42/28 18/26/28 16/29/27
f 8/1/29 9/4/30 20/25/30 19/24/29
f 7/43/31 44/44/32 21/39/32 22/27/31
f 31/21/12 25/45/33 2/40/33 3/19/12
f 1/32/34 32/12/25 2/40/25 28/16/34
f 5/42/28 7/43/31 22/27/31 18/26/28
f 54/22/35 8/1/29 19/24/29 29/38/35
f 9/4/30 11/6/36 30/28/36 20/25/30
f 11/6/36 6/8/18 27/30/18 30/28/36
f 15/31/19 14/9/5 32/12/5 1/32/19
f 25/45/33 23/13/7 28/16/7 2/40/33
f 27/30/17 1/32/34 28/16/34 17/15/17
f 39/46/37 38/47/37 37/48/38 40/49/38
f 40/49/38 37/48/38 36/50/39 42/51/39
f 42/51/39 36/50/39 62/52/40 41/53/40
f 45/54/41 43/55/42 56/56/42 64/57/41
f 53/58/43 62/59/44 63/60/44 58/61/43
f 56/56/45 29/62/24 21/63/24 35/64/45
f 44/65/32 61/66/46 35/64/46 21/63/32
f 24/35/21 13/34/21 38/47/37 39/46/37
f 49/67/47 50/68/48 48/69/48 52/70/47
f 50/68/48 60/71/49 47/72/49 48/69/48
f 60/71/49 57/73/50 63/60/50 47/72/49
f 41/53/51 46/74/52 33/75/52 57/73/51
f 43/55/53 61/76/53 44/77/13 54/78/13
f 46/74/54 53/79/54 55/80/55 45/54/55
f 45/54/55 55/80/55 61/76/53 43/55/53
f 59/17/10 49/67/47 52/70/47 51/18/10
f 64/57/56 56/56/45 35/64/45 34/81/56
f 41/53/40 62/52/40 53/79/54 46/74/54
f 43/55/42 54/78/35 29/62/35 56/56/42
f 62/59/44 36/82/57 47/72/57 63/60/44
f 36/82/57 37/83/58 48/69/58 47/72/57
f 39/46/59 40/49/60 50/68/60 49/67/59
f 38/84/61 13/20/11 51/18/11 52/70/61
f 61/66/46 55/85/62 34/81/62 35/64/46
f 33/75/63 64/57/56 34/81/56 58/61/63
f 37/83/58 38/84/61 52/70/61 48/69/58
f 24/35/26 39/46/59 49/67/59 59/17/26
f 40/49/60 42/51/64 60/71/64 50/68/60
f 42/51/64 41/53/51 57/73/51 60/71/64
f 46/74/52 45/54/41 64/57/41 33/75/52
f 55/85/62 53/58/43 58/61/43 34/81/62
f 57/73/50 33/75/63 58/61/63 63/60/50
f 72/86/45 71/87/45 69/88/56 73/89/56
f 73/89/56 69/88/56 68/90/63 75/91/63
f 75/91/63 68/90/63 74/92/50 70/93/50
f 78/94/58 76/95/61 90/96/61 96/97/58
f 87/98/64 74/99/51 81/100/51 92/101/64
f 90/96/37 123/102/21 115/103/21 67/104/37
f 77/105/26 95/106/59 67/104/59 115/103/26
f 118/107/24 108/108/24 71/87/45 72/86/45
f 83/109/53 84/110/55 82/111/55 86/112/53
f 84/110/55 94/113/54 80/114/54 82/111/55
f 94/113/54 91/115/40 81/100/40 80/114/54
f 70/93/44 79/116/57 65/117/57 91/115/44
f 76/95/47 95/118/47 77/119/10 88/120/10
f 79/116/49 87/121/49 89/122/48 78/94/48
f 78/94/48 89/122/48 95/118/47 76/95/47
f 93/123/13 83/109/53 86/112/53 85/124/13
f 96/97/38 90/96/37 67/104/37 66/125/38
f 70/93/50 74/92/50 87/121/49 79/116/49
f 76/95/61 88/120/11 123/102/11 90/96/61
f 74/99/51 68/126/52 80/114/52 81/100/51
f 68/126/52 69/127/41 82/111/41 80/114/52
f 72/86/46 73/89/62 84/110/62 83/109/46
f 71/128/42 108/129/35 85/124/35 86/112/42
f 95/106/59 89/130/60 66/125/60 67/104/59
f 65/117/39 96/97/38 66/125/38 92/101/39
f 69/127/41 71/128/42 86/112/42 82/111/41
f 118/107/32 72/86/46 83/109/46 93/123/32
f 73/89/62 75/91/43 94/113/43 84/110/62
f 75/91/43 70/93/44 91/115/44 94/113/43
f 79/116/57 78/94/58 96/97/58 65/117/57
f 89/130/60 87/98/64 92/101/64 66/125/60
f 91/115/40 65/117/39 92/101/39 81/100/40
f 103/131/9 102/132/9 101/133/25 104/134/25
f 104/134/25 101/133/25 100/135/34 106/136/34
f 106/136/34 100/135/34 126/137/17 105/138/17
f 109/139/28 107/140/31 120/141/31 128/142/28
f 117/143/36 126/144/18 127/145/18 122/146/36
f 120/141/1 93/123/13 85/124/13 99/147/1
f 108/129/35 125/148/29 99/147/29 85/124/35
f 88/149/10 77/150/10 102/132/9 103/131/9
f 113/151/20 114/152/23 112/153/23 116/154/20
f 114/152/23 124/155/22 111/156/22 112/153/23
f 124/155/22 121/157/4 127/145/4 111/156/22
f 105/138/8 110/158/27 97/159/27 121/157/8
f 107/140/14 125/160/14 108/108/24 118/107/24
f 110/158/16 117/161/16 119/162/15 109/139/15
f 109/139/15 119/162/15 125/160/14 107/140/14
f 123/163/21 113/151/20 116/154/20 115/164/21
f 128/142/2 120/141/1 99/147/1 98/165/2
f 105/138/17 126/137/17 117/161/16 110/158/16
f 107/140/31 118/107/32 93/123/32 120/141/31
f 126/144/18 100/166/19 111/156/19 127/145/18
f 100/166/19 101/167/5 112/153/5 111/156/19
f 103/131/12 104/134/33 114/152/33 113/151/12
f 102/168/6 77/169/26 115/164/26 116/154/6
f 125/148/29 119/170/30 98/165/30 99/147/29
f 97/159/3 128/142/2 98/165/2 122/146/3
f 101/167/5 102/168/6 116/154/6 112/153/5
f 88/149/11 103/131/12 113/151/12 123/163/11
f 104/134/33 106/136/7 124/155/7 114/152/33
f 106/136/7 105/138/8 121/157/8 124/155/7
f 110/158/27 109/139/28 128/142/28 97/159/27
f 119/170/30 117/143/36 122/146/36 98/165/30
f 121/157/4 97/159/3 122/146/3 127/145/4
f 194/171/65 183/172/66 190/173/66 274/174/65
f 183/172/66 182/175/67 191/176/67 190/173/66
f 195/177/68 196/178/69 172/179/69 173/180/68
f 196/178/69 170/181/70 136/182/70 172/179/69
f 198/183/71 181/184/72 171/185/72 271/186/71
f 181/184/72 180/187/73 197/188/73 171/185/72
f 199/189/74 200/190/75 168/191/75 169/192/74
f 200/190/75 201/193/76 135/194/76 168/191/75
f 286/195/77 203/196/78 204/197/78 202/198/77
f 203/196/78 205/199/79 163/200/79 204/197/78
f 287/201/80 207/202/81 161/203/81 162/204/80
f 207/202/81 157/205/82 160/206/82 161/203/81
f 288/207/83 189/208/84 158/209/84 159/210/83
f 189/208/84 138/211/85 208/212/85 158/209/84
f 246/213/86 154/214/87 155/215/87 156/216/86
f 154/214/87 137/217/88 188/218/88 155/215/87
f 231/219/89 187/220/90 178/221/90 209/222/89
f 187/220/90 134/223/91 179/224/91 178/221/90
f 210/225/92 185/226/93 150/227/93 151/228/92
f 185/226/93 133/229/94 186/230/94 150/227/93
f 234/231/95 177/232/96 148/233/96 149/234/95
f 177/232/96 176/235/97 184/236/97 148/233/96
f 283/237/98 164/238/99 146/239/99 147/240/98
f 164/238/99 206/241/100 132/242/100 146/239/99
f 143/243/101 211/244/102 153/245/102 131/246/101
f 211/244/102 213/247/103 152/248/103 153/245/102
f 129/249/104 192/250/105 145/251/105 212/252/104
f 192/250/105 214/253/106 144/254/106 145/251/105
f 175/255/107 174/256/108 142/257/108 193/258/107
f 174/256/108 215/259/109 141/260/109 142/257/108
f 165/261/110 166/262/111 140/263/111 130/264/110
f 166/262/111 167/265/112 139/266/112 140/263/111
f 169/192/74 260/267/113 267/268/113 199/189/74
f 260/267/113 259/269/114 268/270/114 267/268/113
f 271/186/71 272/271/115 250/272/115 198/183/71
f 272/271/115 248/273/116 223/274/116 250/272/115
f 173/180/68 258/275/117 249/276/117 195/177/68
f 258/275/117 257/277/118 273/278/118 249/276/117
f 274/174/65 275/279/119 247/280/119 194/171/65
f 275/279/119 276/281/120 222/282/120 247/280/119
f 213/247/103 277/283/121 278/284/121 152/248/103
f 277/283/121 279/285/122 242/286/122 278/284/121
f 214/253/106 281/287/123 241/288/123 144/254/106
f 281/287/123 238/289/124 240/290/124 241/288/123
f 215/259/109 266/291/125 239/292/125 141/260/109
f 266/291/125 225/293/126 282/294/126 239/292/125
f 167/265/112 236/295/127 237/296/127 139/266/112
f 236/295/127 224/297/128 265/298/128 237/296/127
f 147/240/98 264/299/129 255/300/129 283/237/98
f 264/299/129 221/301/130 256/302/130 255/300/129
f 149/234/95 262/303/131 233/304/131 234/231/95
f 262/303/131 220/305/132 263/306/132 233/304/131
f 151/228/92 254/307/133 232/308/133 210/225/92
f 254/307/133 253/309/134 261/310/134 232/308/133
f 209/222/89 243/311/135 230/312/135 231/219/89
f 243/311/135 280/313/136 219/314/136 230/312/135
f 228/315/137 284/316/138 235/317/138 218/318/137
f 284/316/138 286/195/77 202/198/77 235/317/138
f 216/319/139 269/320/140 229/321/140 285/322/139
f 269/320/140 287/201/80 162/204/80 229/321/140
f 252/323/141 251/324/142 227/325/142 270/326/141
f 251/324/142 288/207/83 159/210/83 227/325/142
f 244/327/143 245/328/144 226/329/144 217/330/143
f 245/328/144 246/213/86 156/216/86 226/329/144
f 327/331/89 422/332/89 325/333/145 306/334/145
f 306/334/145 325/333/145 289/335/146 290/336/146
f 331/337/92 330/338/92 333/339/147 332/340/147
f 332/340/147 333/339/147 314/341/148 315/342/148
f 334/343/95 418/344/95 335/345/149 305/346/149
f 305/346/149 335/345/149 307/347/150 304/348/150
f 337/349/98 336/350/98 339/351/151 338/352/151
f 338/352/151 339/351/151 316/353/152 317/354/152
f 445/355/112 342/356/112 343/357/153 344/358/153
f 344/358/153 343/357/153 346/359/154 345/360/154
f 446/361/109 351/362/109 347/363/155 348/364/155
f 348/364/155 347/363/155 350/365/156 349/366/156
f 447/367/106 378/368/106 353/369/157 322/370/157
f 322/370/157 353/369/157 308/371/158 309/372/158
f 423/373/103 328/374/103 354/375/159 355/376/159
f 355/376/159 354/375/159 302/377/160 303/378/160
f 441/379/65 356/380/65 301/381/161 313/382/161
f 313/382/161 301/381/161 299/383/162 300/384/162
f 358/385/68 357/386/68 359/387/163 312/388/163
f 312/388/163 359/387/163 296/389/164 297/390/164
f 436/391/71 377/392/71 360/393/165 298/394/165
f 298/394/165 360/393/165 293/395/166 294/396/166
f 437/397/74 341/398/74 361/399/167 362/400/167
f 362/400/167 361/399/167 320/401/168 321/402/168
f 323/403/169 324/404/169 364/405/170 363/406/170
f 363/406/170 364/405/170 366/407/86 365/408/86
f 310/409/171 311/410/171 367/411/172 326/412/172
f 326/412/172 367/411/172 369/413/83 368/414/83
f 291/415/173 292/416/173 370/417/174 295/418/174
f 295/418/174 370/417/174 372/419/80 371/420/80
f 318/421/175 319/422/175 373/423/176 374/424/176
f 374/424/176 373/423/176 375/425/77 376/426/77
f 336/350/98 337/349/98 415/427/177 398/428/177
f 398/428/177 415/427/177 381/429/178 382/430/178
f 418/344/95 334/343/95 417/431/179 420/432/179
f 420/432/179 417/431/179 404/433/180 405/434/180
f 330/338/92 331/337/92 419/435/181 397/436/181
f 397/436/181 419/435/181 399/437/182 396/438/182
f 422/332/89 327/331/89 421/439/183 424/440/183
f 424/440/183 421/439/183 406/441/184 407/442/184
f 365/408/86 366/407/86 427/443/185 428/444/185
f 428/444/185 427/443/185 430/445/186 429/446/186
f 368/414/83 369/413/83 425/447/187 426/448/187
f 426/448/187 425/447/187 433/449/188 432/450/188
f 371/420/80 372/419/80 431/451/189 412/452/189
f 412/452/189 431/451/189 400/453/190 401/454/190
f 376/426/77 375/425/77 435/455/191 434/456/191
f 434/456/191 435/455/191 394/457/192 395/458/192
f 341/398/74 437/397/74 393/459/193 340/460/193
f 340/460/193 393/459/193 391/461/194 392/462/194
f 377/392/71 436/391/71 439/463/195 380/464/195
f 380/464/195 439/463/195 388/465/196 389/466/196
f 357/386/68 358/385/68 438/467/197 390/468/197
f 390/468/197 438/467/197 385/469/198 386/470/198
f 356/380/65 441/379/65 442/471/199 440/472/199
f 440/472/199 442/471/199 410/473/200 411/474/200
f 413/475/201 414/476/201 444/477/202 443/478/202
f 443/478/202 444/477/202 342/356/112 445/355/112
f 402/479/203 403/480/203 352/481/204 416/482/204
f 416/482/204 352/481/204 351/362/109 446/361/109
f 383/483/205 384/484/205 379/485/206 387/486/206
f 387/486/206 379/485/206 378/368/106 447/367/106
f 408/487/207 409/488/207 329/489/208 448/490/208
f 448/490/208 329/489/208 328/374/103 423/373/103
f 206/491/209 164/492/210 362/400/210 321/402/209
f 245/493/211 244/494/212 408/487/212 448/490/211
f 238/495/213 281/496/214 426/448/214 432/450/213
f 159/497/215 158/498/216 353/369/216 378/368/215
f 266/499/217 215/500/218 371/420/218 412/452/217
f 157/501/219 207/502/220 348/364/220 349/366/219
f 240/290/221 238/289/221 432/503/221 433/504/221
f 158/498/216 208/505/222 308/371/222 353/369/216
f 277/506/223 213/507/224 365/408/224 428/444/223
f 160/206/225 157/205/225 349/508/225 350/509/225
f 236/510/226 167/511/227 376/426/227 434/456/226
f 212/512/228 145/513/229 367/411/229 311/410/228
f 241/514/230 240/515/231 433/449/231 425/447/230
f 229/516/232 162/517/233 351/362/233 352/481/232
f 145/513/229 144/518/234 369/413/234 367/411/229
f 280/519/235 243/520/236 440/472/236 411/474/235
f 268/270/237 259/269/237 382/521/237 381/522/237
f 139/523/238 237/524/239 435/455/239 375/425/238
f 177/525/240 234/526/241 436/391/241 298/394/240
f 252/323/242 270/326/242 384/527/242 383/528/242
f 239/529/243 282/530/244 400/453/244 431/451/243
f 209/531/245 178/532/246 301/381/246 356/380/245
f 261/310/247 253/309/247 386/533/247 385/534/247
f 285/535/248 229/516/232 352/481/232 403/480/248
f 283/536/249 255/537/250 393/459/250 437/397/249
f 251/538/251 252/539/252 383/483/252 387/486/251
f 191/176/253 182/175/253 290/540/253 289/541/253
f 263/306/254 220/305/254 389/542/254 388/543/254
f 203/544/255 286/545/256 445/355/256 344/358/255
f 185/546/257 210/547/258 358/385/258 312/388/259
f 210/547/258 232/548/260 438/467/260 358/385/258
f 175/255/261 193/258/261 292/549/261 291/550/261
f 253/551/262 254/552/263 390/468/263 386/470/262
f 235/553/264 202/554/265 342/356/265 444/477/264
f 254/552/263 151/555/266 357/386/266 390/468/263
f 184/236/267 176/235/267 294/556/267 293/557/267
f 256/302/268 221/301/268 392/558/268 391/559/268
f 174/560/269 175/561/270 291/415/270 295/418/269
f 255/537/250 256/562/271 391/461/271 393/459/250
f 243/520/236 209/531/245 356/380/245 440/472/236
f 186/230/272 133/229/272 297/563/272 296/564/272
f 265/298/273 224/297/273 395/565/273 394/566/273
f 211/567/274 143/568/275 323/403/275 363/406/276
f 187/569/277 231/570/278 441/379/278 313/382/277
f 176/571/279 177/525/240 298/394/240 294/396/279
f 257/572/280 258/573/281 397/436/281 396/438/280
f 179/224/282 134/223/282 300/574/282 299/575/282
f 259/576/283 260/577/284 398/428/284 382/430/283
f 213/507/224 211/567/274 363/406/276 365/408/224
f 152/578/285 278/579/286 427/443/286 366/407/285
f 178/532/246 179/580/287 299/383/287 301/381/246
f 273/278/288 257/277/288 396/581/288 399/582/288
f 188/218/289 137/217/289 303/583/289 302/584/289
f 282/294/290 225/293/290 401/585/290 400/586/290
f 284/587/291 228/588/292 413/475/292 443/478/291
f 180/589/293 181/590/294 305/346/294 304/348/293
f 216/319/295 285/322/295 403/591/295 402/592/295
f 214/593/296 192/594/297 326/412/297 368/414/296
f 182/595/298 183/596/299 306/334/299 290/336/298
f 220/597/300 262/598/301 380/464/302 389/466/300
f 286/545/256 284/587/291 443/478/291 445/355/256
f 197/188/303 180/187/303 304/599/303 307/600/303
f 221/601/304 264/602/305 340/460/305 392/462/304
f 164/492/210 283/536/249 437/397/249 362/400/210
f 208/212/306 138/211/306 309/603/306 308/604/306
f 223/274/307 248/273/307 405/605/307 404/606/307
f 215/500/218 174/560/269 295/418/269 371/420/218
f 129/249/308 212/252/308 311/607/308 310/608/308
f 222/282/309 276/281/309 407/609/309 406/610/309
f 287/611/310 269/612/311 416/482/311 446/361/310
f 133/613/312 185/546/257 312/388/259 297/390/312
f 244/327/313 217/330/313 409/614/313 408/615/313
f 134/616/314 187/569/277 313/382/277 300/384/314
f 219/314/315 280/313/315 411/617/315 410/618/315
f 288/619/316 251/538/251 387/486/251 447/367/316
f 136/182/317 170/181/317 315/620/317 314/621/317
f 225/622/318 266/499/217 412/452/217 401/454/318
f 130/623/319 140/624/320 373/423/320 319/422/319
f 207/502/220 287/611/310 446/361/310 348/364/220
f 135/194/321 201/193/321 317/625/321 316/626/321
f 228/315/322 218/318/322 414/627/322 413/628/322
f 140/624/320 139/523/238 375/425/238 373/423/320
f 165/261/323 130/264/323 319/629/323 318/630/323
f 267/631/324 268/632/325 381/429/325 415/427/324
f 146/633/326 132/634/327 320/401/327 361/399/326
f 189/635/328 288/619/316 447/367/316 322/370/328
f 132/242/329 206/241/329 321/636/329 320/637/329
f 269/612/311 216/638/330 402/479/330 416/482/311
f 147/639/331 146/633/326 361/399/326 341/398/331
f 217/640/332 226/641/333 329/489/333 409/488/332
f 138/642/334 189/635/328 322/370/328 309/372/334
f 198/643/335 250/644/336 417/431/336 334/343/335
f 131/645/337 153/646/338 364/405/339 324/404/337
f 143/243/340 131/246/340 324/647/340 323/648/340
f 271/649/341 171/650/342 335/345/342 418/344/341
f 153/646/338 152/578/285 366/407/285 364/405/339
f 230/651/343 219/652/344 410/473/344 442/471/343
f 190/653/345 191/654/346 289/335/346 325/333/345
f 168/655/347 135/656/348 316/353/348 339/351/347
f 231/570/278 230/651/343 442/471/343 441/379/278
f 192/594/297 129/657/349 310/409/349 326/412/297
f 169/658/350 168/655/347 339/351/347 336/350/350
f 218/659/351 235/553/264 444/477/264 414/476/351
f 183/596/299 194/660/352 327/331/352 306/334/299
f 195/661/353 249/662/354 419/435/354 331/337/353
f 172/663/355 136/664/356 314/341/356 333/339/355
f 226/641/333 156/665/357 328/374/357 329/489/333
f 272/666/358 271/649/341 418/344/341 420/432/358
f 173/667/359 172/663/355 333/339/355 330/338/359
f 247/668/360 222/669/361 406/441/361 421/439/360
f 148/670/362 184/671/363 293/395/363 360/393/362
f 248/672/364 272/666/358 420/432/358 405/434/364
f 149/673/365 148/670/362 360/393/362 377/392/365
f 250/644/336 223/674/366 404/433/366 417/431/336
f 196/675/367 195/661/353 331/337/353 332/340/367
f 194/660/352 247/668/360 421/439/360 327/331/352
f 150/676/368 186/677/369 296/389/369 359/387/370
f 258/573/281 173/667/359 330/338/359 397/436/281
f 274/678/371 190/653/345 325/333/345 422/332/371
f 151/555/266 150/676/368 359/387/370 357/386/266
f 232/548/260 261/679/372 385/469/372 438/467/260
f 170/680/373 196/675/367 332/340/367 315/342/373
f 155/681/374 188/682/375 302/377/375 354/375/376
f 181/590/294 198/643/335 334/343/335 305/346/294
f 154/683/377 246/684/378 423/373/378 355/376/379
f 156/665/357 155/681/374 354/375/376 328/374/357
f 233/685/380 263/686/381 388/465/381 439/463/382
f 275/687/383 274/678/371 422/332/371 424/440/383
f 137/688/384 154/683/377 355/376/379 303/378/384
f 234/526/241 233/685/380 439/463/382 436/391/241
f 227/689/385 159/497/215 378/368/215 379/485/385
f 237/524/239 265/690/386 394/457/386 435/455/239
f 200/691/387 199/692/388 337/349/388 338/352/387
f 276/693/389 275/687/383 424/440/383 407/442/389
f 193/694/390 142/695/391 370/417/391 292/416/390
f 199/692/388 267/631/324 415/427/324 337/349/388
f 144/518/234 241/514/230 425/447/230 369/413/234
f 142/695/391 141/696/392 372/419/392 370/417/391
f 224/697/393 236/510/226 434/456/226 395/458/393
f 201/698/394 200/691/387 338/352/387 317/354/394
f 281/496/214 214/593/296 368/414/296 426/448/214
f 171/650/342 197/699/395 307/347/395 335/345/342
f 260/577/284 169/658/350 336/350/350 398/428/284
f 264/602/305 147/639/331 341/398/331 340/460/305
f 167/511/227 166/700/396 374/424/396 376/426/227
f 270/701/397 227/689/385 379/485/385 384/484/397
f 202/554/265 204/702/398 343/357/398 342/356/265
f 279/703/399 277/506/223 428/444/223 429/446/399
f 166/700/396 165/704/400 318/421/400 374/424/396
f 278/579/286 242/705/401 430/445/401 427/443/286
f 162/517/233 161/706/402 347/363/402 351/362/233
f 205/707/403 203/544/255 344/358/255 345/360/403
f 242/286/404 279/285/404 429/708/404 430/709/404
f 262/598/301 149/673/365 377/392/365 380/464/302
f 249/662/354 273/710/405 399/437/405 419/435/354
f 204/702/398 163/711/406 346/359/406 343/357/398
f 141/696/392 239/529/243 431/451/243 372/419/392
f 161/706/402 160/712/407 350/365/407 347/363/402
f 246/684/378 245/493/211 448/490/211 423/373/378
f 163/200/408 205/199/408 345/713/408 346/714/408
f 539/715/409 541/716/409 461/717/409 454/718/409
f 537/719/410 486/720/410 498/721/410 543/722/410
f 492/723/411 491/724/411 469/725/411 457/726/411
f 456/727/412 468/728/412 494/729/412 493/730/412
f 488/731/413 487/732/413 466/733/413 453/734/413
f 462/735/414 474/736/414 473/737/414 497/738/414
f 451/739/415 455/740/415 511/741/415 499/742/415
f 461/743/416 498/721/416 486/720/416 454/744/416
f 450/745/417 464/746/417 465/747/417 500/748/417
f 449/749/418 463/750/418 472/751/418 460/752/418
f 503/753/419 504/754/419 501/755/419 502/756/419
f 510/757/420 509/758/420 471/759/420 459/760/420
f 507/761/421 508/762/421 495/763/421 496/764/421
f 512/765/422 467/766/422 470/767/422 458/768/422
f 489/769/423 490/770/423 505/771/423 506/772/423
f 451/739/409 478/773/409 477/774/409 455/740/409
f 514/775/424 506/776/424 505/777/424 516/778/424
f 534/779/425 532/780/425 469/725/426 491/724/426
f 517/781/409 513/782/409 456/783/409 493/784/409
f 506/776/409 514/775/409 518/785/409 489/786/409
f 547/787/424 548/788/424 546/789/424 545/790/424
f 526/791/427 523/792/427 472/751/428 463/750/428
f 550/793/429 547/787/429 510/794/430 459/795/430
f 551/796/431 546/797/431 501/755/410 504/754/410
f 558/798/432 554/799/432 465/747/433 464/746/433
f 559/800/434 555/801/434 512/802/435 458/803/435
f 455/804/436 477/805/437 484/806/437 511/807/436
f 511/807/410 484/806/410 483/808/410 499/809/410
f 478/810/438 451/811/439 499/809/439 483/808/438
f 479/812/440 481/813/441 476/814/441 485/815/440
f 479/812/410 480/816/410 482/817/410 481/813/410
f 482/817/442 480/816/443 452/818/443 475/819/442
f 481/820/441 482/821/442 475/822/442 476/823/441
f 485/824/409 476/823/409 475/822/409 452/825/409
f 540/826/415 538/827/415 487/828/415 488/829/415
f 541/716/424 543/830/424 498/831/424 461/717/424
f 474/736/444 531/832/445 533/833/445 473/737/444
f 533/834/415 535/835/415 497/836/415 473/837/415
f 520/838/410 516/839/410 505/771/410 490/770/410
f 520/840/415 490/841/415 489/786/415 518/785/415
f 508/762/446 524/842/447 525/843/447 495/763/446
f 527/844/415 496/845/415 495/846/415 525/847/415
f 551/848/415 504/849/415 503/850/415 549/851/415
f 548/788/424 502/852/424 501/853/424 546/789/424
f 559/800/415 458/803/415 470/854/415 557/855/415
f 555/801/424 553/856/424 467/857/424 512/802/424
f 477/774/437 478/773/438 483/858/438 484/859/437
f 456/783/424 513/782/424 515/860/424 468/861/424
f 513/782/424 514/775/424 516/778/424 515/860/424
f 494/862/415 519/863/415 517/781/415 493/784/415
f 519/863/415 520/840/415 518/785/415 517/781/415
f 494/729/410 468/728/410 515/864/410 519/865/410
f 519/865/410 515/864/410 516/839/410 520/838/410
f 524/866/424 508/867/424 507/868/424 522/869/424
f 518/785/409 514/775/409 513/782/409 517/781/409
f 472/870/424 523/871/424 521/872/424 460/873/424
f 523/871/424 524/866/424 522/869/424 521/872/424
f 449/874/415 528/875/415 526/876/415 463/877/415
f 528/875/415 527/844/415 525/847/415 526/876/415
f 527/844/448 522/869/448 507/868/449 496/845/449
f 525/843/447 524/842/447 523/792/427 526/791/427
f 449/874/450 460/873/450 521/872/451 528/875/451
f 528/875/451 521/872/451 522/869/448 527/844/448
f 469/878/424 532/879/424 530/880/424 457/881/424
f 532/879/424 531/882/424 529/883/424 530/880/424
f 491/884/415 492/885/415 536/886/415 534/887/415
f 534/887/415 536/886/415 535/835/415 533/834/415
f 535/835/452 529/883/452 462/888/453 497/836/453
f 533/833/445 531/832/445 532/780/425 534/779/425
f 492/885/454 457/881/454 530/880/455 536/886/455
f 536/886/455 530/880/455 529/883/452 535/835/452
f 453/889/424 466/890/424 544/891/424 542/892/424
f 537/893/415 538/827/415 540/826/415 539/715/415
f 454/718/415 486/894/415 537/893/415 539/715/415
f 537/719/410 543/722/410 544/895/410 538/896/410
f 487/732/410 538/896/410 544/895/410 466/733/410
f 541/716/409 539/715/409 540/826/409 542/892/409
f 488/829/409 453/889/409 542/892/409 540/826/409
f 553/856/424 555/801/424 556/897/424 554/898/424
f 510/794/424 547/787/424 545/790/424 509/899/424
f 551/848/415 549/851/415 550/793/415 552/900/415
f 471/901/415 552/900/415 550/793/415 459/795/415
f 545/902/456 546/797/431 551/796/431 552/903/456
f 471/759/457 509/758/457 545/902/456 552/903/456
f 547/787/429 550/793/429 549/851/458 548/788/458
f 503/850/409 502/852/409 548/788/458 549/851/458
f 500/904/424 465/905/424 554/898/424 556/897/424
f 559/800/415 557/855/415 558/906/415 560/907/415
f 450/908/415 560/907/415 558/906/415 464/909/415
f 555/801/434 559/800/434 560/907/459 556/897/459
f 450/908/460 500/904/460 556/897/459 560/907/459
f 553/910/461 554/799/432 558/798/432 557/911/461
f 470/767/462 467/766/462 553/910/461 557/911/461
f 485/824/424 452/825/424 480/912/424 479/913/424
f 543/830/424 541/716/424 542/892/424 544/891/424
f 531/882/424 474/914/424 462/888/424 529/883/424
f 651/915/410 653/916/410 573/917/410 566/918/410
f 649/919/409 598/920/409 610/921/409 655/922/409
f 604/923/419 603/924/419 581/925/419 569/926/419
f 568/927/421 580/928/421 606/929/421 605/930/421
f 600/931/417 599/932/417 578/933/417 565/934/417
f 574/935/420 586/936/420 585/937/420 609/938/420
f 643/939/415 586/940/415 574/941/415 641/942/415
f 573/943/422 610/921/422 598/920/422 566/944/422
f 562/945/413 576/946/413 577/947/413 612/948/413
f 597/949/415 564/950/415 592/951/415 591/952/415
f 561/953/423 575/954/423 584/955/423 572/956/423
f 615/957/411 616/958/411 613/959/411 614/960/411
f 622/961/414 621/962/414 583/963/414 571/964/414
f 619/965/412 620/966/412 607/967/412 608/968/412
f 624/969/416 579/970/416 582/971/416 570/972/416
f 601/973/418 602/974/418 617/975/418 618/976/418
f 563/977/410 590/978/410 589/979/410 567/980/410
f 646/981/463 644/982/463 581/925/464 603/924/464
f 629/983/465 625/984/465 568/985/466 605/986/466
f 632/987/467 628/988/467 617/975/468 602/974/468
f 639/989/469 634/990/469 619/991/470 608/992/470
f 638/993/471 635/994/471 584/955/472 575/954/472
f 662/995/473 659/996/473 622/997/474 571/998/474
f 663/999/475 658/1000/475 613/959/409 616/958/409
f 670/1001/476 666/1002/476 577/947/477 576/946/477
f 579/970/478 665/1003/479 669/1004/479 582/971/478
f 567/1005/440 589/1006/441 596/1007/441 623/1008/440
f 623/1008/409 596/1007/409 595/1009/409 611/1010/409
f 590/1011/442 563/1012/443 611/1010/443 595/1009/442
f 591/1013/436 593/1014/437 588/1015/437 597/1016/436
f 591/1013/409 592/1017/409 594/1018/409 593/1014/409
f 594/1018/438 592/1017/439 564/1019/439 587/1020/438
f 593/1021/437 594/1022/438 587/1023/438 588/1024/437
f 597/949/410 588/1024/410 587/1023/410 564/950/410
f 652/1025/424 650/1026/424 599/1027/424 600/1028/424
f 653/916/415 655/1029/415 610/1030/415 573/917/415
f 586/936/480 643/1031/481 645/1032/481 585/937/480
f 645/1033/424 647/1034/424 609/1035/424 585/1036/424
f 632/1037/424 602/1038/424 601/1039/424 630/1040/424
f 626/1041/415 618/1042/415 617/1043/415 628/1044/415
f 639/989/424 608/992/424 607/1045/424 637/1046/424
f 636/1047/415 620/1048/415 619/991/415 634/990/415
f 663/1049/424 616/1050/424 615/1051/424 661/1052/424
f 660/1053/415 614/1054/415 613/1055/415 658/1056/415
f 671/1057/482 667/1058/482 624/1059/483 570/1060/483
f 671/1057/424 570/1060/424 582/1061/424 669/1062/424
f 589/979/441 590/978/442 595/1063/442 596/1064/441
f 568/985/415 625/984/415 627/1065/415 580/1066/415
f 631/1067/424 632/1037/424 630/1040/424 629/983/424
f 606/1068/424 631/1067/424 629/983/424 605/986/424
f 627/1069/484 628/988/467 632/987/467 631/1070/484
f 606/929/485 580/928/485 627/1069/484 631/1070/484
f 625/984/465 629/983/465 630/1040/486 626/1041/486
f 601/1039/487 618/1042/487 626/1041/486 630/1040/486
f 584/1071/415 635/1072/415 633/1073/415 572/1074/415
f 639/989/424 637/1046/424 638/1075/424 640/1076/424
f 561/1077/424 640/1076/424 638/1075/424 575/1078/424
f 635/994/471 638/993/471 637/1079/488 636/1080/488
f 607/967/489 620/966/489 636/1080/488 637/1079/488
f 633/1073/490 634/990/469 639/989/469 640/1076/490
f 561/1077/491 572/1074/491 633/1073/490 640/1076/490
f 625/984/415 626/1041/415 628/1044/415 627/1065/415
f 581/1081/415 644/1082/415 642/1083/415 569/1084/415
f 644/1082/415 643/939/415 641/942/415 642/1083/415
f 603/1085/424 604/1086/424 648/1087/424 646/1088/424
f 646/1088/424 648/1087/424 647/1034/424 645/1033/424
f 647/1034/492 641/942/492 574/941/493 609/1035/493
f 645/1032/481 643/1031/481 644/982/463 646/981/463
f 604/1086/494 569/1084/494 642/1083/495 648/1087/495
f 648/1087/495 642/1083/495 641/942/492 647/1034/492
f 565/1089/415 578/1090/415 656/1091/415 654/1092/415
f 649/1093/424 650/1026/424 652/1025/424 651/915/424
f 566/918/424 598/1094/424 649/1093/424 651/915/424
f 649/919/409 655/922/409 656/1095/409 650/1096/409
f 599/932/409 650/1096/409 656/1095/409 578/933/409
f 653/916/410 651/915/410 652/1025/410 654/1092/410
f 600/1028/410 565/1089/410 654/1092/410 652/1025/410
f 622/997/415 659/996/415 657/1097/415 621/1098/415
f 663/1049/424 661/1052/424 662/995/424 664/1099/424
f 583/1100/424 664/1099/424 662/995/424 571/998/424
f 657/1101/496 658/1000/475 663/999/475 664/1102/496
f 583/963/497 621/962/497 657/1101/496 664/1102/496
f 659/996/473 662/995/473 661/1052/498 660/1053/498
f 615/1051/410 614/1054/410 660/1053/498 661/1052/498
f 635/1072/415 636/1047/415 634/990/415 633/1073/415
f 612/1103/415 577/1104/415 666/1105/415 668/1106/415
f 668/1106/415 666/1105/415 665/1107/415 667/1058/415
f 562/1108/424 672/1109/424 670/1110/424 576/1111/424
f 672/1109/424 671/1057/424 669/1062/424 670/1110/424
f 562/1108/499 612/1103/499 668/1106/500 672/1109/500
f 672/1109/500 668/1106/500 667/1058/482 671/1057/482
f 563/977/424 567/980/424 623/1112/424 611/1113/424
f 669/1004/479 665/1003/479 666/1002/476 670/1001/476
f 667/1058/415 665/1107/415 579/1114/415 624/1059/415
f 659/996/415 660/1053/415 658/1056/415 657/1097/415
f 655/1029/415 653/916/415 654/1092/415 656/1091/415
