mtllib floor.mtl
o CursedChairFloor
usemtl FloorMaterial
v -6.000000 0.000000 -6.000000
v -5.400000 0.000000 -6.000000
v -4.800000 0.000000 -6.000000
v -4.200000 0.000000 -6.000000
v -3.600000 0.000000 -6.000000
v -3.000000 0.000000 -6.000000
v -2.400000 0.000000 -6.000000
v -1.800000 0.000000 -6.000000
v -1.200000 0.000000 -6.000000
v -0.600000 0.000000 -6.000000
v 0.000000 0.000000 -6.000000
v 0.600000 0.000000 -6.000000
v 1.200000 0.000000 -6.000000
v 1.800000 0.000000 -6.000000
v 2.400000 0.000000 -6.000000
v 3.000000 0.000000 -6.000000
v 3.600000 0.000000 -6.000000
v 4.200000 0.000000 -6.000000
v 4.800000 0.000000 -6.000000
v 5.400000 0.000000 -6.000000
v 6.000000 0.000000 -6.000000
v -6.000000 0.000000 -5.400000
v -5.400000 0.000000 -5.400000
v -4.800000 0.000000 -5.400000
v -4.200000 0.000000 -5.400000
v -3.600000 0.000000 -5.400000
v -3.000000 0.000000 -5.400000
v -2.400000 0.000000 -5.400000
v -1.800000 0.000000 -5.400000
v -1.200000 0.000000 -5.400000
v -0.600000 0.000000 -5.400000
v 0.000000 0.000000 -5.400000
v 0.600000 0.000000 -5.400000
v 1.200000 0.000000 -5.400000
v 1.800000 0.000000 -5.400000
v 2.400000 0.000000 -5.400000
v 3.000000 0.000000 -5.400000
v 3.600000 0.000000 -5.400000
v 4.200000 0.000000 -5.400000
v 4.800000 0.000000 -5.400000
v 5.400000 0.000000 -5.400000
v 6.000000 0.000000 -5.400000
v -6.000000 0.000000 -4.800000
v -5.400000 0.000000 -4.800000
v -4.800000 0.000000 -4.800000
v -4.200000 0.000000 -4.800000
v -3.600000 0.000000 -4.800000
v -3.000000 0.000000 -4.800000
v -2.400000 0.000000 -4.800000
v -1.800000 0.000000 -4.800000
v -1.200000 0.000000 -4.800000
v -0.600000 0.000000 -4.800000
v 0.000000 0.000000 -4.800000
v 0.600000 0.000000 -4.800000
v 1.200000 0.000000 -4.800000
v 1.800000 0.000000 -4.800000
v 2.400000 0.000000 -4.800000
v 3.000000 0.000000 -4.800000
v 3.600000 0.000000 -4.800000
v 4.200000 0.000000 -4.800000
v 4.800000 0.000000 -4.800000
v 5.400000 0.000000 -4.800000
v 6.000000 0.000000 -4.800000
v -6.000000 0.000000 -4.200000
v -5.400000 0.000000 -4.200000
v -4.800000 0.000000 -4.200000
v -4.200000 0.000000 -4.200000
v -3.600000 0.000000 -4.200000
v -3.000000 0.000000 -4.200000
v -2.400000 0.000000 -4.200000
v -1.800000 0.000000 -4.200000
v -1.200000 0.000000 -4.200000
v -0.600000 0.000000 -4.200000
v 0.000000 0.000000 -4.200000
v 0.600000 0.000000 -4.200000
v 1.200000 0.000000 -4.200000
v 1.800000 0.000000 -4.200000
v 2.400000 0.000000 -4.200000
v 3.000000 0.000000 -4.200000
v 3.600000 0.000000 -4.200000
v 4.200000 0.000000 -4.200000
v 4.800000 0.000000 -4.200000
v 5.400000 0.000000 -4.200000
v 6.000000 0.000000 -4.200000
v -6.000000 0.000000 -3.600000
v -5.400000 0.000000 -3.600000
v -4.800000 0.000000 -3.600000
v -4.200000 0.000000 -3.600000
v -3.600000 0.000000 -3.600000
v -3.000000 0.000000 -3.600000
v -2.400000 0.000000 -3.600000
v -1.800000 0.000000 -3.600000
v -1.200000 0.000000 -3.600000
v -0.600000 0.000000 -3.600000
v 0.000000 0.000000 -3.600000
v 0.600000 0.000000 -3.600000
v 1.200000 0.000000 -3.600000
v 1.800000 0.000000 -3.600000
v 2.400000 0.000000 -3.600000
v 3.000000 0.000000 -3.600000
v 3.600000 0.000000 -3.600000
v 4.200000 0.000000 -3.600000
v 4.800000 0.000000 -3.600000
v 5.400000 0.000000 -3.600000
v 6.000000 0.000000 -3.600000
v -6.000000 0.000000 -3.000000
v -5.400000 0.000000 -3.000000
v -4.800000 0.000000 -3.000000
v -4.200000 0.000000 -3.000000
v -3.600000 0.000000 -3.000000
v -3.000000 0.000000 -3.000000
v -2.400000 0.000000 -3.000000
v -1.800000 0.000000 -3.000000
v -1.200000 0.000000 -3.000000
v -0.600000 0.000000 -3.000000
v 0.000000 0.000000 -3.000000
v 0.600000 0.000000 -3.000000
v 1.200000 0.000000 -3.000000
v 1.800000 0.000000 -3.000000
v 2.400000 0.000000 -3.000000
v 3.000000 0.000000 -3.000000
v 3.600000 0.000000 -3.000000
v 4.200000 0.000000 -3.000000
v 4.800000 0.000000 -3.000000
v 5.400000 0.000000 -3.000000
v 6.000000 0.000000 -3.000000
v -6.000000 0.000000 -2.400000
v -5.400000 0.000000 -2.400000
v -4.800000 0.000000 -2.400000
v -4.200000 0.000000 -2.400000
v -3.600000 0.000000 -2.400000
v -3.000000 0.000000 -2.400000
v -2.400000 0.000000 -2.400000
v -1.800000 0.000000 -2.400000
v -1.200000 0.000000 -2.400000
v -0.600000 0.000000 -2.400000
v 0.000000 0.000000 -2.400000
v 0.600000 0.000000 -2.400000
v 1.200000 0.000000 -2.400000
v 1.800000 0.000000 -2.400000
v 2.400000 0.000000 -2.400000
v 3.000000 0.000000 -2.400000
v 3.600000 0.000000 -2.400000
v 4.200000 0.000000 -2.400000
v 4.800000 0.000000 -2.400000
v 5.400000 0.000000 -2.400000
v 6.000000 0.000000 -2.400000
v -6.000000 0.000000 -1.800000
v -5.400000 0.000000 -1.800000
v -4.800000 0.000000 -1.800000
v -4.200000 0.000000 -1.800000
v -3.600000 0.000000 -1.800000
v -3.000000 0.000000 -1.800000
v -2.400000 0.000000 -1.800000
v -1.800000 0.000000 -1.800000
v -1.200000 0.000000 -1.800000
v -0.600000 0.000000 -1.800000
v 0.000000 0.000000 -1.800000
v 0.600000 0.000000 -1.800000
v 1.200000 0.000000 -1.800000
v 1.800000 0.000000 -1.800000
v 2.400000 0.000000 -1.800000
v 3.000000 0.000000 -1.800000
v 3.600000 0.000000 -1.800000
v 4.200000 0.000000 -1.800000
v 4.800000 0.000000 -1.800000
v 5.400000 0.000000 -1.800000
v 6.000000 0.000000 -1.800000
v -6.000000 0.000000 -1.200000
v -5.400000 0.000000 -1.200000
v -4.800000 0.000000 -1.200000
v -4.200000 0.000000 -1.200000
v -3.600000 0.000000 -1.200000
v -3.000000 0.000000 -1.200000
v -2.400000 0.000000 -1.200000
v -1.800000 0.000000 -1.200000
v -1.200000 0.000000 -1.200000
v -0.600000 0.000000 -1.200000
v 0.000000 0.000000 -1.200000
v 0.600000 0.000000 -1.200000
v 1.200000 0.000000 -1.200000
v 1.800000 0.000000 -1.200000
v 2.400000 0.000000 -1.200000
v 3.000000 0.000000 -1.200000
v 3.600000 0.000000 -1.200000
v 4.200000 0.000000 -1.200000
v 4.800000 0.000000 -1.200000
v 5.400000 0.000000 -1.200000
v 6.000000 0.000000 -1.200000
v -6.000000 0.000000 -0.600000
v -5.400000 0.000000 -0.600000
v -4.800000 0.000000 -0.600000
v -4.200000 0.000000 -0.600000
v -3.600000 0.000000 -0.600000
v -3.000000 0.000000 -0.600000
v -2.400000 0.000000 -0.600000
v -1.800000 0.000000 -0.600000
v -1.200000 0.000000 -0.600000
v -0.600000 0.000000 -0.600000
v 0.000000 0.000000 -0.600000
v 0.600000 0.000000 -0.600000
v 1.200000 0.000000 -0.600000
v 1.800000 0.000000 -0.600000
v 2.400000 0.000000 -0.600000
v 3.000000 0.000000 -0.600000
v 3.600000 0.000000 -0.600000
v 4.200000 0.000000 -0.600000
v 4.800000 0.000000 -0.600000
v 5.400000 0.000000 -0.600000
v 6.000000 0.000000 -0.600000
v -6.000000 0.000000 0.000000
v -5.400000 0.000000 0.000000
v -4.800000 0.000000 0.000000
v -4.200000 0.000000 0.000000
v -3.600000 0.000000 0.000000
v -3.000000 0.000000 0.000000
v -2.400000 0.000000 0.000000
v -1.800000 0.000000 0.000000
v -1.200000 0.000000 0.000000
v -0.600000 0.000000 0.000000
v 0.000000 0.000000 0.000000
v 0.600000 0.000000 0.000000
v 1.200000 0.000000 0.000000
v 1.800000 0.000000 0.000000
v 2.400000 0.000000 0.000000
v 3.000000 0.000000 0.000000
v 3.600000 0.000000 0.000000
v 4.200000 0.000000 0.000000
v 4.800000 0.000000 0.000000
v 5.400000 0.000000 0.000000
v 6.000000 0.000000 0.000000
v -6.000000 0.000000 0.600000
v -5.400000 0.000000 0.600000
v -4.800000 0.000000 0.600000
v -4.200000 0.000000 0.600000
v -3.600000 0.000000 0.600000
v -3.000000 0.000000 0.600000
v -2.400000 0.000000 0.600000
v -1.800000 0.000000 0.600000
v -1.200000 0.000000 0.600000
v -0.600000 0.000000 0.600000
v 0.000000 0.000000 0.600000
v 0.600000 0.000000 0.600000
v 1.200000 0.000000 0.600000
v 1.800000 0.000000 0.600000
v 2.400000 0.000000 0.600000
v 3.000000 0.000000 0.600000
v 3.600000 0.000000 0.600000
v 4.200000 0.000000 0.600000
v 4.800000 0.000000 0.600000
v 5.400000 0.000000 0.600000
v 6.000000 0.000000 0.600000
v -6.000000 0.000000 1.200000
v -5.400000 0.000000 1.200000
v -4.800000 0.000000 1.200000
v -4.200000 0.000000 1.200000
v -3.600000 0.000000 1.200000
v -3.000000 0.000000 1.200000
v -2.400000 0.000000 1.200000
v -1.800000 0.000000 1.200000
v -1.200000 0.000000 1.200000
v -0.600000 0.000000 1.200000
v 0.000000 0.000000 1.200000
v 0.600000 0.000000 1.200000
v 1.200000 0.000000 1.200000
v 1.800000 0.000000 1.200000
v 2.400000 0.000000 1.200000
v 3.000000 0.000000 1.200000
v 3.600000 0.000000 1.200000
v 4.200000 0.000000 1.200000
v 4.800000 0.000000 1.200000
v 5.400000 0.000000 1.200000
v 6.000000 0.000000 1.200000
v -6.000000 0.000000 1.800000
v -5.400000 0.000000 1.800000
v -4.800000 0.000000 1.800000
v -4.200000 0.000000 1.800000
v -3.600000 0.000000 1.800000
v -3.000000 0.000000 1.800000
v -2.400000 0.000000 1.800000
v -1.800000 0.000000 1.800000
v -1.200000 0.000000 1.800000
v -0.600000 0.000000 1.800000
v 0.000000 0.000000 1.800000
v 0.600000 0.000000 1.800000
v 1.200000 0.000000 1.800000
v 1.800000 0.000000 1.800000
v 2.400000 0.000000 1.800000
v 3.000000 0.000000 1.800000
v 3.600000 0.000000 1.800000
v 4.200000 0.000000 1.800000
v 4.800000 0.000000 1.800000
v 5.400000 0.000000 1.800000
v 6.000000 0.000000 1.800000
v -6.000000 0.000000 2.400000
v -5.400000 0.000000 2.400000
v -4.800000 0.000000 2.400000
v -4.200000 0.000000 2.400000
v -3.600000 0.000000 2.400000
v -3.000000 0.000000 2.400000
v -2.400000 0.000000 2.400000
v -1.800000 0.000000 2.400000
v -1.200000 0.000000 2.400000
v -0.600000 0.000000 2.400000
v 0.000000 0.000000 2.400000
v 0.600000 0.000000 2.400000
v 1.200000 0.000000 2.400000
v 1.800000 0.000000 2.400000
v 2.400000 0.000000 2.400000
v 3.000000 0.000000 2.400000
v 3.600000 0.000000 2.400000
v 4.200000 0.000000 2.400000
v 4.800000 0.000000 2.400000
v 5.400000 0.000000 2.400000
v 6.000000 0.000000 2.400000
v -6.000000 0.000000 3.000000
v -5.400000 0.000000 3.000000
v -4.800000 0.000000 3.000000
v -4.200000 0.000000 3.000000
v -3.600000 0.000000 3.000000
v -3.000000 0.000000 3.000000
v -2.400000 0.000000 3.000000
v -1.800000 0.000000 3.000000
v -1.200000 0.000000 3.000000
v -0.600000 0.000000 3.000000
v 0.000000 0.000000 3.000000
v 0.600000 0.000000 3.000000
v 1.200000 0.000000 3.000000
v 1.800000 0.000000 3.000000
v 2.400000 0.000000 3.000000
v 3.000000 0.000000 3.000000
v 3.600000 0.000000 3.000000
v 4.200000 0.000000 3.000000
v 4.800000 0.000000 3.000000
v 5.400000 0.000000 3.000000
v 6.000000 0.000000 3.000000
v -6.000000 0.000000 3.600000
v -5.400000 0.000000 3.600000
v -4.800000 0.000000 3.600000
v -4.200000 0.000000 3.600000
v -3.600000 0.000000 3.600000
v -3.000000 0.000000 3.600000
v -2.400000 0.000000 3.600000
v -1.800000 0.000000 3.600000
v -1.200000 0.000000 3.600000
v -0.600000 0.000000 3.600000
v 0.000000 0.000000 3.600000
v 0.600000 0.000000 3.600000
v 1.200000 0.000000 3.600000
v 1.800000 0.000000 3.600000
v 2.400000 0.000000 3.600000
v 3.000000 0.000000 3.600000
v 3.600000 0.000000 3.600000
v 4.200000 0.000000 3.600000
v 4.800000 0.000000 3.600000
v 5.400000 0.000000 3.600000
v 6.000000 0.000000 3.600000
v -6.000000 0.000000 4.200000
v -5.400000 0.000000 4.200000
v -4.800000 0.000000 4.200000
v -4.200000 0.000000 4.200000
v -3.600000 0.000000 4.200000
v -3.000000 0.000000 4.200000
v -2.400000 0.000000 4.200000
v -1.800000 0.000000 4.200000
v -1.200000 0.000000 4.200000
v -0.600000 0.000000 4.200000
v 0.000000 0.000000 4.200000
v 0.600000 0.000000 4.200000
v 1.200000 0.000000 4.200000
v 1.800000 0.000000 4.200000
v 2.400000 0.000000 4.200000
v 3.000000 0.000000 4.200000
v 3.600000 0.000000 4.200000
v 4.200000 0.000000 4.200000
v 4.800000 0.000000 4.200000
v 5.400000 0.000000 4.200000
v 6.000000 0.000000 4.200000
v -6.000000 0.000000 4.800000
v -5.400000 0.000000 4.800000
v -4.800000 0.000000 4.800000
v -4.200000 0.000000 4.800000
v -3.600000 0.000000 4.800000
v -3.000000 0.000000 4.800000
v -2.400000 0.000000 4.800000
v -1.800000 0.000000 4.800000
v -1.200000 0.000000 4.800000
v -0.600000 0.000000 4.800000
v 0.000000 0.000000 4.800000
v 0.600000 0.000000 4.800000
v 1.200000 0.000000 4.800000
v 1.800000 0.000000 4.800000
v 2.400000 0.000000 4.800000
v 3.000000 0.000000 4.800000
v 3.600000 0.000000 4.800000
v 4.200000 0.000000 4.800000
v 4.800000 0.000000 4.800000
v 5.400000 0.000000 4.800000
v 6.000000 0.000000 4.800000
v -6.000000 0.000000 5.400000
v -5.400000 0.000000 5.400000
v -4.800000 0.000000 5.400000
v -4.200000 0.000000 5.400000
v -3.600000 0.000000 5.400000
v -3.000000 0.000000 5.400000
v -2.400000 0.000000 5.400000
v -1.800000 0.000000 5.400000
v -1.200000 0.000000 5.400000
v -0.600000 0.000000 5.400000
v 0.000000 0.000000 5.400000
v 0.600000 0.000000 5.400000
v 1.200000 0.000000 5.400000
v 1.800000 0.000000 5.400000
v 2.400000 0.000000 5.400000
v 3.000000 0.000000 5.400000
v 3.600000 0.000000 5.400000
v 4.200000 0.000000 5.400000
v 4.800000 0.000000 5.400000
v 5.400000 0.000000 5.400000
v 6.000000 0.000000 5.400000
v -6.000000 0.000000 6.000000
v -5.400000 0.000000 6.000000
v -4.800000 0.000000 6.000000
v -4.200000 0.000000 6.000000
v -3.600000 0.000000 6.000000
v -3.000000 0.000000 6.000000
v -2.400000 0.000000 6.000000
v -1.800000 0.000000 6.000000
v -1.200000 0.000000 6.000000
v -0.600000 0.000000 6.000000
v 0.000000 0.000000 6.000000
v 0.600000 0.000000 6.000000
v 1.200000 0.000000 6.000000
v 1.800000 0.000000 6.000000
v 2.400000 0.000000 6.000000
v 3.000000 0.000000 6.000000
v 3.600000 0.000000 6.000000
v 4.200000 0.000000 6.000000
v 4.800000 0.000000 6.000000
v 5.400000 0.000000 6.000000
v 6.000000 0.000000 6.000000
v -6.000000 -0.180000 -6.000000
v -5.400000 -0.180000 -6.000000
v -4.800000 -0.180000 -6.000000
v -4.200000 -0.180000 -6.000000
v -3.600000 -0.180000 -6.000000
v -3.000000 -0.180000 -6.000000
v -2.400000 -0.180000 -6.000000
v -1.800000 -0.180000 -6.000000
v -1.200000 -0.180000 -6.000000
v -0.600000 -0.180000 -6.000000
v 0.000000 -0.180000 -6.000000
v 0.600000 -0.180000 -6.000000
v 1.200000 -0.180000 -6.000000
v 1.800000 -0.180000 -6.000000
v 2.400000 -0.180000 -6.000000
v 3.000000 -0.180000 -6.000000
v 3.600000 -0.180000 -6.000000
v 4.200000 -0.180000 -6.000000
v 4.800000 -0.180000 -6.000000
v 5.400000 -0.180000 -6.000000
v 6.000000 -0.180000 -6.000000
v -6.000000 -0.180000 -5.400000
v -5.400000 -0.180000 -5.400000
v -4.800000 -0.180000 -5.400000
v -4.200000 -0.180000 -5.400000
v -3.600000 -0.180000 -5.400000
v -3.000000 -0.180000 -5.400000
v -2.400000 -0.180000 -5.400000
v -1.800000 -0.180000 -5.400000
v -1.200000 -0.180000 -5.400000
v -0.600000 -0.180000 -5.400000
v 0.000000 -0.180000 -5.400000
v 0.600000 -0.180000 -5.400000
v 1.200000 -0.180000 -5.400000
v 1.800000 -0.180000 -5.400000
v 2.400000 -0.180000 -5.400000
v 3.000000 -0.180000 -5.400000
v 3.600000 -0.180000 -5.400000
v 4.200000 -0.180000 -5.400000
v 4.800000 -0.180000 -5.400000
v 5.400000 -0.180000 -5.400000
v 6.000000 -0.180000 -5.400000
v -6.000000 -0.180000 -4.800000
v -5.400000 -0.180000 -4.800000
v -4.800000 -0.180000 -4.800000
v -4.200000 -0.180000 -4.800000
v -3.600000 -0.180000 -4.800000
v -3.000000 -0.180000 -4.800000
v -2.400000 -0.180000 -4.800000
v -1.800000 -0.180000 -4.800000
v -1.200000 -0.180000 -4.800000
v -0.600000 -0.180000 -4.800000
v 0.000000 -0.180000 -4.800000
v 0.600000 -0.180000 -4.800000
v 1.200000 -0.180000 -4.800000
v 1.800000 -0.180000 -4.800000
v 2.400000 -0.180000 -4.800000
v 3.000000 -0.180000 -4.800000
v 3.600000 -0.180000 -4.800000
v 4.200000 -0.180000 -4.800000
v 4.800000 -0.180000 -4.800000
v 5.400000 -0.180000 -4.800000
v 6.000000 -0.180000 -4.800000
v -6.000000 -0.180000 -4.200000
v -5.400000 -0.180000 -4.200000
v -4.800000 -0.180000 -4.200000
v -4.200000 -0.180000 -4.200000
v -3.600000 -0.180000 -4.200000
v -3.000000 -0.180000 -4.200000
v -2.400000 -0.180000 -4.200000
v -1.800000 -0.180000 -4.200000
v -1.200000 -0.180000 -4.200000
v -0.600000 -0.180000 -4.200000
v 0.000000 -0.180000 -4.200000
v 0.600000 -0.180000 -4.200000
v 1.200000 -0.180000 -4.200000
v 1.800000 -0.180000 -4.200000
v 2.400000 -0.180000 -4.200000
v 3.000000 -0.180000 -4.200000
v 3.600000 -0.180000 -4.200000
v 4.200000 -0.180000 -4.200000
v 4.800000 -0.180000 -4.200000
v 5.400000 -0.180000 -4.200000
v 6.000000 -0.180000 -4.200000
v -6.000000 -0.180000 -3.600000
v -5.400000 -0.180000 -3.600000
v -4.800000 -0.180000 -3.600000
v -4.200000 -0.180000 -3.600000
v -3.600000 -0.180000 -3.600000
v -3.000000 -0.180000 -3.600000
v -2.400000 -0.180000 -3.600000
v -1.800000 -0.180000 -3.600000
v -1.200000 -0.180000 -3.600000
v -0.600000 -0.180000 -3.600000
v 0.000000 -0.180000 -3.600000
v 0.600000 -0.180000 -3.600000
v 1.200000 -0.180000 -3.600000
v 1.800000 -0.180000 -3.600000
v 2.400000 -0.180000 -3.600000
v 3.000000 -0.180000 -3.600000
v 3.600000 -0.180000 -3.600000
v 4.200000 -0.180000 -3.600000
v 4.800000 -0.180000 -3.600000
v 5.400000 -0.180000 -3.600000
v 6.000000 -0.180000 -3.600000
v -6.000000 -0.180000 -3.000000
v -5.400000 -0.180000 -3.000000
v -4.800000 -0.180000 -3.000000
v -4.200000 -0.180000 -3.000000
v -3.600000 -0.180000 -3.000000
v -3.000000 -0.180000 -3.000000
v -2.400000 -0.180000 -3.000000
v -1.800000 -0.180000 -3.000000
v -1.200000 -0.180000 -3.000000
v -0.600000 -0.180000 -3.000000
v 0.000000 -0.180000 -3.000000
v 0.600000 -0.180000 -3.000000
v 1.200000 -0.180000 -3.000000
v 1.800000 -0.180000 -3.000000
v 2.400000 -0.180000 -3.000000
v 3.000000 -0.180000 -3.000000
v 3.600000 -0.180000 -3.000000
v 4.200000 -0.180000 -3.000000
v 4.800000 -0.180000 -3.000000
v 5.400000 -0.180000 -3.000000
v 6.000000 -0.180000 -3.000000
v -6.000000 -0.180000 -2.400000
v -5.400000 -0.180000 -2.400000
v -4.800000 -0.180000 -2.400000
v -4.200000 -0.180000 -2.400000
v -3.600000 -0.180000 -2.400000
v -3.000000 -0.180000 -2.400000
v -2.400000 -0.180000 -2.400000
v -1.800000 -0.180000 -2.400000
v -1.200000 -0.180000 -2.400000
v -0.600000 -0.180000 -2.400000
v 0.000000 -0.180000 -2.400000
v 0.600000 -0.180000 -2.400000
v 1.200000 -0.180000 -2.400000
v 1.800000 -0.180000 -2.400000
v 2.400000 -0.180000 -2.400000
v 3.000000 -0.180000 -2.400000
v 3.600000 -0.180000 -2.400000
v 4.200000 -0.180000 -2.400000
v 4.800000 -0.180000 -2.400000
v 5.400000 -0.180000 -2.400000
v 6.000000 -0.180000 -2.400000
v -6.000000 -0.180000 -1.800000
v -5.400000 -0.180000 -1.800000
v -4.800000 -0.180000 -1.800000
v -4.200000 -0.180000 -1.800000
v -3.600000 -0.180000 -1.800000
v -3.000000 -0.180000 -1.800000
v -2.400000 -0.180000 -1.800000
v -1.800000 -0.180000 -1.800000
v -1.200000 -0.180000 -1.800000
v -0.600000 -0.180000 -1.800000
v 0.000000 -0.180000 -1.800000
v 0.600000 -0.180000 -1.800000
v 1.200000 -0.180000 -1.800000
v 1.800000 -0.180000 -1.800000
v 2.400000 -0.180000 -1.800000
v 3.000000 -0.180000 -1.800000
v 3.600000 -0.180000 -1.800000
v 4.200000 -0.180000 -1.800000
v 4.800000 -0.180000 -1.800000
v 5.400000 -0.180000 -1.800000
v 6.000000 -0.180000 -1.800000
v -6.000000 -0.180000 -1.200000
v -5.400000 -0.180000 -1.200000
v -4.800000 -0.180000 -1.200000
v -4.200000 -0.180000 -1.200000
v -3.600000 -0.180000 -1.200000
v -3.000000 -0.180000 -1.200000
v -2.400000 -0.180000 -1.200000
v -1.800000 -0.180000 -1.200000
v -1.200000 -0.180000 -1.200000
v -0.600000 -0.180000 -1.200000
v 0.000000 -0.180000 -1.200000
v 0.600000 -0.180000 -1.200000
v 1.200000 -0.180000 -1.200000
v 1.800000 -0.180000 -1.200000
v 2.400000 -0.180000 -1.200000
v 3.000000 -0.180000 -1.200000
v 3.600000 -0.180000 -1.200000
v 4.200000 -0.180000 -1.200000
v 4.800000 -0.180000 -1.200000
v 5.400000 -0.180000 -1.200000
v 6.000000 -0.180000 -1.200000
v -6.000000 -0.180000 -0.600000
v -5.400000 -0.180000 -0.600000
v -4.800000 -0.180000 -0.600000
v -4.200000 -0.180000 -0.600000
v -3.600000 -0.180000 -0.600000
v -3.000000 -0.180000 -0.600000
v -2.400000 -0.180000 -0.600000
v -1.800000 -0.180000 -0.600000
v -1.200000 -0.180000 -0.600000
v -0.600000 -0.180000 -0.600000
v 0.000000 -0.180000 -0.600000
v 0.600000 -0.180000 -0.600000
v 1.200000 -0.180000 -0.600000
v 1.800000 -0.180000 -0.600000
v 2.400000 -0.180000 -0.600000
v 3.000000 -0.180000 -0.600000
v 3.600000 -0.180000 -0.600000
v 4.200000 -0.180000 -0.600000
v 4.800000 -0.180000 -0.600000
v 5.400000 -0.180000 -0.600000
v 6.000000 -0.180000 -0.600000
v -6.000000 -0.180000 0.000000
v -5.400000 -0.180000 0.000000
v -4.800000 -0.180000 0.000000
v -4.200000 -0.180000 0.000000
v -3.600000 -0.180000 0.000000
v -3.000000 -0.180000 0.000000
v -2.400000 -0.180000 0.000000
v -1.800000 -0.180000 0.000000
v -1.200000 -0.180000 0.000000
v -0.600000 -0.180000 0.000000
v 0.000000 -0.180000 0.000000
v 0.600000 -0.180000 0.000000
v 1.200000 -0.180000 0.000000
v 1.800000 -0.180000 0.000000
v 2.400000 -0.180000 0.000000
v 3.000000 -0.180000 0.000000
v 3.600000 -0.180000 0.000000
v 4.200000 -0.180000 0.000000
v 4.800000 -0.180000 0.000000
v 5.400000 -0.180000 0.000000
v 6.000000 -0.180000 0.000000
v -6.000000 -0.180000 0.600000
v -5.400000 -0.180000 0.600000
v -4.800000 -0.180000 0.600000
v -4.200000 -0.180000 0.600000
v -3.600000 -0.180000 0.600000
v -3.000000 -0.180000 0.600000
v -2.400000 -0.180000 0.600000
v -1.800000 -0.180000 0.600000
v -1.200000 -0.180000 0.600000
v -0.600000 -0.180000 0.600000
v 0.000000 -0.180000 0.600000
v 0.600000 -0.180000 0.600000
v 1.200000 -0.180000 0.600000
v 1.800000 -0.180000 0.600000
v 2.400000 -0.180000 0.600000
v 3.000000 -0.180000 0.600000
v 3.600000 -0.180000 0.600000
v 4.200000 -0.180000 0.600000
v 4.800000 -0.180000 0.600000
v 5.400000 -0.180000 0.600000
v 6.000000 -0.180000 0.600000
v -6.000000 -0.180000 1.200000
v -5.400000 -0.180000 1.200000
v -4.800000 -0.180000 1.200000
v -4.200000 -0.180000 1.200000
v -3.600000 -0.180000 1.200000
v -3.000000 -0.180000 1.200000
v -2.400000 -0.180000 1.200000
v -1.800000 -0.180000 1.200000
v -1.200000 -0.180000 1.200000
v -0.600000 -0.180000 1.200000
v 0.000000 -0.180000 1.200000
v 0.600000 -0.180000 1.200000
v 1.200000 -0.180000 1.200000
v 1.800000 -0.180000 1.200000
v 2.400000 -0.180000 1.200000
v 3.000000 -0.180000 1.200000
v 3.600000 -0.180000 1.200000
v 4.200000 -0.180000 1.200000
v 4.800000 -0.180000 1.200000
v 5.400000 -0.180000 1.200000
v 6.000000 -0.180000 1.200000
v -6.000000 -0.180000 1.800000
v -5.400000 -0.180000 1.800000
v -4.800000 -0.180000 1.800000
v -4.200000 -0.180000 1.800000
v -3.600000 -0.180000 1.800000
v -3.000000 -0.180000 1.800000
v -2.400000 -0.180000 1.800000
v -1.800000 -0.180000 1.800000
v -1.200000 -0.180000 1.800000
v -0.600000 -0.180000 1.800000
v 0.000000 -0.180000 1.800000
v 0.600000 -0.180000 1.800000
v 1.200000 -0.180000 1.800000
v 1.800000 -0.180000 1.800000
v 2.400000 -0.180000 1.800000
v 3.000000 -0.180000 1.800000
v 3.600000 -0.180000 1.800000
v 4.200000 -0.180000 1.800000
v 4.800000 -0.180000 1.800000
v 5.400000 -0.180000 1.800000
v 6.000000 -0.180000 1.800000
v -6.000000 -0.180000 2.400000
v -5.400000 -0.180000 2.400000
v -4.800000 -0.180000 2.400000
v -4.200000 -0.180000 2.400000
v -3.600000 -0.180000 2.400000
v -3.000000 -0.180000 2.400000
v -2.400000 -0.180000 2.400000
v -1.800000 -0.180000 2.400000
v -1.200000 -0.180000 2.400000
v -0.600000 -0.180000 2.400000
v 0.000000 -0.180000 2.400000
v 0.600000 -0.180000 2.400000
v 1.200000 -0.180000 2.400000
v 1.800000 -0.180000 2.400000
v 2.400000 -0.180000 2.400000
v 3.000000 -0.180000 2.400000
v 3.600000 -0.180000 2.400000
v 4.200000 -0.180000 2.400000
v 4.800000 -0.180000 2.400000
v 5.400000 -0.180000 2.400000
v 6.000000 -0.180000 2.400000
v -6.000000 -0.180000 3.000000
v -5.400000 -0.180000 3.000000
v -4.800000 -0.180000 3.000000
v -4.200000 -0.180000 3.000000
v -3.600000 -0.180000 3.000000
v -3.000000 -0.180000 3.000000
v -2.400000 -0.180000 3.000000
v -1.800000 -0.180000 3.000000
v -1.200000 -0.180000 3.000000
v -0.600000 -0.180000 3.000000
v 0.000000 -0.180000 3.000000
v 0.600000 -0.180000 3.000000
v 1.200000 -0.180000 3.000000
v 1.800000 -0.180000 3.000000
v 2.400000 -0.180000 3.000000
v 3.000000 -0.180000 3.000000
v 3.600000 -0.180000 3.000000
v 4.200000 -0.180000 3.000000
v 4.800000 -0.180000 3.000000
v 5.400000 -0.180000 3.000000
v 6.000000 -0.180000 3.000000
v -6.000000 -0.180000 3.600000
v -5.400000 -0.180000 3.600000
v -4.800000 -0.180000 3.600000
v -4.200000 -0.180000 3.600000
v -3.600000 -0.180000 3.600000
v -3.000000 -0.180000 3.600000
v -2.400000 -0.180000 3.600000
v -1.800000 -0.180000 3.600000
v -1.200000 -0.180000 3.600000
v -0.600000 -0.180000 3.600000
v 0.000000 -0.180000 3.600000
v 0.600000 -0.180000 3.600000
v 1.200000 -0.180000 3.600000
v 1.800000 -0.180000 3.600000
v 2.400000 -0.180000 3.600000
v 3.000000 -0.180000 3.600000
v 3.600000 -0.180000 3.600000
v 4.200000 -0.180000 3.600000
v 4.800000 -0.180000 3.600000
v 5.400000 -0.180000 3.600000
v 6.000000 -0.180000 3.600000
v -6.000000 -0.180000 4.200000
v -5.400000 -0.180000 4.200000
v -4.800000 -0.180000 4.200000
v -4.200000 -0.180000 4.200000
v -3.600000 -0.180000 4.200000
v -3.000000 -0.180000 4.200000
v -2.400000 -0.180000 4.200000
v -1.800000 -0.180000 4.200000
v -1.200000 -0.180000 4.200000
v -0.600000 -0.180000 4.200000
v 0.000000 -0.180000 4.200000
v 0.600000 -0.180000 4.200000
v 1.200000 -0.180000 4.200000
v 1.800000 -0.180000 4.200000
v 2.400000 -0.180000 4.200000
v 3.000000 -0.180000 4.200000
v 3.600000 -0.180000 4.200000
v 4.200000 -0.180000 4.200000
v 4.800000 -0.180000 4.200000
v 5.400000 -0.180000 4.200000
v 6.000000 -0.180000 4.200000
v -6.000000 -0.180000 4.800000
v -5.400000 -0.180000 4.800000
v -4.800000 -0.180000 4.800000
v -4.200000 -0.180000 4.800000
v -3.600000 -0.180000 4.800000
v -3.000000 -0.180000 4.800000
v -2.400000 -0.180000 4.800000
v -1.800000 -0.180000 4.800000
v -1.200000 -0.180000 4.800000
v -0.600000 -0.180000 4.800000
v 0.000000 -0.180000 4.800000
v 0.600000 -0.180000 4.800000
v 1.200000 -0.180000 4.800000
v 1.800000 -0.180000 4.800000
v 2.400000 -0.180000 4.800000
v 3.000000 -0.180000 4.800000
v 3.600000 -0.180000 4.800000
v 4.200000 -0.180000 4.800000
v 4.800000 -0.180000 4.800000
v 5.400000 -0.180000 4.800000
v 6.000000 -0.180000 4.800000
v -6.000000 -0.180000 5.400000
v -5.400000 -0.180000 5.400000
v -4.800000 -0.180000 5.400000
v -4.200000 -0.180000 5.400000
v -3.600000 -0.180000 5.400000
v -3.000000 -0.180000 5.400000
v -2.400000 -0.180000 5.400000
v -1.800000 -0.180000 5.400000
v -1.200000 -0.180000 5.400000
v -0.600000 -0.180000 5.400000
v 0.000000 -0.180000 5.400000
v 0.600000 -0.180000 5.400000
v 1.200000 -0.180000 5.400000
v 1.800000 -0.180000 5.400000
v 2.400000 -0.180000 5.400000
v 3.000000 -0.180000 5.400000
v 3.600000 -0.180000 5.400000
v 4.200000 -0.180000 5.400000
v 4.800000 -0.180000 5.400000
v 5.400000 -0.180000 5.400000
v 6.000000 -0.180000 5.400000
v -6.000000 -0.180000 6.000000
v -5.400000 -0.180000 6.000000
v -4.800000 -0.180000 6.000000
v -4.200000 -0.180000 6.000000
v -3.600000 -0.180000 6.000000
v -3.000000 -0.180000 6.000000
v -2.400000 -0.180000 6.000000
v -1.800000 -0.180000 6.000000
v -1.200000 -0.180000 6.000000
v -0.600000 -0.180000 6.000000
v 0.000000 -0.180000 6.000000
v 0.600000 -0.180000 6.000000
v 1.200000 -0.180000 6.000000
v 1.800000 -0.180000 6.000000
v 2.400000 -0.180000 6.000000
v 3.000000 -0.180000 6.000000
v 3.600000 -0.180000 6.000000
v 4.200000 -0.180000 6.000000
v 4.800000 -0.180000 6.000000
v 5.400000 -0.180000 6.000000
v 6.000000 -0.180000 6.000000
v 6.000000 0.000000 -6.000000
v 6.000000 0.000000 6.000000
v 6.000000 -0.180000 6.000000
v 6.000000 -0.180000 -6.000000
v -6.000000 0.000000 6.000000
v -6.000000 0.000000 -6.000000
v -6.000000 -0.180000 -6.000000
v -6.000000 -0.180000 6.000000
v 6.000000 0.000000 6.000000
v -6.000000 0.000000 6.000000
v -6.000000 -0.180000 6.000000
v 6.000000 -0.180000 6.000000
v -6.000000 0.000000 -6.000000
v 6.000000 0.000000 -6.000000
v 6.000000 -0.180000 -6.000000
v -6.000000 -0.180000 -6.000000
vt 0.000000 0.000000
vt 0.300000 0.000000
vt 0.600000 0.000000
vt 0.900000 0.000000
vt 1.200000 0.000000
vt 1.500000 0.000000
vt 1.800000 0.000000
vt 2.100000 0.000000
vt 2.400000 0.000000
vt 2.700000 0.000000
vt 3.000000 0.000000
vt 3.300000 0.000000
vt 3.600000 0.000000
vt 3.900000 0.000000
vt 4.200000 0.000000
vt 4.500000 0.000000
vt 4.800000 0.000000
vt 5.100000 0.000000
vt 5.400000 0.000000
vt 5.700000 0.000000
vt 6.000000 0.000000
vt 0.000000 0.300000
vt 0.300000 0.300000
vt 0.600000 0.300000
vt 0.900000 0.300000
vt 1.200000 0.300000
vt 1.500000 0.300000
vt 1.800000 0.300000
vt 2.100000 0.300000
vt 2.400000 0.300000
vt 2.700000 0.300000
vt 3.000000 0.300000
vt 3.300000 0.300000
vt 3.600000 0.300000
vt 3.900000 0.300000
vt 4.200000 0.300000
vt 4.500000 0.300000
vt 4.800000 0.300000
vt 5.100000 0.300000
vt 5.400000 0.300000
vt 5.700000 0.300000
vt 6.000000 0.300000
vt 0.000000 0.600000
vt 0.300000 0.600000
vt 0.600000 0.600000
vt 0.900000 0.600000
vt 1.200000 0.600000
vt 1.500000 0.600000
vt 1.800000 0.600000
vt 2.100000 0.600000
vt 2.400000 0.600000
vt 2.700000 0.600000
vt 3.000000 0.600000
vt 3.300000 0.600000
vt 3.600000 0.600000
vt 3.900000 0.600000
vt 4.200000 0.600000
vt 4.500000 0.600000
vt 4.800000 0.600000
vt 5.100000 0.600000
vt 5.400000 0.600000
vt 5.700000 0.600000
vt 6.000000 0.600000
vt 0.000000 0.900000
vt 0.300000 0.900000
vt 0.600000 0.900000
vt 0.900000 0.900000
vt 1.200000 0.900000
vt 1.500000 0.900000
vt 1.800000 0.900000
vt 2.100000 0.900000
vt 2.400000 0.900000
vt 2.700000 0.900000
vt 3.000000 0.900000
vt 3.300000 0.900000
vt 3.600000 0.900000
vt 3.900000 0.900000
vt 4.200000 0.900000
vt 4.500000 0.900000
vt 4.800000 0.900000
vt 5.100000 0.900000
vt 5.400000 0.900000
vt 5.700000 0.900000
vt 6.000000 0.900000
vt 0.000000 1.200000
vt 0.300000 1.200000
vt 0.600000 1.200000
vt 0.900000 1.200000
vt 1.200000 1.200000
vt 1.500000 1.200000
vt 1.800000 1.200000
vt 2.100000 1.200000
vt 2.400000 1.200000
vt 2.700000 1.200000
vt 3.000000 1.200000
vt 3.300000 1.200000
vt 3.600000 1.200000
vt 3.900000 1.200000
vt 4.200000 1.200000
vt 4.500000 1.200000
vt 4.800000 1.200000
vt 5.100000 1.200000
vt 5.400000 1.200000
vt 5.700000 1.200000
vt 6.000000 1.200000
vt 0.000000 1.500000
vt 0.300000 1.500000
vt 0.600000 1.500000
vt 0.900000 1.500000
vt 1.200000 1.500000
vt 1.500000 1.500000
vt 1.800000 1.500000
vt 2.100000 1.500000
vt 2.400000 1.500000
vt 2.700000 1.500000
vt 3.000000 1.500000
vt 3.300000 1.500000
vt 3.600000 1.500000
vt 3.900000 1.500000
vt 4.200000 1.500000
vt 4.500000 1.500000
vt 4.800000 1.500000
vt 5.100000 1.500000
vt 5.400000 1.500000
vt 5.700000 1.500000
vt 6.000000 1.500000
vt 0.000000 1.800000
vt 0.300000 1.800000
vt 0.600000 1.800000
vt 0.900000 1.800000
vt 1.200000 1.800000
vt 1.500000 1.800000
vt 1.800000 1.800000
vt 2.100000 1.800000
vt 2.400000 1.800000
vt 2.700000 1.800000
vt 3.000000 1.800000
vt 3.300000 1.800000
vt 3.600000 1.800000
vt 3.900000 1.800000
vt 4.200000 1.800000
vt 4.500000 1.800000
vt 4.800000 1.800000
vt 5.100000 1.800000
vt 5.400000 1.800000
vt 5.700000 1.800000
vt 6.000000 1.800000
vt 0.000000 2.100000
vt 0.300000 2.100000
vt 0.600000 2.100000
vt 0.900000 2.100000
vt 1.200000 2.100000
vt 1.500000 2.100000
vt 1.800000 2.100000
vt 2.100000 2.100000
vt 2.400000 2.100000
vt 2.700000 2.100000
vt 3.000000 2.100000
vt 3.300000 2.100000
vt 3.600000 2.100000
vt 3.900000 2.100000
vt 4.200000 2.100000
vt 4.500000 2.100000
vt 4.800000 2.100000
vt 5.100000 2.100000
vt 5.400000 2.100000
vt 5.700000 2.100000
vt 6.000000 2.100000
vt 0.000000 2.400000
vt 0.300000 2.400000
vt 0.600000 2.400000
vt 0.900000 2.400000
vt 1.200000 2.400000
vt 1.500000 2.400000
vt 1.800000 2.400000
vt 2.100000 2.400000
vt 2.400000 2.400000
vt 2.700000 2.400000
vt 3.000000 2.400000
vt 3.300000 2.400000
vt 3.600000 2.400000
vt 3.900000 2.400000
vt 4.200000 2.400000
vt 4.500000 2.400000
vt 4.800000 2.400000
vt 5.100000 2.400000
vt 5.400000 2.400000
vt 5.700000 2.400000
vt 6.000000 2.400000
vt 0.000000 2.700000
vt 0.300000 2.700000
vt 0.600000 2.700000
vt 0.900000 2.700000
vt 1.200000 2.700000
vt 1.500000 2.700000
vt 1.800000 2.700000
vt 2.100000 2.700000
vt 2.400000 2.700000
vt 2.700000 2.700000
vt 3.000000 2.700000
vt 3.300000 2.700000
vt 3.600000 2.700000
vt 3.900000 2.700000
vt 4.200000 2.700000
vt 4.500000 2.700000
vt 4.800000 2.700000
vt 5.100000 2.700000
vt 5.400000 2.700000
vt 5.700000 2.700000
vt 6.000000 2.700000
vt 0.000000 3.000000
vt 0.300000 3.000000
vt 0.600000 3.000000
vt 0.900000 3.000000
vt 1.200000 3.000000
vt 1.500000 3.000000
vt 1.800000 3.000000
vt 2.100000 3.000000
vt 2.400000 3.000000
vt 2.700000 3.000000
vt 3.000000 3.000000
vt 3.300000 3.000000
vt 3.600000 3.000000
vt 3.900000 3.000000
vt 4.200000 3.000000
vt 4.500000 3.000000
vt 4.800000 3.000000
vt 5.100000 3.000000
vt 5.400000 3.000000
vt 5.700000 3.000000
vt 6.000000 3.000000
vt 0.000000 3.300000
vt 0.300000 3.300000
vt 0.600000 3.300000
vt 0.900000 3.300000
vt 1.200000 3.300000
vt 1.500000 3.300000
vt 1.800000 3.300000
vt 2.100000 3.300000
vt 2.400000 3.300000
vt 2.700000 3.300000
vt 3.000000 3.300000
vt 3.300000 3.300000
vt 3.600000 3.300000
vt 3.900000 3.300000
vt 4.200000 3.300000
vt 4.500000 3.300000
vt 4.800000 3.300000
vt 5.100000 3.300000
vt 5.400000 3.300000
vt 5.700000 3.300000
vt 6.000000 3.300000
vt 0.000000 3.600000
vt 0.300000 3.600000
vt 0.600000 3.600000
vt 0.900000 3.600000
vt 1.200000 3.600000
vt 1.500000 3.600000
vt 1.800000 3.600000
vt 2.100000 3.600000
vt 2.400000 3.600000
vt 2.700000 3.600000
vt 3.000000 3.600000
vt 3.300000 3.600000
vt 3.600000 3.600000
vt 3.900000 3.600000
vt 4.200000 3.600000
vt 4.500000 3.600000
vt 4.800000 3.600000
vt 5.100000 3.600000
vt 5.400000 3.600000
vt 5.700000 3.600000
vt 6.000000 3.600000
vt 0.000000 3.900000
vt 0.300000 3.900000
vt 0.600000 3.900000
vt 0.900000 3.900000
vt 1.200000 3.900000
vt 1.500000 3.900000
vt 1.800000 3.900000
vt 2.100000 3.900000
vt 2.400000 3.900000
vt 2.700000 3.900000
vt 3.000000 3.900000
vt 3.300000 3.900000
vt 3.600000 3.900000
vt 3.900000 3.900000
vt 4.200000 3.900000
vt 4.500000 3.900000
vt 4.800000 3.900000
vt 5.100000 3.900000
vt 5.400000 3.900000
vt 5.700000 3.900000
vt 6.000000 3.900000
vt 0.000000 4.200000
vt 0.300000 4.200000
vt 0.600000 4.200000
vt 0.900000 4.200000
vt 1.200000 4.200000
vt 1.500000 4.200000
vt 1.800000 4.200000
vt 2.100000 4.200000
vt 2.400000 4.200000
vt 2.700000 4.200000
vt 3.000000 4.200000
vt 3.300000 4.200000
vt 3.600000 4.200000
vt 3.900000 4.200000
vt 4.200000 4.200000
vt 4.500000 4.200000
vt 4.800000 4.200000
vt 5.100000 4.200000
vt 5.400000 4.200000
vt 5.700000 4.200000
vt 6.000000 4.200000
vt 0.000000 4.500000
vt 0.300000 4.500000
vt 0.600000 4.500000
vt 0.900000 4.500000
vt 1.200000 4.500000
vt 1.500000 4.500000
vt 1.800000 4.500000
vt 2.100000 4.500000
vt 2.400000 4.500000
vt 2.700000 4.500000
vt 3.000000 4.500000
vt 3.300000 4.500000
vt 3.600000 4.500000
vt 3.900000 4.500000
vt 4.200000 4.500000
vt 4.500000 4.500000
vt 4.800000 4.500000
vt 5.100000 4.500000
vt 5.400000 4.500000
vt 5.700000 4.500000
vt 6.000000 4.500000
vt 0.000000 4.800000
vt 0.300000 4.800000
vt 0.600000 4.800000
vt 0.900000 4.800000
vt 1.200000 4.800000
vt 1.500000 4.800000
vt 1.800000 4.800000
vt 2.100000 4.800000
vt 2.400000 4.800000
vt 2.700000 4.800000
vt 3.000000 4.800000
vt 3.300000 4.800000
vt 3.600000 4.800000
vt 3.900000 4.800000
vt 4.200000 4.800000
vt 4.500000 4.800000
vt 4.800000 4.800000
vt 5.100000 4.800000
vt 5.400000 4.800000
vt 5.700000 4.800000
vt 6.000000 4.800000
vt 0.000000 5.100000
vt 0.300000 5.100000
vt 0.600000 5.100000
vt 0.900000 5.100000
vt 1.200000 5.100000
vt 1.500000 5.100000
vt 1.800000 5.100000
vt 2.100000 5.100000
vt 2.400000 5.100000
vt 2.700000 5.100000
vt 3.000000 5.100000
vt 3.300000 5.100000
vt 3.600000 5.100000
vt 3.900000 5.100000
vt 4.200000 5.100000
vt 4.500000 5.100000
vt 4.800000 5.100000
vt 5.100000 5.100000
vt 5.400000 5.100000
vt 5.700000 5.100000
vt 6.000000 5.100000
vt 0.000000 5.400000
vt 0.300000 5.400000
vt 0.600000 5.400000
vt 0.900000 5.400000
vt 1.200000 5.400000
vt 1.500000 5.400000
vt 1.800000 5.400000
vt 2.100000 5.400000
vt 2.400000 5.400000
vt 2.700000 5.400000
vt 3.000000 5.400000
vt 3.300000 5.400000
vt 3.600000 5.400000
vt 3.900000 5.400000
vt 4.200000 5.400000
vt 4.500000 5.400000
vt 4.800000 5.400000
vt 5.100000 5.400000
vt 5.400000 5.400000
vt 5.700000 5.400000
vt 6.000000 5.400000
vt 0.000000 5.700000
vt 0.300000 5.700000
vt 0.600000 5.700000
vt 0.900000 5.700000
vt 1.200000 5.700000
vt 1.500000 5.700000
vt 1.800000 5.700000
vt 2.100000 5.700000
vt 2.400000 5.700000
vt 2.700000 5.700000
vt 3.000000 5.700000
vt 3.300000 5.700000
vt 3.600000 5.700000
vt 3.900000 5.700000
vt 4.200000 5.700000
vt 4.500000 5.700000
vt 4.800000 5.700000
vt 5.100000 5.700000
vt 5.400000 5.700000
vt 5.700000 5.700000
vt 6.000000 5.700000
vt 0.000000 6.000000
vt 0.300000 6.000000
vt 0.600000 6.000000
vt 0.900000 6.000000
vt 1.200000 6.000000
vt 1.500000 6.000000
vt 1.800000 6.000000
vt 2.100000 6.000000
vt 2.400000 6.000000
vt 2.700000 6.000000
vt 3.000000 6.000000
vt 3.300000 6.000000
vt 3.600000 6.000000
vt 3.900000 6.000000
vt 4.200000 6.000000
vt 4.500000 6.000000
vt 4.800000 6.000000
vt 5.100000 6.000000
vt 5.400000 6.000000
vt 5.700000 6.000000
vt 6.000000 6.000000
vt 0.000000 0.000000
vt 0.300000 0.000000
vt 0.600000 0.000000
vt 0.900000 0.000000
vt 1.200000 0.000000
vt 1.500000 0.000000
vt 1.800000 0.000000
vt 2.100000 0.000000
vt 2.400000 0.000000
vt 2.700000 0.000000
vt 3.000000 0.000000
vt 3.300000 0.000000
vt 3.600000 0.000000
vt 3.900000 0.000000
vt 4.200000 0.000000
vt 4.500000 0.000000
vt 4.800000 0.000000
vt 5.100000 0.000000
vt 5.400000 0.000000
vt 5.700000 0.000000
vt 6.000000 0.000000
vt 0.000000 0.300000
vt 0.300000 0.300000
vt 0.600000 0.300000
vt 0.900000 0.300000
vt 1.200000 0.300000
vt 1.500000 0.300000
vt 1.800000 0.300000
vt 2.100000 0.300000
vt 2.400000 0.300000
vt 2.700000 0.300000
vt 3.000000 0.300000
vt 3.300000 0.300000
vt 3.600000 0.300000
vt 3.900000 0.300000
vt 4.200000 0.300000
vt 4.500000 0.300000
vt 4.800000 0.300000
vt 5.100000 0.300000
vt 5.400000 0.300000
vt 5.700000 0.300000
vt 6.000000 0.300000
vt 0.000000 0.600000
vt 0.300000 0.600000
vt 0.600000 0.600000
vt 0.900000 0.600000
vt 1.200000 0.600000
vt 1.500000 0.600000
vt 1.800000 0.600000
vt 2.100000 0.600000
vt 2.400000 0.600000
vt 2.700000 0.600000
vt 3.000000 0.600000
vt 3.300000 0.600000
vt 3.600000 0.600000
vt 3.900000 0.600000
vt 4.200000 0.600000
vt 4.500000 0.600000
vt 4.800000 0.600000
vt 5.100000 0.600000
vt 5.400000 0.600000
vt 5.700000 0.600000
vt 6.000000 0.600000
vt 0.000000 0.900000
vt 0.300000 0.900000
vt 0.600000 0.900000
vt 0.900000 0.900000
vt 1.200000 0.900000
vt 1.500000 0.900000
vt 1.800000 0.900000
vt 2.100000 0.900000
vt 2.400000 0.900000
vt 2.700000 0.900000
vt 3.000000 0.900000
vt 3.300000 0.900000
vt 3.600000 0.900000
vt 3.900000 0.900000
vt 4.200000 0.900000
vt 4.500000 0.900000
vt 4.800000 0.900000
vt 5.100000 0.900000
vt 5.400000 0.900000
vt 5.700000 0.900000
vt 6.000000 0.900000
vt 0.000000 1.200000
vt 0.300000 1.200000
vt 0.600000 1.200000
vt 0.900000 1.200000
vt 1.200000 1.200000
vt 1.500000 1.200000
vt 1.800000 1.200000
vt 2.100000 1.200000
vt 2.400000 1.200000
vt 2.700000 1.200000
vt 3.000000 1.200000
vt 3.300000 1.200000
vt 3.600000 1.200000
vt 3.900000 1.200000
vt 4.200000 1.200000
vt 4.500000 1.200000
vt 4.800000 1.200000
vt 5.100000 1.200000
vt 5.400000 1.200000
vt 5.700000 1.200000
vt 6.000000 1.200000
vt 0.000000 1.500000
vt 0.300000 1.500000
vt 0.600000 1.500000
vt 0.900000 1.500000
vt 1.200000 1.500000
vt 1.500000 1.500000
vt 1.800000 1.500000
vt 2.100000 1.500000
vt 2.400000 1.500000
vt 2.700000 1.500000
vt 3.000000 1.500000
vt 3.300000 1.500000
vt 3.600000 1.500000
vt 3.900000 1.500000
vt 4.200000 1.500000
vt 4.500000 1.500000
vt 4.800000 1.500000
vt 5.100000 1.500000
vt 5.400000 1.500000
vt 5.700000 1.500000
vt 6.000000 1.500000
vt 0.000000 1.800000
vt 0.300000 1.800000
vt 0.600000 1.800000
vt 0.900000 1.800000
vt 1.200000 1.800000
vt 1.500000 1.800000
vt 1.800000 1.800000
vt 2.100000 1.800000
vt 2.400000 1.800000
vt 2.700000 1.800000
vt 3.000000 1.800000
vt 3.300000 1.800000
vt 3.600000 1.800000
vt 3.900000 1.800000
vt 4.200000 1.800000
vt 4.500000 1.800000
vt 4.800000 1.800000
vt 5.100000 1.800000
vt 5.400000 1.800000
vt 5.700000 1.800000
vt 6.000000 1.800000
vt 0.000000 2.100000
vt 0.300000 2.100000
vt 0.600000 2.100000
vt 0.900000 2.100000
vt 1.200000 2.100000
vt 1.500000 2.100000
vt 1.800000 2.100000
vt 2.100000 2.100000
vt 2.400000 2.100000
vt 2.700000 2.100000
vt 3.000000 2.100000
vt 3.300000 2.100000
vt 3.600000 2.100000
vt 3.900000 2.100000
vt 4.200000 2.100000
vt 4.500000 2.100000
vt 4.800000 2.100000
vt 5.100000 2.100000
vt 5.400000 2.100000
vt 5.700000 2.100000
vt 6.000000 2.100000
vt 0.000000 2.400000
vt 0.300000 2.400000
vt 0.600000 2.400000
vt 0.900000 2.400000
vt 1.200000 2.400000
vt 1.500000 2.400000
vt 1.800000 2.400000
vt 2.100000 2.400000
vt 2.400000 2.400000
vt 2.700000 2.400000
vt 3.000000 2.400000
vt 3.300000 2.400000
vt 3.600000 2.400000
vt 3.900000 2.400000
vt 4.200000 2.400000
vt 4.500000 2.400000
vt 4.800000 2.400000
vt 5.100000 2.400000
vt 5.400000 2.400000
vt 5.700000 2.400000
vt 6.000000 2.400000
vt 0.000000 2.700000
vt 0.300000 2.700000
vt 0.600000 2.700000
vt 0.900000 2.700000
vt 1.200000 2.700000
vt 1.500000 2.700000
vt 1.800000 2.700000
vt 2.100000 2.700000
vt 2.400000 2.700000
vt 2.700000 2.700000
vt 3.000000 2.700000
vt 3.300000 2.700000
vt 3.600000 2.700000
vt 3.900000 2.700000
vt 4.200000 2.700000
vt 4.500000 2.700000
vt 4.800000 2.700000
vt 5.100000 2.700000
vt 5.400000 2.700000
vt 5.700000 2.700000
vt 6.000000 2.700000
vt 0.000000 3.000000
vt 0.300000 3.000000
vt 0.600000 3.000000
vt 0.900000 3.000000
vt 1.200000 3.000000
vt 1.500000 3.000000
vt 1.800000 3.000000
vt 2.100000 3.000000
vt 2.400000 3.000000
vt 2.700000 3.000000
vt 3.000000 3.000000
vt 3.300000 3.000000
vt 3.600000 3.000000
vt 3.900000 3.000000
vt 4.200000 3.000000
vt 4.500000 3.000000
vt 4.800000 3.000000
vt 5.100000 3.000000
vt 5.400000 3.000000
vt 5.700000 3.000000
vt 6.000000 3.000000
vt 0.000000 3.300000
vt 0.300000 3.300000
vt 0.600000 3.300000
vt 0.900000 3.300000
vt 1.200000 3.300000
vt 1.500000 3.300000
vt 1.800000 3.300000
vt 2.100000 3.300000
vt 2.400000 3.300000
vt 2.700000 3.300000
vt 3.000000 3.300000
vt 3.300000 3.300000
vt 3.600000 3.300000
vt 3.900000 3.300000
vt 4.200000 3.300000
vt 4.500000 3.300000
vt 4.800000 3.300000
vt 5.100000 3.300000
vt 5.400000 3.300000
vt 5.700000 3.300000
vt 6.000000 3.300000
vt 0.000000 3.600000
vt 0.300000 3.600000
vt 0.600000 3.600000
vt 0.900000 3.600000
vt 1.200000 3.600000
vt 1.500000 3.600000
vt 1.800000 3.600000
vt 2.100000 3.600000
vt 2.400000 3.600000
vt 2.700000 3.600000
vt 3.000000 3.600000
vt 3.300000 3.600000
vt 3.600000 3.600000
vt 3.900000 3.600000
vt 4.200000 3.600000
vt 4.500000 3.600000
vt 4.800000 3.600000
vt 5.100000 3.600000
vt 5.400000 3.600000
vt 5.700000 3.600000
vt 6.000000 3.600000
vt 0.000000 3.900000
vt 0.300000 3.900000
vt 0.600000 3.900000
vt 0.900000 3.900000
vt 1.200000 3.900000
vt 1.500000 3.900000
vt 1.800000 3.900000
vt 2.100000 3.900000
vt 2.400000 3.900000
vt 2.700000 3.900000
vt 3.000000 3.900000
vt 3.300000 3.900000
vt 3.600000 3.900000
vt 3.900000 3.900000
vt 4.200000 3.900000
vt 4.500000 3.900000
vt 4.800000 3.900000
vt 5.100000 3.900000
vt 5.400000 3.900000
vt 5.700000 3.900000
vt 6.000000 3.900000
vt 0.000000 4.200000
vt 0.300000 4.200000
vt 0.600000 4.200000
vt 0.900000 4.200000
vt 1.200000 4.200000
vt 1.500000 4.200000
vt 1.800000 4.200000
vt 2.100000 4.200000
vt 2.400000 4.200000
vt 2.700000 4.200000
vt 3.000000 4.200000
vt 3.300000 4.200000
vt 3.600000 4.200000
vt 3.900000 4.200000
vt 4.200000 4.200000
vt 4.500000 4.200000
vt 4.800000 4.200000
vt 5.100000 4.200000
vt 5.400000 4.200000
vt 5.700000 4.200000
vt 6.000000 4.200000
vt 0.000000 4.500000
vt 0.300000 4.500000
vt 0.600000 4.500000
vt 0.900000 4.500000
vt 1.200000 4.500000
vt 1.500000 4.500000
vt 1.800000 4.500000
vt 2.100000 4.500000
vt 2.400000 4.500000
vt 2.700000 4.500000
vt 3.000000 4.500000
vt 3.300000 4.500000
vt 3.600000 4.500000
vt 3.900000 4.500000
vt 4.200000 4.500000
vt 4.500000 4.500000
vt 4.800000 4.500000
vt 5.100000 4.500000
vt 5.400000 4.500000
vt 5.700000 4.500000
vt 6.000000 4.500000
vt 0.000000 4.800000
vt 0.300000 4.800000
vt 0.600000 4.800000
vt 0.900000 4.800000
vt 1.200000 4.800000
vt 1.500000 4.800000
vt 1.800000 4.800000
vt 2.100000 4.800000
vt 2.400000 4.800000
vt 2.700000 4.800000
vt 3.000000 4.800000
vt 3.300000 4.800000
vt 3.600000 4.800000
vt 3.900000 4.800000
vt 4.200000 4.800000
vt 4.500000 4.800000
vt 4.800000 4.800000
vt 5.100000 4.800000
vt 5.400000 4.800000
vt 5.700000 4.800000
vt 6.000000 4.800000
vt 0.000000 5.100000
vt 0.300000 5.100000
vt 0.600000 5.100000
vt 0.900000 5.100000
vt 1.200000 5.100000
vt 1.500000 5.100000
vt 1.800000 5.100000
vt 2.100000 5.100000
vt 2.400000 5.100000
vt 2.700000 5.100000
vt 3.000000 5.100000
vt 3.300000 5.100000
vt 3.600000 5.100000
vt 3.900000 5.100000
vt 4.200000 5.100000
vt 4.500000 5.100000
vt 4.800000 5.100000
vt 5.100000 5.100000
vt 5.400000 5.100000
vt 5.700000 5.100000
vt 6.000000 5.100000
vt 0.000000 5.400000
vt 0.300000 5.400000
vt 0.600000 5.400000
vt 0.900000 5.400000
vt 1.200000 5.400000
vt 1.500000 5.400000
vt 1.800000 5.400000
vt 2.100000 5.400000
vt 2.400000 5.400000
vt 2.700000 5.400000
vt 3.000000 5.400000
vt 3.300000 5.400000
vt 3.600000 5.400000
vt 3.900000 5.400000
vt 4.200000 5.400000
vt 4.500000 5.400000
vt 4.800000 5.400000
vt 5.100000 5.400000
vt 5.400000 5.400000
vt 5.700000 5.400000
vt 6.000000 5.400000
vt 0.000000 5.700000
vt 0.300000 5.700000
vt 0.600000 5.700000
vt 0.900000 5.700000
vt 1.200000 5.700000
vt 1.500000 5.700000
vt 1.800000 5.700000
vt 2.100000 5.700000
vt 2.400000 5.700000
vt 2.700000 5.700000
vt 3.000000 5.700000
vt 3.300000 5.700000
vt 3.600000 5.700000
vt 3.900000 5.700000
vt 4.200000 5.700000
vt 4.500000 5.700000
vt 4.800000 5.700000
vt 5.100000 5.700000
vt 5.400000 5.700000
vt 5.700000 5.700000
vt 6.000000 5.700000
vt 0.000000 6.000000
vt 0.300000 6.000000
vt 0.600000 6.000000
vt 0.900000 6.000000
vt 1.200000 6.000000
vt 1.500000 6.000000
vt 1.800000 6.000000
vt 2.100000 6.000000
vt 2.400000 6.000000
vt 2.700000 6.000000
vt 3.000000 6.000000
vt 3.300000 6.000000
vt 3.600000 6.000000
vt 3.900000 6.000000
vt 4.200000 6.000000
vt 4.500000 6.000000
vt 4.800000 6.000000
vt 5.100000 6.000000
vt 5.400000 6.000000
vt 5.700000 6.000000
vt 6.000000 6.000000
vt 0.000000 0.000000
vt 6.000000 0.000000
vt 6.000000 1.000000
vt 0.000000 1.000000
vt 0.000000 0.000000
vt 6.000000 0.000000
vt 6.000000 1.000000
vt 0.000000 1.000000
vt 0.000000 0.000000
vt 6.000000 0.000000
vt 6.000000 1.000000
vt 0.000000 1.000000
vt 0.000000 0.000000
vt 6.000000 0.000000
vt 6.000000 1.000000
vt 0.000000 1.000000
vn 0.000000 1.000000 0.000000
vn 0.000000 -1.000000 0.000000
vn 1.000000 0.000000 0.000000
vn -1.000000 0.000000 0.000000
vn 0.000000 0.000000 1.000000
vn 0.000000 0.000000 -1.000000
f 1/1/1 2/2/1 23/23/1
f 1/1/1 23/23/1 22/22/1
f 2/2/1 3/3/1 24/24/1
f 2/2/1 24/24/1 23/23/1
f 3/3/1 4/4/1 25/25/1
f 3/3/1 25/25/1 24/24/1
f 4/4/1 5/5/1 26/26/1
f 4/4/1 26/26/1 25/25/1
f 5/5/1 6/6/1 27/27/1
f 5/5/1 27/27/1 26/26/1
f 6/6/1 7/7/1 28/28/1
f 6/6/1 28/28/1 27/27/1
f 7/7/1 8/8/1 29/29/1
f 7/7/1 29/29/1 28/28/1
f 8/8/1 9/9/1 30/30/1
f 8/8/1 30/30/1 29/29/1
f 9/9/1 10/10/1 31/31/1
f 9/9/1 31/31/1 30/30/1
f 10/10/1 11/11/1 32/32/1
f 10/10/1 32/32/1 31/31/1
f 11/11/1 12/12/1 33/33/1
f 11/11/1 33/33/1 32/32/1
f 12/12/1 13/13/1 34/34/1
f 12/12/1 34/34/1 33/33/1
f 13/13/1 14/14/1 35/35/1
f 13/13/1 35/35/1 34/34/1
f 14/14/1 15/15/1 36/36/1
f 14/14/1 36/36/1 35/35/1
f 15/15/1 16/16/1 37/37/1
f 15/15/1 37/37/1 36/36/1
f 16/16/1 17/17/1 38/38/1
f 16/16/1 38/38/1 37/37/1
f 17/17/1 18/18/1 39/39/1
f 17/17/1 39/39/1 38/38/1
f 18/18/1 19/19/1 40/40/1
f 18/18/1 40/40/1 39/39/1
f 19/19/1 20/20/1 41/41/1
f 19/19/1 41/41/1 40/40/1
f 20/20/1 21/21/1 42/42/1
f 20/20/1 42/42/1 41/41/1
f 22/22/1 23/23/1 44/44/1
f 22/22/1 44/44/1 43/43/1
f 23/23/1 24/24/1 45/45/1
f 23/23/1 45/45/1 44/44/1
f 24/24/1 25/25/1 46/46/1
f 24/24/1 46/46/1 45/45/1
f 25/25/1 26/26/1 47/47/1
f 25/25/1 47/47/1 46/46/1
f 26/26/1 27/27/1 48/48/1
f 26/26/1 48/48/1 47/47/1
f 27/27/1 28/28/1 49/49/1
f 27/27/1 49/49/1 48/48/1
f 28/28/1 29/29/1 50/50/1
f 28/28/1 50/50/1 49/49/1
f 29/29/1 30/30/1 51/51/1
f 29/29/1 51/51/1 50/50/1
f 30/30/1 31/31/1 52/52/1
f 30/30/1 52/52/1 51/51/1
f 31/31/1 32/32/1 53/53/1
f 31/31/1 53/53/1 52/52/1
f 32/32/1 33/33/1 54/54/1
f 32/32/1 54/54/1 53/53/1
f 33/33/1 34/34/1 55/55/1
f 33/33/1 55/55/1 54/54/1
f 34/34/1 35/35/1 56/56/1
f 34/34/1 56/56/1 55/55/1
f 35/35/1 36/36/1 57/57/1
f 35/35/1 57/57/1 56/56/1
f 36/36/1 37/37/1 58/58/1
f 36/36/1 58/58/1 57/57/1
f 37/37/1 38/38/1 59/59/1
f 37/37/1 59/59/1 58/58/1
f 38/38/1 39/39/1 60/60/1
f 38/38/1 60/60/1 59/59/1
f 39/39/1 40/40/1 61/61/1
f 39/39/1 61/61/1 60/60/1
f 40/40/1 41/41/1 62/62/1
f 40/40/1 62/62/1 61/61/1
f 41/41/1 42/42/1 63/63/1
f 41/41/1 63/63/1 62/62/1
f 43/43/1 44/44/1 65/65/1
f 43/43/1 65/65/1 64/64/1
f 44/44/1 45/45/1 66/66/1
f 44/44/1 66/66/1 65/65/1
f 45/45/1 46/46/1 67/67/1
f 45/45/1 67/67/1 66/66/1
f 46/46/1 47/47/1 68/68/1
f 46/46/1 68/68/1 67/67/1
f 47/47/1 48/48/1 69/69/1
f 47/47/1 69/69/1 68/68/1
f 48/48/1 49/49/1 70/70/1
f 48/48/1 70/70/1 69/69/1
f 49/49/1 50/50/1 71/71/1
f 49/49/1 71/71/1 70/70/1
f 50/50/1 51/51/1 72/72/1
f 50/50/1 72/72/1 71/71/1
f 51/51/1 52/52/1 73/73/1
f 51/51/1 73/73/1 72/72/1
f 52/52/1 53/53/1 74/74/1
f 52/52/1 74/74/1 73/73/1
f 53/53/1 54/54/1 75/75/1
f 53/53/1 75/75/1 74/74/1
f 54/54/1 55/55/1 76/76/1
f 54/54/1 76/76/1 75/75/1
f 55/55/1 56/56/1 77/77/1
f 55/55/1 77/77/1 76/76/1
f 56/56/1 57/57/1 78/78/1
f 56/56/1 78/78/1 77/77/1
f 57/57/1 58/58/1 79/79/1
f 57/57/1 79/79/1 78/78/1
f 58/58/1 59/59/1 80/80/1
f 58/58/1 80/80/1 79/79/1
f 59/59/1 60/60/1 81/81/1
f 59/59/1 81/81/1 80/80/1
f 60/60/1 61/61/1 82/82/1
f 60/60/1 82/82/1 81/81/1
f 61/61/1 62/62/1 83/83/1
f 61/61/1 83/83/1 82/82/1
f 62/62/1 63/63/1 84/84/1
f 62/62/1 84/84/1 83/83/1
f 64/64/1 65/65/1 86/86/1
f 64/64/1 86/86/1 85/85/1
f 65/65/1 66/66/1 87/87/1
f 65/65/1 87/87/1 86/86/1
f 66/66/1 67/67/1 88/88/1
f 66/66/1 88/88/1 87/87/1
f 67/67/1 68/68/1 89/89/1
f 67/67/1 89/89/1 88/88/1
f 68/68/1 69/69/1 90/90/1
f 68/68/1 90/90/1 89/89/1
f 69/69/1 70/70/1 91/91/1
f 69/69/1 91/91/1 90/90/1
f 70/70/1 71/71/1 92/92/1
f 70/70/1 92/92/1 91/91/1
f 71/71/1 72/72/1 93/93/1
f 71/71/1 93/93/1 92/92/1
f 72/72/1 73/73/1 94/94/1
f 72/72/1 94/94/1 93/93/1
f 73/73/1 74/74/1 95/95/1
f 73/73/1 95/95/1 94/94/1
f 74/74/1 75/75/1 96/96/1
f 74/74/1 96/96/1 95/95/1
f 75/75/1 76/76/1 97/97/1
f 75/75/1 97/97/1 96/96/1
f 76/76/1 77/77/1 98/98/1
f 76/76/1 98/98/1 97/97/1
f 77/77/1 78/78/1 99/99/1
f 77/77/1 99/99/1 98/98/1
f 78/78/1 79/79/1 100/100/1
f 78/78/1 100/100/1 99/99/1
f 79/79/1 80/80/1 101/101/1
f 79/79/1 101/101/1 100/100/1
f 80/80/1 81/81/1 102/102/1
f 80/80/1 102/102/1 101/101/1
f 81/81/1 82/82/1 103/103/1
f 81/81/1 103/103/1 102/102/1
f 82/82/1 83/83/1 104/104/1
f 82/82/1 104/104/1 103/103/1
f 83/83/1 84/84/1 105/105/1
f 83/83/1 105/105/1 104/104/1
f 85/85/1 86/86/1 107/107/1
f 85/85/1 107/107/1 106/106/1
f 86/86/1 87/87/1 108/108/1
f 86/86/1 108/108/1 107/107/1
f 87/87/1 88/88/1 109/109/1
f 87/87/1 109/109/1 108/108/1
f 88/88/1 89/89/1 110/110/1
f 88/88/1 110/110/1 109/109/1
f 89/89/1 90/90/1 111/111/1
f 89/89/1 111/111/1 110/110/1
f 90/90/1 91/91/1 112/112/1
f 90/90/1 112/112/1 111/111/1
f 91/91/1 92/92/1 113/113/1
f 91/91/1 113/113/1 112/112/1
f 92/92/1 93/93/1 114/114/1
f 92/92/1 114/114/1 113/113/1
f 93/93/1 94/94/1 115/115/1
f 93/93/1 115/115/1 114/114/1
f 94/94/1 95/95/1 116/116/1
f 94/94/1 116/116/1 115/115/1
f 95/95/1 96/96/1 117/117/1
f 95/95/1 117/117/1 116/116/1
f 96/96/1 97/97/1 118/118/1
f 96/96/1 118/118/1 117/117/1
f 97/97/1 98/98/1 119/119/1
f 97/97/1 119/119/1 118/118/1
f 98/98/1 99/99/1 120/120/1
f 98/98/1 120/120/1 119/119/1
f 99/99/1 100/100/1 121/121/1
f 99/99/1 121/121/1 120/120/1
f 100/100/1 101/101/1 122/122/1
f 100/100/1 122/122/1 121/121/1
f 101/101/1 102/102/1 123/123/1
f 101/101/1 123/123/1 122/122/1
f 102/102/1 103/103/1 124/124/1
f 102/102/1 124/124/1 123/123/1
f 103/103/1 104/104/1 125/125/1
f 103/103/1 125/125/1 124/124/1
f 104/104/1 105/105/1 126/126/1
f 104/104/1 126/126/1 125/125/1
f 106/106/1 107/107/1 128/128/1
f 106/106/1 128/128/1 127/127/1
f 107/107/1 108/108/1 129/129/1
f 107/107/1 129/129/1 128/128/1
f 108/108/1 109/109/1 130/130/1
f 108/108/1 130/130/1 129/129/1
f 109/109/1 110/110/1 131/131/1
f 109/109/1 131/131/1 130/130/1
f 110/110/1 111/111/1 132/132/1
f 110/110/1 132/132/1 131/131/1
f 111/111/1 112/112/1 133/133/1
f 111/111/1 133/133/1 132/132/1
f 112/112/1 113/113/1 134/134/1
f 112/112/1 134/134/1 133/133/1
f 113/113/1 114/114/1 135/135/1
f 113/113/1 135/135/1 134/134/1
f 114/114/1 115/115/1 136/136/1
f 114/114/1 136/136/1 135/135/1
f 115/115/1 116/116/1 137/137/1
f 115/115/1 137/137/1 136/136/1
f 116/116/1 117/117/1 138/138/1
f 116/116/1 138/138/1 137/137/1
f 117/117/1 118/118/1 139/139/1
f 117/117/1 139/139/1 138/138/1
f 118/118/1 119/119/1 140/140/1
f 118/118/1 140/140/1 139/139/1
f 119/119/1 120/120/1 141/141/1
f 119/119/1 141/141/1 140/140/1
f 120/120/1 121/121/1 142/142/1
f 120/120/1 142/142/1 141/141/1
f 121/121/1 122/122/1 143/143/1
f 121/121/1 143/143/1 142/142/1
f 122/122/1 123/123/1 144/144/1
f 122/122/1 144/144/1 143/143/1
f 123/123/1 124/124/1 145/145/1
f 123/123/1 145/145/1 144/144/1
f 124/124/1 125/125/1 146/146/1
f 124/124/1 146/146/1 145/145/1
f 125/125/1 126/126/1 147/147/1
f 125/125/1 147/147/1 146/146/1
f 127/127/1 128/128/1 149/149/1
f 127/127/1 149/149/1 148/148/1
f 128/128/1 129/129/1 150/150/1
f 128/128/1 150/150/1 149/149/1
f 129/129/1 130/130/1 151/151/1
f 129/129/1 151/151/1 150/150/1
f 130/130/1 131/131/1 152/152/1
f 130/130/1 152/152/1 151/151/1
f 131/131/1 132/132/1 153/153/1
f 131/131/1 153/153/1 152/152/1
f 132/132/1 133/133/1 154/154/1
f 132/132/1 154/154/1 153/153/1
f 133/133/1 134/134/1 155/155/1
f 133/133/1 155/155/1 154/154/1
f 134/134/1 135/135/1 156/156/1
f 134/134/1 156/156/1 155/155/1
f 135/135/1 136/136/1 157/157/1
f 135/135/1 157/157/1 156/156/1
f 136/136/1 137/137/1 158/158/1
f 136/136/1 158/158/1 157/157/1
f 137/137/1 138/138/1 159/159/1
f 137/137/1 159/159/1 158/158/1
f 138/138/1 139/139/1 160/160/1
f 138/138/1 160/160/1 159/159/1
f 139/139/1 140/140/1 161/161/1
f 139/139/1 161/161/1 160/160/1
f 140/140/1 141/141/1 162/162/1
f 140/140/1 162/162/1 161/161/1
f 141/141/1 142/142/1 163/163/1
f 141/141/1 163/163/1 162/162/1
f 142/142/1 143/143/1 164/164/1
f 142/142/1 164/164/1 163/163/1
f 143/143/1 144/144/1 165/165/1
f 143/143/1 165/165/1 164/164/1
f 144/144/1 145/145/1 166/166/1
f 144/144/1 166/166/1 165/165/1
f 145/145/1 146/146/1 167/167/1
f 145/145/1 167/167/1 166/166/1
f 146/146/1 147/147/1 168/168/1
f 146/146/1 168/168/1 167/167/1
f 148/148/1 149/149/1 170/170/1
f 148/148/1 170/170/1 169/169/1
f 149/149/1 150/150/1 171/171/1
f 149/149/1 171/171/1 170/170/1
f 150/150/1 151/151/1 172/172/1
f 150/150/1 172/172/1 171/171/1
f 151/151/1 152/152/1 173/173/1
f 151/151/1 173/173/1 172/172/1
f 152/152/1 153/153/1 174/174/1
f 152/152/1 174/174/1 173/173/1
f 153/153/1 154/154/1 175/175/1
f 153/153/1 175/175/1 174/174/1
f 154/154/1 155/155/1 176/176/1
f 154/154/1 176/176/1 175/175/1
f 155/155/1 156/156/1 177/177/1
f 155/155/1 177/177/1 176/176/1
f 156/156/1 157/157/1 178/178/1
f 156/156/1 178/178/1 177/177/1
f 157/157/1 158/158/1 179/179/1
f 157/157/1 179/179/1 178/178/1
f 158/158/1 159/159/1 180/180/1
f 158/158/1 180/180/1 179/179/1
f 159/159/1 160/160/1 181/181/1
f 159/159/1 181/181/1 180/180/1
f 160/160/1 161/161/1 182/182/1
f 160/160/1 182/182/1 181/181/1
f 161/161/1 162/162/1 183/183/1
f 161/161/1 183/183/1 182/182/1
f 162/162/1 163/163/1 184/184/1
f 162/162/1 184/184/1 183/183/1
f 163/163/1 164/164/1 185/185/1
f 163/163/1 185/185/1 184/184/1
f 164/164/1 165/165/1 186/186/1
f 164/164/1 186/186/1 185/185/1
f 165/165/1 166/166/1 187/187/1
f 165/165/1 187/187/1 186/186/1
f 166/166/1 167/167/1 188/188/1
f 166/166/1 188/188/1 187/187/1
f 167/167/1 168/168/1 189/189/1
f 167/167/1 189/189/1 188/188/1
f 169/169/1 170/170/1 191/191/1
f 169/169/1 191/191/1 190/190/1
f 170/170/1 171/171/1 192/192/1
f 170/170/1 192/192/1 191/191/1
f 171/171/1 172/172/1 193/193/1
f 171/171/1 193/193/1 192/192/1
f 172/172/1 173/173/1 194/194/1
f 172/172/1 194/194/1 193/193/1
f 173/173/1 174/174/1 195/195/1
f 173/173/1 195/195/1 194/194/1
f 174/174/1 175/175/1 196/196/1
f 174/174/1 196/196/1 195/195/1
f 175/175/1 176/176/1 197/197/1
f 175/175/1 197/197/1 196/196/1
f 176/176/1 177/177/1 198/198/1
f 176/176/1 198/198/1 197/197/1
f 177/177/1 178/178/1 199/199/1
f 177/177/1 199/199/1 198/198/1
f 178/178/1 179/179/1 200/200/1
f 178/178/1 200/200/1 199/199/1
f 179/179/1 180/180/1 201/201/1
f 179/179/1 201/201/1 200/200/1
f 180/180/1 181/181/1 202/202/1
f 180/180/1 202/202/1 201/201/1
f 181/181/1 182/182/1 203/203/1
f 181/181/1 203/203/1 202/202/1
f 182/182/1 183/183/1 204/204/1
f 182/182/1 204/204/1 203/203/1
f 183/183/1 184/184/1 205/205/1
f 183/183/1 205/205/1 204/204/1
f 184/184/1 185/185/1 206/206/1
f 184/184/1 206/206/1 205/205/1
f 185/185/1 186/186/1 207/207/1
f 185/185/1 207/207/1 206/206/1
f 186/186/1 187/187/1 208/208/1
f 186/186/1 208/208/1 207/207/1
f 187/187/1 188/188/1 209/209/1
f 187/187/1 209/209/1 208/208/1
f 188/188/1 189/189/1 210/210/1
f 188/188/1 210/210/1 209/209/1
f 190/190/1 191/191/1 212/212/1
f 190/190/1 212/212/1 211/211/1
f 191/191/1 192/192/1 213/213/1
f 191/191/1 213/213/1 212/212/1
f 192/192/1 193/193/1 214/214/1
f 192/192/1 214/214/1 213/213/1
f 193/193/1 194/194/1 215/215/1
f 193/193/1 215/215/1 214/214/1
f 194/194/1 195/195/1 216/216/1
f 194/194/1 216/216/1 215/215/1
f 195/195/1 196/196/1 217/217/1
f 195/195/1 217/217/1 216/216/1
f 196/196/1 197/197/1 218/218/1
f 196/196/1 218/218/1 217/217/1
f 197/197/1 198/198/1 219/219/1
f 197/197/1 219/219/1 218/218/1
f 198/198/1 199/199/1 220/220/1
f 198/198/1 220/220/1 219/219/1
f 199/199/1 200/200/1 221/221/1
f 199/199/1 221/221/1 220/220/1
f 200/200/1 201/201/1 222/222/1
f 200/200/1 222/222/1 221/221/1
f 201/201/1 202/202/1 223/223/1
f 201/201/1 223/223/1 222/222/1
f 202/202/1 203/203/1 224/224/1
f 202/202/1 224/224/1 223/223/1
f 203/203/1 204/204/1 225/225/1
f 203/203/1 225/225/1 224/224/1
f 204/204/1 205/205/1 226/226/1
f 204/204/1 226/226/1 225/225/1
f 205/205/1 206/206/1 227/227/1
f 205/205/1 227/227/1 226/226/1
f 206/206/1 207/207/1 228/228/1
f 206/206/1 228/228/1 227/227/1
f 207/207/1 208/208/1 229/229/1
f 207/207/1 229/229/1 228/228/1
f 208/208/1 209/209/1 230/230/1
f 208/208/1 230/230/1 229/229/1
f 209/209/1 210/210/1 231/231/1
f 209/209/1 231/231/1 230/230/1
f 211/211/1 212/212/1 233/233/1
f 211/211/1 233/233/1 232/232/1
f 212/212/1 213/213/1 234/234/1
f 212/212/1 234/234/1 233/233/1
f 213/213/1 214/214/1 235/235/1
f 213/213/1 235/235/1 234/234/1
f 214/214/1 215/215/1 236/236/1
f 214/214/1 236/236/1 235/235/1
f 215/215/1 216/216/1 237/237/1
f 215/215/1 237/237/1 236/236/1
f 216/216/1 217/217/1 238/238/1
f 216/216/1 238/238/1 237/237/1
f 217/217/1 218/218/1 239/239/1
f 217/217/1 239/239/1 238/238/1
f 218/218/1 219/219/1 240/240/1
f 218/218/1 240/240/1 239/239/1
f 219/219/1 220/220/1 241/241/1
f 219/219/1 241/241/1 240/240/1
f 220/220/1 221/221/1 242/242/1
f 220/220/1 242/242/1 241/241/1
f 221/221/1 222/222/1 243/243/1
f 221/221/1 243/243/1 242/242/1
f 222/222/1 223/223/1 244/244/1
f 222/222/1 244/244/1 243/243/1
f 223/223/1 224/224/1 245/245/1
f 223/223/1 245/245/1 244/244/1
f 224/224/1 225/225/1 246/246/1
f 224/224/1 246/246/1 245/245/1
f 225/225/1 226/226/1 247/247/1
f 225/225/1 247/247/1 246/246/1
f 226/226/1 227/227/1 248/248/1
f 226/226/1 248/248/1 247/247/1
f 227/227/1 228/228/1 249/249/1
f 227/227/1 249/249/1 248/248/1
f 228/228/1 229/229/1 250/250/1
f 228/228/1 250/250/1 249/249/1
f 229/229/1 230/230/1 251/251/1
f 229/229/1 251/251/1 250/250/1
f 230/230/1 231/231/1 252/252/1
f 230/230/1 252/252/1 251/251/1
f 232/232/1 233/233/1 254/254/1
f 232/232/1 254/254/1 253/253/1
f 233/233/1 234/234/1 255/255/1
f 233/233/1 255/255/1 254/254/1
f 234/234/1 235/235/1 256/256/1
f 234/234/1 256/256/1 255/255/1
f 235/235/1 236/236/1 257/257/1
f 235/235/1 257/257/1 256/256/1
f 236/236/1 237/237/1 258/258/1
f 236/236/1 258/258/1 257/257/1
f 237/237/1 238/238/1 259/259/1
f 237/237/1 259/259/1 258/258/1
f 238/238/1 239/239/1 260/260/1
f 238/238/1 260/260/1 259/259/1
f 239/239/1 240/240/1 261/261/1
f 239/239/1 261/261/1 260/260/1
f 240/240/1 241/241/1 262/262/1
f 240/240/1 262/262/1 261/261/1
f 241/241/1 242/242/1 263/263/1
f 241/241/1 263/263/1 262/262/1
f 242/242/1 243/243/1 264/264/1
f 242/242/1 264/264/1 263/263/1
f 243/243/1 244/244/1 265/265/1
f 243/243/1 265/265/1 264/264/1
f 244/244/1 245/245/1 266/266/1
f 244/244/1 266/266/1 265/265/1
f 245/245/1 246/246/1 267/267/1
f 245/245/1 267/267/1 266/266/1
f 246/246/1 247/247/1 268/268/1
f 246/246/1 268/268/1 267/267/1
f 247/247/1 248/248/1 269/269/1
f 247/247/1 269/269/1 268/268/1
f 248/248/1 249/249/1 270/270/1
f 248/248/1 270/270/1 269/269/1
f 249/249/1 250/250/1 271/271/1
f 249/249/1 271/271/1 270/270/1
f 250/250/1 251/251/1 272/272/1
f 250/250/1 272/272/1 271/271/1
f 251/251/1 252/252/1 273/273/1
f 251/251/1 273/273/1 272/272/1
f 253/253/1 254/254/1 275/275/1
f 253/253/1 275/275/1 274/274/1
f 254/254/1 255/255/1 276/276/1
f 254/254/1 276/276/1 275/275/1
f 255/255/1 256/256/1 277/277/1
f 255/255/1 277/277/1 276/276/1
f 256/256/1 257/257/1 278/278/1
f 256/256/1 278/278/1 277/277/1
f 257/257/1 258/258/1 279/279/1
f 257/257/1 279/279/1 278/278/1
f 258/258/1 259/259/1 280/280/1
f 258/258/1 280/280/1 279/279/1
f 259/259/1 260/260/1 281/281/1
f 259/259/1 281/281/1 280/280/1
f 260/260/1 261/261/1 282/282/1
f 260/260/1 282/282/1 281/281/1
f 261/261/1 262/262/1 283/283/1
f 261/261/1 283/283/1 282/282/1
f 262/262/1 263/263/1 284/284/1
f 262/262/1 284/284/1 283/283/1
f 263/263/1 264/264/1 285/285/1
f 263/263/1 285/285/1 284/284/1
f 264/264/1 265/265/1 286/286/1
f 264/264/1 286/286/1 285/285/1
f 265/265/1 266/266/1 287/287/1
f 265/265/1 287/287/1 286/286/1
f 266/266/1 267/267/1 288/288/1
f 266/266/1 288/288/1 287/287/1
f 267/267/1 268/268/1 289/289/1
f 267/267/1 289/289/1 288/288/1
f 268/268/1 269/269/1 290/290/1
f 268/268/1 290/290/1 289/289/1
f 269/269/1 270/270/1 291/291/1
f 269/269/1 291/291/1 290/290/1
f 270/270/1 271/271/1 292/292/1
f 270/270/1 292/292/1 291/291/1
f 271/271/1 272/272/1 293/293/1
f 271/271/1 293/293/1 292/292/1
f 272/272/1 273/273/1 294/294/1
f 272/272/1 294/294/1 293/293/1
f 274/274/1 275/275/1 296/296/1
f 274/274/1 296/296/1 295/295/1
f 275/275/1 276/276/1 297/297/1
f 275/275/1 297/297/1 296/296/1
f 276/276/1 277/277/1 298/298/1
f 276/276/1 298/298/1 297/297/1
f 277/277/1 278/278/1 299/299/1
f 277/277/1 299/299/1 298/298/1
f 278/278/1 279/279/1 300/300/1
f 278/278/1 300/300/1 299/299/1
f 279/279/1 280/280/1 301/301/1
f 279/279/1 301/301/1 300/300/1
f 280/280/1 281/281/1 302/302/1
f 280/280/1 302/302/1 301/301/1
f 281/281/1 282/282/1 303/303/1
f 281/281/1 303/303/1 302/302/1
f 282/282/1 283/283/1 304/304/1
f 282/282/1 304/304/1 303/303/1
f 283/283/1 284/284/1 305/305/1
f 283/283/1 305/305/1 304/304/1
f 284/284/1 285/285/1 306/306/1
f 284/284/1 306/306/1 305/305/1
f 285/285/1 286/286/1 307/307/1
f 285/285/1 307/307/1 306/306/1
f 286/286/1 287/287/1 308/308/1
f 286/286/1 308/308/1 307/307/1
f 287/287/1 288/288/1 309/309/1
f 287/287/1 309/309/1 308/308/1
f 288/288/1 289/289/1 310/310/1
f 288/288/1 310/310/1 309/309/1
f 289/289/1 290/290/1 311/311/1
f 289/289/1 311/311/1 310/310/1
f 290/290/1 291/291/1 312/312/1
f 290/290/1 312/312/1 311/311/1
f 291/291/1 292/292/1 313/313/1
f 291/291/1 313/313/1 312/312/1
f 292/292/1 293/293/1 314/314/1
f 292/292/1 314/314/1 313/313/1
f 293/293/1 294/294/1 315/315/1
f 293/293/1 315/315/1 314/314/1
f 295/295/1 296/296/1 317/317/1
f 295/295/1 317/317/1 316/316/1
f 296/296/1 297/297/1 318/318/1
f 296/296/1 318/318/1 317/317/1
f 297/297/1 298/298/1 319/319/1
f 297/297/1 319/319/1 318/318/1
f 298/298/1 299/299/1 320/320/1
f 298/298/1 320/320/1 319/319/1
f 299/299/1 300/300/1 321/321/1
f 299/299/1 321/321/1 320/320/1
f 300/300/1 301/301/1 322/322/1
f 300/300/1 322/322/1 321/321/1
f 301/301/1 302/302/1 323/323/1
f 301/301/1 323/323/1 322/322/1
f 302/302/1 303/303/1 324/324/1
f 302/302/1 324/324/1 323/323/1
f 303/303/1 304/304/1 325/325/1
f 303/303/1 325/325/1 324/324/1
f 304/304/1 305/305/1 326/326/1
f 304/304/1 326/326/1 325/325/1
f 305/305/1 306/306/1 327/327/1
f 305/305/1 327/327/1 326/326/1
f 306/306/1 307/307/1 328/328/1
f 306/306/1 328/328/1 327/327/1
f 307/307/1 308/308/1 329/329/1
f 307/307/1 329/329/1 328/328/1
f 308/308/1 309/309/1 330/330/1
f 308/308/1 330/330/1 329/329/1
f 309/309/1 310/310/1 331/331/1
f 309/309/1 331/331/1 330/330/1
f 310/310/1 311/311/1 332/332/1
f 310/310/1 332/332/1 331/331/1
f 311/311/1 312/312/1 333/333/1
f 311/311/1 333/333/1 332/332/1
f 312/312/1 313/313/1 334/334/1
f 312/312/1 334/334/1 333/333/1
f 313/313/1 314/314/1 335/335/1
f 313/313/1 335/335/1 334/334/1
f 314/314/1 315/315/1 336/336/1
f 314/314/1 336/336/1 335/335/1
f 316/316/1 317/317/1 338/338/1
f 316/316/1 338/338/1 337/337/1
f 317/317/1 318/318/1 339/339/1
f 317/317/1 339/339/1 338/338/1
f 318/318/1 319/319/1 340/340/1
f 318/318/1 340/340/1 339/339/1
f 319/319/1 320/320/1 341/341/1
f 319/319/1 341/341/1 340/340/1
f 320/320/1 321/321/1 342/342/1
f 320/320/1 342/342/1 341/341/1
f 321/321/1 322/322/1 343/343/1
f 321/321/1 343/343/1 342/342/1
f 322/322/1 323/323/1 344/344/1
f 322/322/1 344/344/1 343/343/1
f 323/323/1 324/324/1 345/345/1
f 323/323/1 345/345/1 344/344/1
f 324/324/1 325/325/1 346/346/1
f 324/324/1 346/346/1 345/345/1
f 325/325/1 326/326/1 347/347/1
f 325/325/1 347/347/1 346/346/1
f 326/326/1 327/327/1 348/348/1
f 326/326/1 348/348/1 347/347/1
f 327/327/1 328/328/1 349/349/1
f 327/327/1 349/349/1 348/348/1
f 328/328/1 329/329/1 350/350/1
f 328/328/1 350/350/1 349/349/1
f 329/329/1 330/330/1 351/351/1
f 329/329/1 351/351/1 350/350/1
f 330/330/1 331/331/1 352/352/1
f 330/330/1 352/352/1 351/351/1
f 331/331/1 332/332/1 353/353/1
f 331/331/1 353/353/1 352/352/1
f 332/332/1 333/333/1 354/354/1
f 332/332/1 354/354/1 353/353/1
f 333/333/1 334/334/1 355/355/1
f 333/333/1 355/355/1 354/354/1
f 334/334/1 335/335/1 356/356/1
f 334/334/1 356/356/1 355/355/1
f 335/335/1 336/336/1 357/357/1
f 335/335/1 357/357/1 356/356/1
f 337/337/1 338/338/1 359/359/1
f 337/337/1 359/359/1 358/358/1
f 338/338/1 339/339/1 360/360/1
f 338/338/1 360/360/1 359/359/1
f 339/339/1 340/340/1 361/361/1
f 339/339/1 361/361/1 360/360/1
f 340/340/1 341/341/1 362/362/1
f 340/340/1 362/362/1 361/361/1
f 341/341/1 342/342/1 363/363/1
f 341/341/1 363/363/1 362/362/1
f 342/342/1 343/343/1 364/364/1
f 342/342/1 364/364/1 363/363/1
f 343/343/1 344/344/1 365/365/1
f 343/343/1 365/365/1 364/364/1
f 344/344/1 345/345/1 366/366/1
f 344/344/1 366/366/1 365/365/1
f 345/345/1 346/346/1 367/367/1
f 345/345/1 367/367/1 366/366/1
f 346/346/1 347/347/1 368/368/1
f 346/346/1 368/368/1 367/367/1
f 347/347/1 348/348/1 369/369/1
f 347/347/1 369/369/1 368/368/1
f 348/348/1 349/349/1 370/370/1
f 348/348/1 370/370/1 369/369/1
f 349/349/1 350/350/1 371/371/1
f 349/349/1 371/371/1 370/370/1
f 350/350/1 351/351/1 372/372/1
f 350/350/1 372/372/1 371/371/1
f 351/351/1 352/352/1 373/373/1
f 351/351/1 373/373/1 372/372/1
f 352/352/1 353/353/1 374/374/1
f 352/352/1 374/374/1 373/373/1
f 353/353/1 354/354/1 375/375/1
f 353/353/1 375/375/1 374/374/1
f 354/354/1 355/355/1 376/376/1
f 354/354/1 376/376/1 375/375/1
f 355/355/1 356/356/1 377/377/1
f 355/355/1 377/377/1 376/376/1
f 356/356/1 357/357/1 378/378/1
f 356/356/1 378/378/1 377/377/1
f 358/358/1 359/359/1 380/380/1
f 358/358/1 380/380/1 379/379/1
f 359/359/1 360/360/1 381/381/1
f 359/359/1 381/381/1 380/380/1
f 360/360/1 361/361/1 382/382/1
f 360/360/1 382/382/1 381/381/1
f 361/361/1 362/362/1 383/383/1
f 361/361/1 383/383/1 382/382/1
f 362/362/1 363/363/1 384/384/1
f 362/362/1 384/384/1 383/383/1
f 363/363/1 364/364/1 385/385/1
f 363/363/1 385/385/1 384/384/1
f 364/364/1 365/365/1 386/386/1
f 364/364/1 386/386/1 385/385/1
f 365/365/1 366/366/1 387/387/1
f 365/365/1 387/387/1 386/386/1
f 366/366/1 367/367/1 388/388/1
f 366/366/1 388/388/1 387/387/1
f 367/367/1 368/368/1 389/389/1
f 367/367/1 389/389/1 388/388/1
f 368/368/1 369/369/1 390/390/1
f 368/368/1 390/390/1 389/389/1
f 369/369/1 370/370/1 391/391/1
f 369/369/1 391/391/1 390/390/1
f 370/370/1 371/371/1 392/392/1
f 370/370/1 392/392/1 391/391/1
f 371/371/1 372/372/1 393/393/1
f 371/371/1 393/393/1 392/392/1
f 372/372/1 373/373/1 394/394/1
f 372/372/1 394/394/1 393/393/1
f 373/373/1 374/374/1 395/395/1
f 373/373/1 395/395/1 394/394/1
f 374/374/1 375/375/1 396/396/1
f 374/374/1 396/396/1 395/395/1
f 375/375/1 376/376/1 397/397/1
f 375/375/1 397/397/1 396/396/1
f 376/376/1 377/377/1 398/398/1
f 376/376/1 398/398/1 397/397/1
f 377/377/1 378/378/1 399/399/1
f 377/377/1 399/399/1 398/398/1
f 379/379/1 380/380/1 401/401/1
f 379/379/1 401/401/1 400/400/1
f 380/380/1 381/381/1 402/402/1
f 380/380/1 402/402/1 401/401/1
f 381/381/1 382/382/1 403/403/1
f 381/381/1 403/403/1 402/402/1
f 382/382/1 383/383/1 404/404/1
f 382/382/1 404/404/1 403/403/1
f 383/383/1 384/384/1 405/405/1
f 383/383/1 405/405/1 404/404/1
f 384/384/1 385/385/1 406/406/1
f 384/384/1 406/406/1 405/405/1
f 385/385/1 386/386/1 407/407/1
f 385/385/1 407/407/1 406/406/1
f 386/386/1 387/387/1 408/408/1
f 386/386/1 408/408/1 407/407/1
f 387/387/1 388/388/1 409/409/1
f 387/387/1 409/409/1 408/408/1
f 388/388/1 389/389/1 410/410/1
f 388/388/1 410/410/1 409/409/1
f 389/389/1 390/390/1 411/411/1
f 389/389/1 411/411/1 410/410/1
f 390/390/1 391/391/1 412/412/1
f 390/390/1 412/412/1 411/411/1
f 391/391/1 392/392/1 413/413/1
f 391/391/1 413/413/1 412/412/1
f 392/392/1 393/393/1 414/414/1
f 392/392/1 414/414/1 413/413/1
f 393/393/1 394/394/1 415/415/1
f 393/393/1 415/415/1 414/414/1
f 394/394/1 395/395/1 416/416/1
f 394/394/1 416/416/1 415/415/1
f 395/395/1 396/396/1 417/417/1
f 395/395/1 417/417/1 416/416/1
f 396/396/1 397/397/1 418/418/1
f 396/396/1 418/418/1 417/417/1
f 397/397/1 398/398/1 419/419/1
f 397/397/1 419/419/1 418/418/1
f 398/398/1 399/399/1 420/420/1
f 398/398/1 420/420/1 419/419/1
f 400/400/1 401/401/1 422/422/1
f 400/400/1 422/422/1 421/421/1
f 401/401/1 402/402/1 423/423/1
f 401/401/1 423/423/1 422/422/1
f 402/402/1 403/403/1 424/424/1
f 402/402/1 424/424/1 423/423/1
f 403/403/1 404/404/1 425/425/1
f 403/403/1 425/425/1 424/424/1
f 404/404/1 405/405/1 426/426/1
f 404/404/1 426/426/1 425/425/1
f 405/405/1 406/406/1 427/427/1
f 405/405/1 427/427/1 426/426/1
f 406/406/1 407/407/1 428/428/1
f 406/406/1 428/428/1 427/427/1
f 407/407/1 408/408/1 429/429/1
f 407/407/1 429/429/1 428/428/1
f 408/408/1 409/409/1 430/430/1
f 408/408/1 430/430/1 429/429/1
f 409/409/1 410/410/1 431/431/1
f 409/409/1 431/431/1 430/430/1
f 410/410/1 411/411/1 432/432/1
f 410/410/1 432/432/1 431/431/1
f 411/411/1 412/412/1 433/433/1
f 411/411/1 433/433/1 432/432/1
f 412/412/1 413/413/1 434/434/1
f 412/412/1 434/434/1 433/433/1
f 413/413/1 414/414/1 435/435/1
f 413/413/1 435/435/1 434/434/1
f 414/414/1 415/415/1 436/436/1
f 414/414/1 436/436/1 435/435/1
f 415/415/1 416/416/1 437/437/1
f 415/415/1 437/437/1 436/436/1
f 416/416/1 417/417/1 438/438/1
f 416/416/1 438/438/1 437/437/1
f 417/417/1 418/418/1 439/439/1
f 417/417/1 439/439/1 438/438/1
f 418/418/1 419/419/1 440/440/1
f 418/418/1 440/440/1 439/439/1
f 419/419/1 420/420/1 441/441/1
f 419/419/1 441/441/1 440/440/1
f 442/442/2 464/464/2 443/443/2
f 442/442/2 463/463/2 464/464/2
f 443/443/2 465/465/2 444/444/2
f 443/443/2 464/464/2 465/465/2
f 444/444/2 466/466/2 445/445/2
f 444/444/2 465/465/2 466/466/2
f 445/445/2 467/467/2 446/446/2
f 445/445/2 466/466/2 467/467/2
f 446/446/2 468/468/2 447/447/2
f 446/446/2 467/467/2 468/468/2
f 447/447/2 469/469/2 448/448/2
f 447/447/2 468/468/2 469/469/2
f 448/448/2 470/470/2 449/449/2
f 448/448/2 469/469/2 470/470/2
f 449/449/2 471/471/2 450/450/2
f 449/449/2 470/470/2 471/471/2
f 450/450/2 472/472/2 451/451/2
f 450/450/2 471/471/2 472/472/2
f 451/451/2 473/473/2 452/452/2
f 451/451/2 472/472/2 473/473/2
f 452/452/2 474/474/2 453/453/2
f 452/452/2 473/473/2 474/474/2
f 453/453/2 475/475/2 454/454/2
f 453/453/2 474/474/2 475/475/2
f 454/454/2 476/476/2 455/455/2
f 454/454/2 475/475/2 476/476/2
f 455/455/2 477/477/2 456/456/2
f 455/455/2 476/476/2 477/477/2
f 456/456/2 478/478/2 457/457/2
f 456/456/2 477/477/2 478/478/2
f 457/457/2 479/479/2 458/458/2
f 457/457/2 478/478/2 479/479/2
f 458/458/2 480/480/2 459/459/2
f 458/458/2 479/479/2 480/480/2
f 459/459/2 481/481/2 460/460/2
f 459/459/2 480/480/2 481/481/2
f 460/460/2 482/482/2 461/461/2
f 460/460/2 481/481/2 482/482/2
f 461/461/2 483/483/2 462/462/2
f 461/461/2 482/482/2 483/483/2
f 463/463/2 485/485/2 464/464/2
f 463/463/2 484/484/2 485/485/2
f 464/464/2 486/486/2 465/465/2
f 464/464/2 485/485/2 486/486/2
f 465/465/2 487/487/2 466/466/2
f 465/465/2 486/486/2 487/487/2
f 466/466/2 488/488/2 467/467/2
f 466/466/2 487/487/2 488/488/2
f 467/467/2 489/489/2 468/468/2
f 467/467/2 488/488/2 489/489/2
f 468/468/2 490/490/2 469/469/2
f 468/468/2 489/489/2 490/490/2
f 469/469/2 491/491/2 470/470/2
f 469/469/2 490/490/2 491/491/2
f 470/470/2 492/492/2 471/471/2
f 470/470/2 491/491/2 492/492/2
f 471/471/2 493/493/2 472/472/2
f 471/471/2 492/492/2 493/493/2
f 472/472/2 494/494/2 473/473/2
f 472/472/2 493/493/2 494/494/2
f 473/473/2 495/495/2 474/474/2
f 473/473/2 494/494/2 495/495/2
f 474/474/2 496/496/2 475/475/2
f 474/474/2 495/495/2 496/496/2
f 475/475/2 497/497/2 476/476/2
f 475/475/2 496/496/2 497/497/2
f 476/476/2 498/498/2 477/477/2
f 476/476/2 497/497/2 498/498/2
f 477/477/2 499/499/2 478/478/2
f 477/477/2 498/498/2 499/499/2
f 478/478/2 500/500/2 479/479/2
f 478/478/2 499/499/2 500/500/2
f 479/479/2 501/501/2 480/480/2
f 479/479/2 500/500/2 501/501/2
f 480/480/2 502/502/2 481/481/2
f 480/480/2 501/501/2 502/502/2
f 481/481/2 503/503/2 482/482/2
f 481/481/2 502/502/2 503/503/2
f 482/482/2 504/504/2 483/483/2
f 482/482/2 503/503/2 504/504/2
f 484/484/2 506/506/2 485/485/2
f 484/484/2 505/505/2 506/506/2
f 485/485/2 507/507/2 486/486/2
f 485/485/2 506/506/2 507/507/2
f 486/486/2 508/508/2 487/487/2
f 486/486/2 507/507/2 508/508/2
f 487/487/2 509/509/2 488/488/2
f 487/487/2 508/508/2 509/509/2
f 488/488/2 510/510/2 489/489/2
f 488/488/2 509/509/2 510/510/2
f 489/489/2 511/511/2 490/490/2
f 489/489/2 510/510/2 511/511/2
f 490/490/2 512/512/2 491/491/2
f 490/490/2 511/511/2 512/512/2
f 491/491/2 513/513/2 492/492/2
f 491/491/2 512/512/2 513/513/2
f 492/492/2 514/514/2 493/493/2
f 492/492/2 513/513/2 514/514/2
f 493/493/2 515/515/2 494/494/2
f 493/493/2 514/514/2 515/515/2
f 494/494/2 516/516/2 495/495/2
f 494/494/2 515/515/2 516/516/2
f 495/495/2 517/517/2 496/496/2
f 495/495/2 516/516/2 517/517/2
f 496/496/2 518/518/2 497/497/2
f 496/496/2 517/517/2 518/518/2
f 497/497/2 519/519/2 498/498/2
f 497/497/2 518/518/2 519/519/2
f 498/498/2 520/520/2 499/499/2
f 498/498/2 519/519/2 520/520/2
f 499/499/2 521/521/2 500/500/2
f 499/499/2 520/520/2 521/521/2
f 500/500/2 522/522/2 501/501/2
f 500/500/2 521/521/2 522/522/2
f 501/501/2 523/523/2 502/502/2
f 501/501/2 522/522/2 523/523/2
f 502/502/2 524/524/2 503/503/2
f 502/502/2 523/523/2 524/524/2
f 503/503/2 525/525/2 504/504/2
f 503/503/2 524/524/2 525/525/2
f 505/505/2 527/527/2 506/506/2
f 505/505/2 526/526/2 527/527/2
f 506/506/2 528/528/2 507/507/2
f 506/506/2 527/527/2 528/528/2
f 507/507/2 529/529/2 508/508/2
f 507/507/2 528/528/2 529/529/2
f 508/508/2 530/530/2 509/509/2
f 508/508/2 529/529/2 530/530/2
f 509/509/2 531/531/2 510/510/2
f 509/509/2 530/530/2 531/531/2
f 510/510/2 532/532/2 511/511/2
f 510/510/2 531/531/2 532/532/2
f 511/511/2 533/533/2 512/512/2
f 511/511/2 532/532/2 533/533/2
f 512/512/2 534/534/2 513/513/2
f 512/512/2 533/533/2 534/534/2
f 513/513/2 535/535/2 514/514/2
f 513/513/2 534/534/2 535/535/2
f 514/514/2 536/536/2 515/515/2
f 514/514/2 535/535/2 536/536/2
f 515/515/2 537/537/2 516/516/2
f 515/515/2 536/536/2 537/537/2
f 516/516/2 538/538/2 517/517/2
f 516/516/2 537/537/2 538/538/2
f 517/517/2 539/539/2 518/518/2
f 517/517/2 538/538/2 539/539/2
f 518/518/2 540/540/2 519/519/2
f 518/518/2 539/539/2 540/540/2
f 519/519/2 541/541/2 520/520/2
f 519/519/2 540/540/2 541/541/2
f 520/520/2 542/542/2 521/521/2
f 520/520/2 541/541/2 542/542/2
f 521/521/2 543/543/2 522/522/2
f 521/521/2 542/542/2 543/543/2
f 522/522/2 544/544/2 523/523/2
f 522/522/2 543/543/2 544/544/2
f 523/523/2 545/545/2 524/524/2
f 523/523/2 544/544/2 545/545/2
f 524/524/2 546/546/2 525/525/2
f 524/524/2 545/545/2 546/546/2
f 526/526/2 548/548/2 527/527/2
f 526/526/2 547/547/2 548/548/2
f 527/527/2 549/549/2 528/528/2
f 527/527/2 548/548/2 549/549/2
f 528/528/2 550/550/2 529/529/2
f 528/528/2 549/549/2 550/550/2
f 529/529/2 551/551/2 530/530/2
f 529/529/2 550/550/2 551/551/2
f 530/530/2 552/552/2 531/531/2
f 530/530/2 551/551/2 552/552/2
f 531/531/2 553/553/2 532/532/2
f 531/531/2 552/552/2 553/553/2
f 532/532/2 554/554/2 533/533/2
f 532/532/2 553/553/2 554/554/2
f 533/533/2 555/555/2 534/534/2
f 533/533/2 554/554/2 555/555/2
f 534/534/2 556/556/2 535/535/2
f 534/534/2 555/555/2 556/556/2
f 535/535/2 557/557/2 536/536/2
f 535/535/2 556/556/2 557/557/2
f 536/536/2 558/558/2 537/537/2
f 536/536/2 557/557/2 558/558/2
f 537/537/2 559/559/2 538/538/2
f 537/537/2 558/558/2 559/559/2
f 538/538/2 560/560/2 539/539/2
f 538/538/2 559/559/2 560/560/2
f 539/539/2 561/561/2 540/540/2
f 539/539/2 560/560/2 561/561/2
f 540/540/2 562/562/2 541/541/2
f 540/540/2 561/561/2 562/562/2
f 541/541/2 563/563/2 542/542/2
f 541/541/2 562/562/2 563/563/2
f 542/542/2 564/564/2 543/543/2
f 542/542/2 563/563/2 564/564/2
f 543/543/2 565/565/2 544/544/2
f 543/543/2 564/564/2 565/565/2
f 544/544/2 566/566/2 545/545/2
f 544/544/2 565/565/2 566/566/2
f 545/545/2 567/567/2 546/546/2
f 545/545/2 566/566/2 567/567/2
f 547/547/2 569/569/2 548/548/2
f 547/547/2 568/568/2 569/569/2
f 548/548/2 570/570/2 549/549/2
f 548/548/2 569/569/2 570/570/2
f 549/549/2 571/571/2 550/550/2
f 549/549/2 570/570/2 571/571/2
f 550/550/2 572/572/2 551/551/2
f 550/550/2 571/571/2 572/572/2
f 551/551/2 573/573/2 552/552/2
f 551/551/2 572/572/2 573/573/2
f 552/552/2 574/574/2 553/553/2
f 552/552/2 573/573/2 574/574/2
f 553/553/2 575/575/2 554/554/2
f 553/553/2 574/574/2 575/575/2
f 554/554/2 576/576/2 555/555/2
f 554/554/2 575/575/2 576/576/2
f 555/555/2 577/577/2 556/556/2
f 555/555/2 576/576/2 577/577/2
f 556/556/2 578/578/2 557/557/2
f 556/556/2 577/577/2 578/578/2
f 557/557/2 579/579/2 558/558/2
f 557/557/2 578/578/2 579/579/2
f 558/558/2 580/580/2 559/559/2
f 558/558/2 579/579/2 580/580/2
f 559/559/2 581/581/2 560/560/2
f 559/559/2 580/580/2 581/581/2
f 560/560/2 582/582/2 561/561/2
f 560/560/2 581/581/2 582/582/2
f 561/561/2 583/583/2 562/562/2
f 561/561/2 582/582/2 583/583/2
f 562/562/2 584/584/2 563/563/2
f 562/562/2 583/583/2 584/584/2
f 563/563/2 585/585/2 564/564/2
f 563/563/2 584/584/2 585/585/2
f 564/564/2 586/586/2 565/565/2
f 564/564/2 585/585/2 586/586/2
f 565/565/2 587/587/2 566/566/2
f 565/565/2 586/586/2 587/587/2
f 566/566/2 588/588/2 567/567/2
f 566/566/2 587/587/2 588/588/2
f 568/568/2 590/590/2 569/569/2
f 568/568/2 589/589/2 590/590/2
f 569/569/2 591/591/2 570/570/2
f 569/569/2 590/590/2 591/591/2
f 570/570/2 592/592/2 571/571/2
f 570/570/2 591/591/2 592/592/2
f 571/571/2 593/593/2 572/572/2
f 571/571/2 592/592/2 593/593/2
f 572/572/2 594/594/2 573/573/2
f 572/572/2 593/593/2 594/594/2
f 573/573/2 595/595/2 574/574/2
f 573/573/2 594/594/2 595/595/2
f 574/574/2 596/596/2 575/575/2
f 574/574/2 595/595/2 596/596/2
f 575/575/2 597/597/2 576/576/2
f 575/575/2 596/596/2 597/597/2
f 576/576/2 598/598/2 577/577/2
f 576/576/2 597/597/2 598/598/2
f 577/577/2 599/599/2 578/578/2
f 577/577/2 598/598/2 599/599/2
f 578/578/2 600/600/2 579/579/2
f 578/578/2 599/599/2 600/600/2
f 579/579/2 601/601/2 580/580/2
f 579/579/2 600/600/2 601/601/2
f 580/580/2 602/602/2 581/581/2
f 580/580/2 601/601/2 602/602/2
f 581/581/2 603/603/2 582/582/2
f 581/581/2 602/602/2 603/603/2
f 582/582/2 604/604/2 583/583/2
f 582/582/2 603/603/2 604/604/2
f 583/583/2 605/605/2 584/584/2
f 583/583/2 604/604/2 605/605/2
f 584/584/2 606/606/2 585/585/2
f 584/584/2 605/605/2 606/606/2
f 585/585/2 607/607/2 586/586/2
f 585/585/2 606/606/2 607/607/2
f 586/586/2 608/608/2 587/587/2
f 586/586/2 607/607/2 608/608/2
f 587/587/2 609/609/2 588/588/2
f 587/587/2 608/608/2 609/609/2
f 589/589/2 611/611/2 590/590/2
f 589/589/2 610/610/2 611/611/2
f 590/590/2 612/612/2 591/591/2
f 590/590/2 611/611/2 612/612/2
f 591/591/2 613/613/2 592/592/2
f 591/591/2 612/612/2 613/613/2
f 592/592/2 614/614/2 593/593/2
f 592/592/2 613/613/2 614/614/2
f 593/593/2 615/615/2 594/594/2
f 593/593/2 614/614/2 615/615/2
f 594/594/2 616/616/2 595/595/2
f 594/594/2 615/615/2 616/616/2
f 595/595/2 617/617/2 596/596/2
f 595/595/2 616/616/2 617/617/2
f 596/596/2 618/618/2 597/597/2
f 596/596/2 617/617/2 618/618/2
f 597/597/2 619/619/2 598/598/2
f 597/597/2 618/618/2 619/619/2
f 598/598/2 620/620/2 599/599/2
f 598/598/2 619/619/2 620/620/2
f 599/599/2 621/621/2 600/600/2
f 599/599/2 620/620/2 621/621/2
f 600/600/2 622/622/2 601/601/2
f 600/600/2 621/621/2 622/622/2
f 601/601/2 623/623/2 602/602/2
f 601/601/2 622/622/2 623/623/2
f 602/602/2 624/624/2 603/603/2
f 602/602/2 623/623/2 624/624/2
f 603/603/2 625/625/2 604/604/2
f 603/603/2 624/624/2 625/625/2
f 604/604/2 626/626/2 605/605/2
f 604/604/2 625/625/2 626/626/2
f 605/605/2 627/627/2 606/606/2
f 605/605/2 626/626/2 627/627/2
f 606/606/2 628/628/2 607/607/2
f 606/606/2 627/627/2 628/628/2
f 607/607/2 629/629/2 608/608/2
f 607/607/2 628/628/2 629/629/2
f 608/608/2 630/630/2 609/609/2
f 608/608/2 629/629/2 630/630/2
f 610/610/2 632/632/2 611/611/2
f 610/610/2 631/631/2 632/632/2
f 611/611/2 633/633/2 612/612/2
f 611/611/2 632/632/2 633/633/2
f 612/612/2 634/634/2 613/613/2
f 612/612/2 633/633/2 634/634/2
f 613/613/2 635/635/2 614/614/2
f 613/613/2 634/634/2 635/635/2
f 614/614/2 636/636/2 615/615/2
f 614/614/2 635/635/2 636/636/2
f 615/615/2 637/637/2 616/616/2
f 615/615/2 636/636/2 637/637/2
f 616/616/2 638/638/2 617/617/2
f 616/616/2 637/637/2 638/638/2
f 617/617/2 639/639/2 618/618/2
f 617/617/2 638/638/2 639/639/2
f 618/618/2 640/640/2 619/619/2
f 618/618/2 639/639/2 640/640/2
f 619/619/2 641/641/2 620/620/2
f 619/619/2 640/640/2 641/641/2
f 620/620/2 642/642/2 621/621/2
f 620/620/2 641/641/2 642/642/2
f 621/621/2 643/643/2 622/622/2
f 621/621/2 642/642/2 643/643/2
f 622/622/2 644/644/2 623/623/2
f 622/622/2 643/643/2 644/644/2
f 623/623/2 645/645/2 624/624/2
f 623/623/2 644/644/2 645/645/2
f 624/624/2 646/646/2 625/625/2
f 624/624/2 645/645/2 646/646/2
f 625/625/2 647/647/2 626/626/2
f 625/625/2 646/646/2 647/647/2
f 626/626/2 648/648/2 627/627/2
f 626/626/2 647/647/2 648/648/2
f 627/627/2 649/649/2 628/628/2
f 627/627/2 648/648/2 649/649/2
f 628/628/2 650/650/2 629/629/2
f 628/628/2 649/649/2 650/650/2
f 629/629/2 651/651/2 630/630/2
f 629/629/2 650/650/2 651/651/2
f 631/631/2 653/653/2 632/632/2
f 631/631/2 652/652/2 653/653/2
f 632/632/2 654/654/2 633/633/2
f 632/632/2 653/653/2 654/654/2
f 633/633/2 655/655/2 634/634/2
f 633/633/2 654/654/2 655/655/2
f 634/634/2 656/656/2 635/635/2
f 634/634/2 655/655/2 656/656/2
f 635/635/2 657/657/2 636/636/2
f 635/635/2 656/656/2 657/657/2
f 636/636/2 658/658/2 637/637/2
f 636/636/2 657/657/2 658/658/2
f 637/637/2 659/659/2 638/638/2
f 637/637/2 658/658/2 659/659/2
f 638/638/2 660/660/2 639/639/2
f 638/638/2 659/659/2 660/660/2
f 639/639/2 661/661/2 640/640/2
f 639/639/2 660/660/2 661/661/2
f 640/640/2 662/662/2 641/641/2
f 640/640/2 661/661/2 662/662/2
f 641/641/2 663/663/2 642/642/2
f 641/641/2 662/662/2 663/663/2
f 642/642/2 664/664/2 643/643/2
f 642/642/2 663/663/2 664/664/2
f 643/643/2 665/665/2 644/644/2
f 643/643/2 664/664/2 665/665/2
f 644/644/2 666/666/2 645/645/2
f 644/644/2 665/665/2 666/666/2
f 645/645/2 667/667/2 646/646/2
f 645/645/2 666/666/2 667/667/2
f 646/646/2 668/668/2 647/647/2
f 646/646/2 667/667/2 668/668/2
f 647/647/2 669/669/2 648/648/2
f 647/647/2 668/668/2 669/669/2
f 648/648/2 670/670/2 649/649/2
f 648/648/2 669/669/2 670/670/2
f 649/649/2 671/671/2 650/650/2
f 649/649/2 670/670/2 671/671/2
f 650/650/2 672/672/2 651/651/2
f 650/650/2 671/671/2 672/672/2
f 652/652/2 674/674/2 653/653/2
f 652/652/2 673/673/2 674/674/2
f 653/653/2 675/675/2 654/654/2
f 653/653/2 674/674/2 675/675/2
f 654/654/2 676/676/2 655/655/2
f 654/654/2 675/675/2 676/676/2
f 655/655/2 677/677/2 656/656/2
f 655/655/2 676/676/2 677/677/2
f 656/656/2 678/678/2 657/657/2
f 656/656/2 677/677/2 678/678/2
f 657/657/2 679/679/2 658/658/2
f 657/657/2 678/678/2 679/679/2
f 658/658/2 680/680/2 659/659/2
f 658/658/2 679/679/2 680/680/2
f 659/659/2 681/681/2 660/660/2
f 659/659/2 680/680/2 681/681/2
f 660/660/2 682/682/2 661/661/2
f 660/660/2 681/681/2 682/682/2
f 661/661/2 683/683/2 662/662/2
f 661/661/2 682/682/2 683/683/2
f 662/662/2 684/684/2 663/663/2
f 662/662/2 683/683/2 684/684/2
f 663/663/2 685/685/2 664/664/2
f 663/663/2 684/684/2 685/685/2
f 664/664/2 686/686/2 665/665/2
f 664/664/2 685/685/2 686/686/2
f 665/665/2 687/687/2 666/666/2
f 665/665/2 686/686/2 687/687/2
f 666/666/2 688/688/2 667/667/2
f 666/666/2 687/687/2 688/688/2
f 667/667/2 689/689/2 668/668/2
f 667/667/2 688/688/2 689/689/2
f 668/668/2 690/690/2 669/669/2
f 668/668/2 689/689/2 690/690/2
f 669/669/2 691/691/2 670/670/2
f 669/669/2 690/690/2 691/691/2
f 670/670/2 692/692/2 671/671/2
f 670/670/2 691/691/2 692/692/2
f 671/671/2 693/693/2 672/672/2
f 671/671/2 692/692/2 693/693/2
f 673/673/2 695/695/2 674/674/2
f 673/673/2 694/694/2 695/695/2
f 674/674/2 696/696/2 675/675/2
f 674/674/2 695/695/2 696/696/2
f 675/675/2 697/697/2 676/676/2
f 675/675/2 696/696/2 697/697/2
f 676/676/2 698/698/2 677/677/2
f 676/676/2 697/697/2 698/698/2
f 677/677/2 699/699/2 678/678/2
f 677/677/2 698/698/2 699/699/2
f 678/678/2 700/700/2 679/679/2
f 678/678/2 699/699/2 700/700/2
f 679/679/2 701/701/2 680/680/2
f 679/679/2 700/700/2 701/701/2
f 680/680/2 702/702/2 681/681/2
f 680/680/2 701/701/2 702/702/2
f 681/681/2 703/703/2 682/682/2
f 681/681/2 702/702/2 703/703/2
f 682/682/2 704/704/2 683/683/2
f 682/682/2 703/703/2 704/704/2
f 683/683/2 705/705/2 684/684/2
f 683/683/2 704/704/2 705/705/2
f 684/684/2 706/706/2 685/685/2
f 684/684/2 705/705/2 706/706/2
f 685/685/2 707/707/2 686/686/2
f 685/685/2 706/706/2 707/707/2
f 686/686/2 708/708/2 687/687/2
f 686/686/2 707/707/2 708/708/2
f 687/687/2 709/709/2 688/688/2
f 687/687/2 708/708/2 709/709/2
f 688/688/2 710/710/2 689/689/2
f 688/688/2 709/709/2 710/710/2
f 689/689/2 711/711/2 690/690/2
f 689/689/2 710/710/2 711/711/2
f 690/690/2 712/712/2 691/691/2
f 690/690/2 711/711/2 712/712/2
f 691/691/2 713/713/2 692/692/2
f 691/691/2 712/712/2 713/713/2
f 692/692/2 714/714/2 693/693/2
f 692/692/2 713/713/2 714/714/2
f 694/694/2 716/716/2 695/695/2
f 694/694/2 715/715/2 716/716/2
f 695/695/2 717/717/2 696/696/2
f 695/695/2 716/716/2 717/717/2
f 696/696/2 718/718/2 697/697/2
f 696/696/2 717/717/2 718/718/2
f 697/697/2 719/719/2 698/698/2
f 697/697/2 718/718/2 719/719/2
f 698/698/2 720/720/2 699/699/2
f 698/698/2 719/719/2 720/720/2
f 699/699/2 721/721/2 700/700/2
f 699/699/2 720/720/2 721/721/2
f 700/700/2 722/722/2 701/701/2
f 700/700/2 721/721/2 722/722/2
f 701/701/2 723/723/2 702/702/2
f 701/701/2 722/722/2 723/723/2
f 702/702/2 724/724/2 703/703/2
f 702/702/2 723/723/2 724/724/2
f 703/703/2 725/725/2 704/704/2
f 703/703/2 724/724/2 725/725/2
f 704/704/2 726/726/2 705/705/2
f 704/704/2 725/725/2 726/726/2
f 705/705/2 727/727/2 706/706/2
f 705/705/2 726/726/2 727/727/2
f 706/706/2 728/728/2 707/707/2
f 706/706/2 727/727/2 728/728/2
f 707/707/2 729/729/2 708/708/2
f 707/707/2 728/728/2 729/729/2
f 708/708/2 730/730/2 709/709/2
f 708/708/2 729/729/2 730/730/2
f 709/709/2 731/731/2 710/710/2
f 709/709/2 730/730/2 731/731/2
f 710/710/2 732/732/2 711/711/2
f 710/710/2 731/731/2 732/732/2
f 711/711/2 733/733/2 712/712/2
f 711/711/2 732/732/2 733/733/2
f 712/712/2 734/734/2 713/713/2
f 712/712/2 733/733/2 734/734/2
f 713/713/2 735/735/2 714/714/2
f 713/713/2 734/734/2 735/735/2
f 715/715/2 737/737/2 716/716/2
f 715/715/2 736/736/2 737/737/2
f 716/716/2 738/738/2 717/717/2
f 716/716/2 737/737/2 738/738/2
f 717/717/2 739/739/2 718/718/2
f 717/717/2 738/738/2 739/739/2
f 718/718/2 740/740/2 719/719/2
f 718/718/2 739/739/2 740/740/2
f 719/719/2 741/741/2 720/720/2
f 719/719/2 740/740/2 741/741/2
f 720/720/2 742/742/2 721/721/2
f 720/720/2 741/741/2 742/742/2
f 721/721/2 743/743/2 722/722/2
f 721/721/2 742/742/2 743/743/2
f 722/722/2 744/744/2 723/723/2
f 722/722/2 743/743/2 744/744/2
f 723/723/2 745/745/2 724/724/2
f 723/723/2 744/744/2 745/745/2
f 724/724/2 746/746/2 725/725/2
f 724/724/2 745/745/2 746/746/2
f 725/725/2 747/747/2 726/726/2
f 725/725/2 746/746/2 747/747/2
f 726/726/2 748/748/2 727/727/2
f 726/726/2 747/747/2 748/748/2
f 727/727/2 749/749/2 728/728/2
f 727/727/2 748/748/2 749/749/2
f 728/728/2 750/750/2 729/729/2
f 728/728/2 749/749/2 750/750/2
f 729/729/2 751/751/2 730/730/2
f 729/729/2 750/750/2 751/751/2
f 730/730/2 752/752/2 731/731/2
f 730/730/2 751/751/2 752/752/2
f 731/731/2 753/753/2 732/732/2
f 731/731/2 752/752/2 753/753/2
f 732/732/2 754/754/2 733/733/2
f 732/732/2 753/753/2 754/754/2
f 733/733/2 755/755/2 734/734/2
f 733/733/2 754/754/2 755/755/2
f 734/734/2 756/756/2 735/735/2
f 734/734/2 755/755/2 756/756/2
f 736/736/2 758/758/2 737/737/2
f 736/736/2 757/757/2 758/758/2
f 737/737/2 759/759/2 738/738/2
f 737/737/2 758/758/2 759/759/2
f 738/738/2 760/760/2 739/739/2
f 738/738/2 759/759/2 760/760/2
f 739/739/2 761/761/2 740/740/2
f 739/739/2 760/760/2 761/761/2
f 740/740/2 762/762/2 741/741/2
f 740/740/2 761/761/2 762/762/2
f 741/741/2 763/763/2 742/742/2
f 741/741/2 762/762/2 763/763/2
f 742/742/2 764/764/2 743/743/2
f 742/742/2 763/763/2 764/764/2
f 743/743/2 765/765/2 744/744/2
f 743/743/2 764/764/2 765/765/2
f 744/744/2 766/766/2 745/745/2
f 744/744/2 765/765/2 766/766/2
f 745/745/2 767/767/2 746/746/2
f 745/745/2 766/766/2 767/767/2
f 746/746/2 768/768/2 747/747/2
f 746/746/2 767/767/2 768/768/2
f 747/747/2 769/769/2 748/748/2
f 747/747/2 768/768/2 769/769/2
f 748/748/2 770/770/2 749/749/2
f 748/748/2 769/769/2 770/770/2
f 749/749/2 771/771/2 750/750/2
f 749/749/2 770/770/2 771/771/2
f 750/750/2 772/772/2 751/751/2
f 750/750/2 771/771/2 772/772/2
f 751/751/2 773/773/2 752/752/2
f 751/751/2 772/772/2 773/773/2
f 752/752/2 774/774/2 753/753/2
f 752/752/2 773/773/2 774/774/2
f 753/753/2 775/775/2 754/754/2
f 753/753/2 774/774/2 775/775/2
f 754/754/2 776/776/2 755/755/2
f 754/754/2 775/775/2 776/776/2
f 755/755/2 777/777/2 756/756/2
f 755/755/2 776/776/2 777/777/2
f 757/757/2 779/779/2 758/758/2
f 757/757/2 778/778/2 779/779/2
f 758/758/2 780/780/2 759/759/2
f 758/758/2 779/779/2 780/780/2
f 759/759/2 781/781/2 760/760/2
f 759/759/2 780/780/2 781/781/2
f 760/760/2 782/782/2 761/761/2
f 760/760/2 781/781/2 782/782/2
f 761/761/2 783/783/2 762/762/2
f 761/761/2 782/782/2 783/783/2
f 762/762/2 784/784/2 763/763/2
f 762/762/2 783/783/2 784/784/2
f 763/763/2 785/785/2 764/764/2
f 763/763/2 784/784/2 785/785/2
f 764/764/2 786/786/2 765/765/2
f 764/764/2 785/785/2 786/786/2
f 765/765/2 787/787/2 766/766/2
f 765/765/2 786/786/2 787/787/2
f 766/766/2 788/788/2 767/767/2
f 766/766/2 787/787/2 788/788/2
f 767/767/2 789/789/2 768/768/2
f 767/767/2 788/788/2 789/789/2
f 768/768/2 790/790/2 769/769/2
f 768/768/2 789/789/2 790/790/2
f 769/769/2 791/791/2 770/770/2
f 769/769/2 790/790/2 791/791/2
f 770/770/2 792/792/2 771/771/2
f 770/770/2 791/791/2 792/792/2
f 771/771/2 793/793/2 772/772/2
f 771/771/2 792/792/2 793/793/2
f 772/772/2 794/794/2 773/773/2
f 772/772/2 793/793/2 794/794/2
f 773/773/2 795/795/2 774/774/2
f 773/773/2 794/794/2 795/795/2
f 774/774/2 796/796/2 775/775/2
f 774/774/2 795/795/2 796/796/2
f 775/775/2 797/797/2 776/776/2
f 775/775/2 796/796/2 797/797/2
f 776/776/2 798/798/2 777/777/2
f 776/776/2 797/797/2 798/798/2
f 778/778/2 800/800/2 779/779/2
f 778/778/2 799/799/2 800/800/2
f 779/779/2 801/801/2 780/780/2
f 779/779/2 800/800/2 801/801/2
f 780/780/2 802/802/2 781/781/2
f 780/780/2 801/801/2 802/802/2
f 781/781/2 803/803/2 782/782/2
f 781/781/2 802/802/2 803/803/2
f 782/782/2 804/804/2 783/783/2
f 782/782/2 803/803/2 804/804/2
f 783/783/2 805/805/2 784/784/2
f 783/783/2 804/804/2 805/805/2
f 784/784/2 806/806/2 785/785/2
f 784/784/2 805/805/2 806/806/2
f 785/785/2 807/807/2 786/786/2
f 785/785/2 806/806/2 807/807/2
f 786/786/2 808/808/2 787/787/2
f 786/786/2 807/807/2 808/808/2
f 787/787/2 809/809/2 788/788/2
f 787/787/2 808/808/2 809/809/2
f 788/788/2 810/810/2 789/789/2
f 788/788/2 809/809/2 810/810/2
f 789/789/2 811/811/2 790/790/2
f 789/789/2 810/810/2 811/811/2
f 790/790/2 812/812/2 791/791/2
f 790/790/2 811/811/2 812/812/2
f 791/791/2 813/813/2 792/792/2
f 791/791/2 812/812/2 813/813/2
f 792/792/2 814/814/2 793/793/2
f 792/792/2 813/813/2 814/814/2
f 793/793/2 815/815/2 794/794/2
f 793/793/2 814/814/2 815/815/2
f 794/794/2 816/816/2 795/795/2
f 794/794/2 815/815/2 816/816/2
f 795/795/2 817/817/2 796/796/2
f 795/795/2 816/816/2 817/817/2
f 796/796/2 818/818/2 797/797/2
f 796/796/2 817/817/2 818/818/2
f 797/797/2 819/819/2 798/798/2
f 797/797/2 818/818/2 819/819/2
f 799/799/2 821/821/2 800/800/2
f 799/799/2 820/820/2 821/821/2
f 800/800/2 822/822/2 801/801/2
f 800/800/2 821/821/2 822/822/2
f 801/801/2 823/823/2 802/802/2
f 801/801/2 822/822/2 823/823/2
f 802/802/2 824/824/2 803/803/2
f 802/802/2 823/823/2 824/824/2
f 803/803/2 825/825/2 804/804/2
f 803/803/2 824/824/2 825/825/2
f 804/804/2 826/826/2 805/805/2
f 804/804/2 825/825/2 826/826/2
f 805/805/2 827/827/2 806/806/2
f 805/805/2 826/826/2 827/827/2
f 806/806/2 828/828/2 807/807/2
f 806/806/2 827/827/2 828/828/2
f 807/807/2 829/829/2 808/808/2
f 807/807/2 828/828/2 829/829/2
f 808/808/2 830/830/2 809/809/2
f 808/808/2 829/829/2 830/830/2
f 809/809/2 831/831/2 810/810/2
f 809/809/2 830/830/2 831/831/2
f 810/810/2 832/832/2 811/811/2
f 810/810/2 831/831/2 832/832/2
f 811/811/2 833/833/2 812/812/2
f 811/811/2 832/832/2 833/833/2
f 812/812/2 834/834/2 813/813/2
f 812/812/2 833/833/2 834/834/2
f 813/813/2 835/835/2 814/814/2
f 813/813/2 834/834/2 835/835/2
f 814/814/2 836/836/2 815/815/2
f 814/814/2 835/835/2 836/836/2
f 815/815/2 837/837/2 816/816/2
f 815/815/2 836/836/2 837/837/2
f 816/816/2 838/838/2 817/817/2
f 816/816/2 837/837/2 838/838/2
f 817/817/2 839/839/2 818/818/2
f 817/817/2 838/838/2 839/839/2
f 818/818/2 840/840/2 819/819/2
f 818/818/2 839/839/2 840/840/2
f 820/820/2 842/842/2 821/821/2
f 820/820/2 841/841/2 842/842/2
f 821/821/2 843/843/2 822/822/2
f 821/821/2 842/842/2 843/843/2
f 822/822/2 844/844/2 823/823/2
f 822/822/2 843/843/2 844/844/2
f 823/823/2 845/845/2 824/824/2
f 823/823/2 844/844/2 845/845/2
f 824/824/2 846/846/2 825/825/2
f 824/824/2 845/845/2 846/846/2
f 825/825/2 847/847/2 826/826/2
f 825/825/2 846/846/2 847/847/2
f 826/826/2 848/848/2 827/827/2
f 826/826/2 847/847/2 848/848/2
f 827/827/2 849/849/2 828/828/2
f 827/827/2 848/848/2 849/849/2
f 828/828/2 850/850/2 829/829/2
f 828/828/2 849/849/2 850/850/2
f 829/829/2 851/851/2 830/830/2
f 829/829/2 850/850/2 851/851/2
f 830/830/2 852/852/2 831/831/2
f 830/830/2 851/851/2 852/852/2
f 831/831/2 853/853/2 832/832/2
f 831/831/2 852/852/2 853/853/2
f 832/832/2 854/854/2 833/833/2
f 832/832/2 853/853/2 854/854/2
f 833/833/2 855/855/2 834/834/2
f 833/833/2 854/854/2 855/855/2
f 834/834/2 856/856/2 835/835/2
f 834/834/2 855/855/2 856/856/2
f 835/835/2 857/857/2 836/836/2
f 835/835/2 856/856/2 857/857/2
f 836/836/2 858/858/2 837/837/2
f 836/836/2 857/857/2 858/858/2
f 837/837/2 859/859/2 838/838/2
f 837/837/2 858/858/2 859/859/2
f 838/838/2 860/860/2 839/839/2
f 838/838/2 859/859/2 860/860/2
f 839/839/2 861/861/2 840/840/2
f 839/839/2 860/860/2 861/861/2
f 841/841/2 863/863/2 842/842/2
f 841/841/2 862/862/2 863/863/2
f 842/842/2 864/864/2 843/843/2
f 842/842/2 863/863/2 864/864/2
f 843/843/2 865/865/2 844/844/2
f 843/843/2 864/864/2 865/865/2
f 844/844/2 866/866/2 845/845/2
f 844/844/2 865/865/2 866/866/2
f 845/845/2 867/867/2 846/846/2
f 845/845/2 866/866/2 867/867/2
f 846/846/2 868/868/2 847/847/2
f 846/846/2 867/867/2 868/868/2
f 847/847/2 869/869/2 848/848/2
f 847/847/2 868/868/2 869/869/2
f 848/848/2 870/870/2 849/849/2
f 848/848/2 869/869/2 870/870/2
f 849/849/2 871/871/2 850/850/2
f 849/849/2 870/870/2 871/871/2
f 850/850/2 872/872/2 851/851/2
f 850/850/2 871/871/2 872/872/2
f 851/851/2 873/873/2 852/852/2
f 851/851/2 872/872/2 873/873/2
f 852/852/2 874/874/2 853/853/2
f 852/852/2 873/873/2 874/874/2
f 853/853/2 875/875/2 854/854/2
f 853/853/2 874/874/2 875/875/2
f 854/854/2 876/876/2 855/855/2
f 854/854/2 875/875/2 876/876/2
f 855/855/2 877/877/2 856/856/2
f 855/855/2 876/876/2 877/877/2
f 856/856/2 878/878/2 857/857/2
f 856/856/2 877/877/2 878/878/2
f 857/857/2 879/879/2 858/858/2
f 857/857/2 878/878/2 879/879/2
f 858/858/2 880/880/2 859/859/2
f 858/858/2 879/879/2 880/880/2
f 859/859/2 881/881/2 860/860/2
f 859/859/2 880/880/2 881/881/2
f 860/860/2 882/882/2 861/861/2
f 860/860/2 881/881/2 882/882/2
f 883/883/3 884/884/3 885/885/3
f 883/883/3 885/885/3 886/886/3
f 887/887/4 888/888/4 889/889/4
f 887/887/4 889/889/4 890/890/4
f 891/891/5 892/892/5 893/893/5
f 891/891/5 893/893/5 894/894/5
f 895/895/6 896/896/6 897/897/6
f 895/895/6 897/897/6 898/898/6